<?xml version="1.0" standalone="no"?>
<!DOCTYPE svg PUBLIC "-//W3C//DTD SVG 1.1//EN" "http://www.w3.org/Graphics/SVG/1.1/DTD/svg11.dtd" >
<svg>
<metadata>
Created by FontForge 20090914 at Fri Feb 24 15:56:32 2012
 By root
Copyright (c) 2011 by Kimberly Geswein. All rights reserved.
</metadata>
<defs>
<font id="CoveredByYourGrace" horiz-adv-x="422" >
  <font-face 
    font-family="Covered By Your Grace"
    font-weight="400"
    font-stretch="normal"
    units-per-em="1024"
    panose-1="2 0 0 0 0 0 0 0 0 0"
    ascent="819"
    descent="-205"
    x-height="435"
    cap-height="584"
    bbox="-116 -383.999 1011 1021"
    underline-thickness="0"
    underline-position="0"
    unicode-range="U+0020-U+FB02"
  />
<missing-glyph horiz-adv-x="410" 
 />
    <glyph glyph-name=".notdef" horiz-adv-x="410" 
 />
    <glyph glyph-name=".null" horiz-adv-x="0" 
 />
    <glyph glyph-name="CR" horiz-adv-x="410" 
 />
    <glyph glyph-name="space" unicode=" " horiz-adv-x="410" 
 />
    <glyph glyph-name="space" unicode="&#xa0;" horiz-adv-x="410" 
 />
    <glyph glyph-name="exclam" unicode="!" horiz-adv-x="121" 
d="M18 34c0 13 13 26 22 34h16c23 0 40 -9 40 -33c0 -16 -24 -38 -44 -35c-13 3 -34 18 -34 34zM18 367c0 15 0 24 5 39v342c0 8 28 20 33 20c23 0 32 -20 39 -37v-131c0 -12 4 -104 4 -115c0 -13 -4 -95 -4 -118c-3 -24 -11 -46 -39 -46c-29 0 -38 17 -38 46z" />
    <glyph glyph-name="quotedbl" unicode="&#x22;" horiz-adv-x="253" 
d="M147 676c-5 21 13 30 30 30c23 0 34 -18 38 -38c3 -31 12 -169 12 -199v-23c0 -25 0 -29 -24 -40h-3c-48 0 -37 94 -40 121c-3 24 -10 125 -13 149zM43 493v13c3 45 12 154 12 156l8 25c0 1 11 2 15 2c39 0 41 -23 41 -58c0 -67 -6 -136 -14 -201c-1 -12 -7 -18 -19 -18
c-35 0 -43 57 -43 81z" />
    <glyph glyph-name="numbersign" unicode="#" horiz-adv-x="441" 
d="M148 198c-3 10 -9 56 -9 64c0 11 3 35 -8 38c-16 -8 -32 -14 -51 -14c-11 0 -31 3 -38 14c-5 61 81 38 81 79c0 21 -1 37 -4 60h-1c-1 0 -1 0 -2 1c-24 0 -38 -27 -64 -27c-19 0 -40 12 -40 35c0 7 15 20 18 21l76 43l9 8l2 23c1 12 1 27 2 35v73c4 15 16 16 32 16
c13 0 19 -9 26 -20c0 -11 4 -62 4 -73c-1 -3 -1 -6 -1 -9c0 -5 1 -11 5 -12l26 9c3 0 4 1 4 4c7 36 6 87 5 118c5 15 15 17 30 17c49 0 37 -77 37 -108c17 0 34 7 51 7c8 0 12 -10 12 -17c0 -19 -45 -44 -59 -47c-7 -5 -4 -17 -4 -24c0 -3 0 -38 4 -38h4c11 6 61 31 73 38
c13 7 29 16 44 16c11 0 11 -3 11 -12c0 -1 -1 -1 -1 -4v-4c-5 -7 -26 -33 -29 -39c-3 -3 -8 -8 -8 -9l-90 -59c-5 -4 -4 -4 -4 -12c0 -48 13 -94 13 -142v-31c-3 -15 -16 -14 -27 -14c-16 0 -24 1 -31 18c-8 44 -15 87 -22 131h-4c-11 0 -26 -8 -26 -19c0 -33 9 -68 9 -103
c0 -20 -8 -39 -31 -39c-15 0 -12 4 -24 8zM181 482v-20c0 -7 0 -58 8 -53l31 18v67c0 3 -2 5 -7 5c0 0 -1 0 -2 -1c-4 -3 -26 -13 -30 -16z" />
    <glyph glyph-name="dollar" unicode="$" horiz-adv-x="342" 
d="M179 22l-16 70v5l-18 122c-8 8 -46 3 -46 14c-32 19 -7 43 42 38c0 30 3 102 -8 135c-28 -5 -123 18 -123 56c0 40 24 81 47 112c11 14 63 80 76 93c0 9 4 46 4 55v13l17 139c4 17 14 42 33 42c17 0 28 -12 35 -25v-24c0 -47 -12 -93 -12 -140c21 0 37 12 60 12
c21 0 37 -13 37 -33c0 -31 -18 -21 -39 -26c-13 -3 -63 -23 -63 -43v-164l4 -4c33 0 103 -8 114 -51c1 -3 1 -22 1 -26c0 -58 -66 -112 -106 -147v-30l30 -185c0 -12 -20 -30 -29 -30c-16 0 -29 3 -40 22zM209 378v-24c1 -4 3 -16 4 -16h5c1 0 22 20 30 29c5 8 16 18 16 30
v4c-7 0 -40 2 -46 5h-3c-3 0 -5 -2 -6 -5v-23zM87 485c0 -15 23 -12 34 -12c3 0 12 -3 12 4v82c-15 0 -46 -55 -46 -74z" />
    <glyph glyph-name="percent" unicode="%" horiz-adv-x="445" 
d="M103 30v25c0 13 8 38 5 50l67 279c29 76 49 155 93 224c13 11 26 18 42 18c11 0 26 -1 26 -16c0 -27 -15 -38 -26 -61c-40 -89 -55 -157 -84 -253v-4l-27 -93h6l55 97c0 27 16 34 39 34c9 0 16 1 24 -4c3 -3 18 -21 21 -22c54 -30 85 4 85 -81c0 -44 -27 -97 -75 -97
c-56 0 -74 69 -82 115h-8c-2 0 -26 -33 -34 -46c-24 -45 -26 -196 -94 -196c-15 0 -30 16 -33 31zM352 245c-7 -4 -11 -10 4 -26c7 -7 19 0 14 11c0 3 -11 14 -18 15zM18 511v4c0 41 66 69 100 69c44 0 57 -44 57 -81c0 -59 -21 -123 -89 -123c-53 0 -51 73 -59 105
c0 3 -9 24 -9 26zM87 469c5 -16 17 3 17 6c0 15 -20 29 -17 -6z" />
    <glyph glyph-name="ampersand" unicode="&#x26;" horiz-adv-x="348" 
d="M309 220c7 -12 -15 -53 -27 -55c-17 -5 -36 -6 -56 -2c-76 13 -131 44 -168 105c-4 4 -14 24 -15 27c-15 39 1 78 41 91c10 5 49 8 64 13c-23 28 -55 43 -91 78c-3 3 -5 8 -6 9c-11 18 -7 30 11 35c36 32 212 79 236 -9c12 -15 -4 -27 -17 -32c-34 -13 -67 6 -109 -7
l-6 -3c40 -32 103 -62 124 -91c8 -12 5 -28 -10 -32c-48 -16 -79 -5 -126 -21c-44 -21 40 -84 83 -95c6 -2 16 -2 31 0c1 0 18 2 19 3c13 0 15 -5 22 -14zM159 -17c-5 27 -8 69 -15 96c3 17 15 30 32 34c33 5 50 -15 54 -43c5 -24 24 -114 -12 -114c-42 0 -53 -3 -59 27z
M119 667c-3 24 2 23 -1 49c1 17 15 31 32 34c35 5 47 -14 54 -41c3 -26 16 -116 -20 -116c-45 0 -58 47 -65 74z" />
    <glyph glyph-name="quotesingle" unicode="'" horiz-adv-x="129" 
d="M23 489v16c0 19 8 106 8 127c5 17 15 25 32 25c29 0 40 -18 40 -45c0 -24 -7 -204 -37 -200c-36 5 -43 49 -43 77z" />
    <glyph glyph-name="parenleft" unicode="(" horiz-adv-x="257" 
d="M17 199c-8 -47 29 275 80 384c17 47 46 88 77 127c7 9 14 17 27 17c19 0 36 -16 36 -37c0 -35 -41 -76 -55 -103c-44 -94 -103 -295 -90 -377c0 -52 7 -103 52 -138c11 -8 56 -40 67 -46c0 -3 1 -8 1 -9c0 -15 -16 -17 -28 -17c-99 0 -164 112 -167 199z" />
    <glyph glyph-name="parenright" unicode=")" horiz-adv-x="270" 
d="M17 26c0 11 19 28 26 37c27 39 51 66 72 106c8 17 13 42 24 58c20 71 31 133 31 205c0 80 -12 163 -35 240c-8 33 -47 56 -47 87c0 15 16 31 32 31c50 0 88 -77 99 -114c21 -67 28 -159 31 -231c0 -79 -8 -154 -35 -230c0 -5 -25 -58 -33 -76c-16 -30 -81 -140 -122 -140
c-14 0 -43 7 -43 27z" />
    <glyph glyph-name="asterisk" unicode="*" horiz-adv-x="437" 
d="M55 157l4 29l27 20c-13 -3 -26 -5 -38 -5c-23 0 -34 12 -34 35c0 12 8 20 4 32c5 1 23 4 26 4h34l53 12c-23 23 -55 38 -75 65c-13 17 -10 33 7 48c11 7 21 7 29 18c4 -3 17 -16 20 -19c0 -1 18 -25 20 -25c9 -11 27 -26 42 -38l13 142c3 23 9 23 28 23c3 0 12 -1 15 -1
c5 -4 10 -10 14 -17v-36c0 -39 -3 -75 -4 -114l118 77c19 11 24 6 35 -9c3 -3 7 -11 8 -12c1 -8 0 -15 -5 -20c-4 -4 -24 -20 -28 -23c-7 -5 -12 -9 -19 -13l38 6c20 -5 37 -2 37 -31v-3c-23 -23 -54 -16 -80 -34l-70 -17l97 -87c8 -19 19 -32 -2 -49c-1 0 -1 0 -2 -1
c-32 3 -47 32 -76 43l-51 39c4 -24 8 -48 8 -71c0 -25 -20 -42 -44 -42h-3l-22 21c1 31 2 64 -3 96c-19 -19 -38 -38 -58 -55c-20 -15 -45 -11 -60 9z" />
    <glyph glyph-name="plus" unicode="+" horiz-adv-x="437" 
d="M201 83l-22 21c3 39 3 79 -8 118h-4c-39 0 -78 -21 -119 -21c-23 0 -34 12 -34 35c0 12 8 20 4 32c5 1 23 4 26 4h34c27 5 94 21 93 22l16 181c3 23 9 23 28 23c3 0 12 -1 15 -1c5 -4 10 -10 14 -17v-36c0 -45 -4 -89 -4 -134h4l143 26c20 -5 37 -2 37 -31v-3
c-23 -23 -54 -16 -80 -34l-100 -24c-7 -3 -5 -8 -5 -13c0 -35 9 -70 9 -106c0 -25 -20 -42 -44 -42h-3zM137 298h8v-4h-8v4z" />
    <glyph glyph-name="comma" unicode="," horiz-adv-x="133" 
d="M18 -31v21c2 9 18 104 18 113c3 20 3 47 31 47c25 0 42 -10 42 -37c0 -4 0 -13 -1 -14c-3 -16 -14 -87 -17 -101c-19 -24 2 -81 -43 -81c-23 0 -30 33 -30 52z" />
    <glyph glyph-name="hyphen" unicode="-" horiz-adv-x="409" 
d="M54 253c0 23 19 31 38 35l251 25c23 0 47 -5 47 -32c0 -11 -40 -38 -51 -32l-247 -27c-17 0 -38 12 -38 31z" />
    <glyph glyph-name="period" unicode="." horiz-adv-x="129" 
d="M22 38c0 19 16 38 35 38c23 0 35 -14 48 -29v-3c0 -23 -17 -44 -42 -44c-17 0 -41 19 -41 38z" />
    <glyph glyph-name="slash" unicode="/" horiz-adv-x="266" 
d="M20 -32v3c7 64 18 117 30 181v8l143 739c4 23 13 30 36 30h2c25 -13 30 -16 30 -43c0 -16 -5 -34 -8 -50c-3 -8 -15 -68 -18 -76v-4l-113 -566c-12 -76 -27 -151 -38 -227c-4 -16 -18 -23 -33 -23s-31 11 -31 28z" />
    <glyph glyph-name="zero" unicode="0" horiz-adv-x="336" 
d="M26 179c0 80 12 162 21 239c0 11 7 14 12 21c0 1 4 7 4 8c20 48 70 85 122 85c60 0 74 -31 103 -79c22 -49 25 -126 25 -179c-5 -89 -25 -201 -110 -252c-17 -11 -39 -22 -59 -22c-92 0 -118 106 -118 179zM101 139c3 -18 12 -67 40 -67c11 0 21 7 28 12
c70 54 77 155 77 234c0 11 -1 53 -1 62c-3 29 -19 109 -62 109c-24 0 -69 -31 -69 -58c0 -11 9 -15 9 -28v-11c-3 -9 -15 -87 -18 -96c-5 -33 -5 -69 -5 -101c0 -8 1 -48 1 -56z" />
    <glyph glyph-name="one" unicode="1" horiz-adv-x="141" 
d="M27 38c-5 61 -4 104 -4 164c0 104 16 205 21 309c0 26 -7 84 38 81c21 -3 32 -19 39 -39c-13 -135 -27 -268 -27 -405c0 -32 5 -64 5 -96c0 -20 -3 -53 -31 -53c-24 0 -34 19 -41 39z" />
    <glyph glyph-name="two" unicode="2" horiz-adv-x="477" 
d="M82 38c0 11 1 13 9 25c72 112 155 225 155 361c-79 0 -120 -116 -181 -116c-18 0 -47 7 -47 32v2c16 35 63 68 90 89c37 32 97 76 152 76c48 0 64 -33 64 -80c0 -88 -34 -174 -77 -250v-4l-26 -46h9c56 32 123 53 186 68h4c24 0 42 -5 42 -34c0 -10 -3 -19 -8 -26
c-11 -3 -30 -11 -42 -8l-98 -35l-160 -84c-11 -5 -21 -8 -32 -8c-19 0 -40 18 -40 38z" />
    <glyph glyph-name="three" unicode="3" horiz-adv-x="399" 
d="M162 38c0 12 0 18 13 25c2 2 25 5 26 5c16 3 43 28 51 33c39 33 50 73 50 122c0 14 3 52 -13 60c-3 1 -16 1 -19 1c-62 0 -104 -61 -168 -61c-21 0 -34 16 -34 36c0 42 117 154 141 210h-8c-62 0 -98 -60 -146 -60c-17 0 -41 7 -41 30c0 58 202 115 255 115
c25 0 37 -13 37 -39v-13c-23 -60 -57 -103 -89 -156h10c19 0 32 4 51 4c53 0 83 -39 96 -88c0 -7 1 -35 1 -40c0 -89 -38 -149 -111 -200c-19 -15 -39 -22 -61 -22c-21 0 -41 18 -41 38z" />
    <glyph glyph-name="four" unicode="4" horiz-adv-x="410" 
d="M236 34l-21 211h-4c-56 0 -109 -26 -165 -26h-4c-15 11 -33 27 -30 47c1 8 18 19 22 26c3 5 29 53 34 58c0 3 1 4 4 4l93 161c0 1 3 3 4 4l50 64c7 9 14 9 25 9c18 0 47 -10 47 -35v-212c24 0 41 19 66 19c23 0 35 -12 35 -37c0 -11 -2 -23 -13 -27l-88 -34v-3
c0 -75 21 -148 21 -220c0 -21 -10 -43 -33 -43c-8 0 -15 0 -22 4c-7 5 -21 19 -21 22v8zM130 308v-8c10 0 58 10 69 12c1 1 9 4 12 5c1 0 4 4 4 5v125l-4 6z" />
    <glyph glyph-name="five" unicode="5" horiz-adv-x="427" 
d="M115 35c0 27 27 41 43 57l59 73c11 15 29 38 34 58c-1 0 -7 1 -8 1c-24 0 -54 -21 -73 -34h-4c-9 -6 -17 -12 -24 -18c-13 -11 -30 -22 -39 -29c-15 -11 -19 -12 -43 -12c-31 0 -37 36 -37 60c0 25 7 51 4 75l25 156c19 35 -2 67 49 67c20 0 27 -8 40 -24h6
c25 0 50 11 74 8l135 25c1 1 11 1 14 1c23 0 38 -12 38 -37c0 -17 -9 -28 -26 -31l-122 -25h-9c-43 -7 -79 -10 -118 -22c-3 -1 -8 -3 -8 -4l-22 -127v-16c48 31 95 52 154 59c31 0 79 -12 79 -51c0 -53 -39 -103 -72 -144c-13 -13 -67 -75 -81 -89c-7 -4 -24 -12 -33 -12
c-19 0 -35 18 -35 35z" />
    <glyph glyph-name="six" unicode="6" horiz-adv-x="326" 
d="M69 -58c0 28 13 53 13 80c0 18 -26 30 -34 46c-19 31 -25 65 -25 100v6c51 259 70 310 75 329c11 28 22 63 58 63c17 0 31 -17 31 -36c21 41 -78 -212 -86 -363c0 -7 1 -33 1 -40c3 -8 5 -21 13 -26c5 11 32 57 39 69c18 31 79 100 119 100c32 0 41 -33 41 -61
c0 -88 -65 -176 -152 -200c-4 -15 -18 -38 -18 -53c0 -12 5 -23 5 -35c0 -23 -16 -39 -39 -39c-35 0 -41 36 -41 60zM211 132c-40 -51 -1 -42 17 -26c44 39 15 98 -17 26z" />
    <glyph glyph-name="seven" unicode="7" horiz-adv-x="362" 
d="M199 46c0 49 5 98 4 149l42 294v12c0 3 3 13 -4 14c-53 -17 -123 -42 -182 -42h-21c-15 8 -27 19 -30 38c-5 41 69 37 88 42c72 13 122 28 191 55h6c23 0 45 -16 45 -40v-11l-51 -278c-2 -10 -8 -85 -8 -106v-147c-11 -23 -17 -26 -41 -26c-27 0 -39 23 -39 46z" />
    <glyph glyph-name="eight" unicode="8" horiz-adv-x="330" 
d="M96 105c0 56 16 97 35 148v13c-39 31 -88 75 -109 122c-3 3 -4 19 -5 22v2c0 75 97 154 165 154c69 -11 116 -71 84 -135c-5 -18 -39 -109 -47 -127c-4 -12 -4 -4 -4 -15v-6c40 -51 90 -96 90 -163c0 -60 -61 -120 -121 -120c-61 0 -88 52 -88 105zM157 109
c0 -23 -2 -46 25 -46s63 39 55 68c-5 18 -38 72 -51 80c-19 -13 -29 -81 -29 -102zM88 420c0 -20 63 -86 75 -86h2c23 39 46 100 46 147v8c-3 1 -17 5 -21 5c-49 0 -58 -8 -89 -47c-5 -7 -13 -16 -13 -27z" />
    <glyph glyph-name="nine" unicode="9" horiz-adv-x="322" 
d="M177 43c0 4 8 45 8 49c0 3 4 49 4 65c7 105 18 211 18 318v19c-40 -32 -60 -97 -119 -102c-56 -5 -77 44 -77 91c-4 104 118 276 229 201c12 -11 14 -31 17 -42c15 -5 38 -19 38 -38c0 -99 -14 -196 -21 -296c-7 -95 -8 -187 -17 -282c-9 -19 -17 -26 -40 -26
s-43 22 -40 43zM183 646c-56 0 -101 -133 -101 -173h6l26 25l81 114v5c0 7 -5 29 -12 29z" />
    <glyph glyph-name="colon" unicode=":" horiz-adv-x="135" 
d="M22 154c0 19 12 41 31 41c25 0 60 -23 57 -52c-3 -19 -24 -30 -39 -30c-24 0 -49 14 -49 41zM26 358c-3 27 29 38 50 38c10 0 34 -29 34 -38c5 -19 -18 -33 -34 -33c-19 0 -47 10 -50 33z" />
    <glyph glyph-name="semicolon" unicode=";" horiz-adv-x="135" 
d="M-19 -190c0 3 1 10 1 11l44 197v65c0 1 13 13 18 16c1 0 6 1 7 1c33 0 49 -24 49 -53c0 -17 -2 -34 -5 -53c-5 -24 -15 -85 -16 -85l-5 -8l-26 -114c-3 -13 -15 -24 -30 -21c-25 3 -37 17 -37 44zM35 241c0 13 14 44 33 44s45 -30 45 -46v-13c-3 -5 -18 -18 -22 -21h-4
c-24 0 -52 9 -52 36z" />
    <glyph glyph-name="less" unicode="&#x3c;" horiz-adv-x="453" 
d="M190 119c-7 0 -67 -4 -74 -4h-30c-32 0 -73 4 -73 46c0 19 14 27 26 42c8 11 52 64 59 76c4 13 17 20 22 33l105 165c17 25 13 65 50 65c29 0 48 -25 51 -52c1 -3 -1 -10 -4 -13l-126 -198c-13 -29 -60 -62 -60 -92c87 0 167 -5 254 -14c9 -17 37 -13 37 -40
s-14 -40 -41 -40c-19 0 -27 9 -43 12c-51 11 -101 14 -153 14z" />
    <glyph glyph-name="equal" unicode="=" horiz-adv-x="420" 
d="M63 170c56 58 152 63 229 100c29 9 39 12 62 12c17 0 44 -5 47 -25c-1 -5 -9 -26 -12 -29s-16 -11 -21 -14c-85 -13 -168 -76 -253 -84c-23 0 -52 15 -52 40zM17 290c-3 25 15 33 34 38c59 21 115 33 299 73h5c10 0 34 -12 34 -23c0 -17 -10 -34 -25 -41
c-96 -35 -189 -49 -285 -81c-20 0 -59 10 -62 34z" />
    <glyph glyph-name="greater" unicode="&#x3e;" horiz-adv-x="431" 
d="M106 109c0 18 27 38 42 46l160 224c3 4 4 8 4 11v3l-274 105c-4 0 -22 29 -22 34c-3 20 41 28 50 28c104 -61 223 -80 335 -131c9 -12 13 -17 13 -28c0 -27 -23 -43 -38 -64c-64 -91 -104 -166 -187 -249c-3 -4 -20 -14 -25 -17c-21 -5 -58 11 -58 38z" />
    <glyph glyph-name="question" unicode="?" horiz-adv-x="366" 
d="M171 44c0 19 19 40 40 40c25 0 55 -13 55 -44c0 -28 -20 -36 -43 -36c-25 0 -52 12 -52 40zM104 281v2c16 73 74 121 111 182c5 8 32 58 38 72c7 15 3 14 3 27c-53 0 -94 -24 -138 -53c-20 -13 -33 -34 -58 -34c-20 0 -49 17 -49 41c0 8 1 8 9 13c77 61 146 108 247 108
c43 0 79 -18 79 -65c0 -63 -49 -129 -81 -177c-21 -31 -76 -85 -76 -121c0 -11 14 -13 14 -24c0 -24 -17 -33 -38 -33c-35 0 -61 29 -61 62z" />
    <glyph glyph-name="at" unicode="@" horiz-adv-x="762" 
d="M22 190c0 148 204 489 372 489c127 0 113 -260 113 -345c0 -61 -19 -149 -95 -149c-51 0 -70 34 -86 77c-5 12 -2 14 -9 26c-1 -1 -4 -4 -4 -5c-24 -45 -54 -106 -114 -106c-28 0 -52 24 -52 51c0 81 72 154 123 207c19 19 53 38 76 38c29 0 45 -21 64 -42
c0 -4 1 -22 1 -25c0 -39 -10 -74 -10 -113c0 -9 2 -29 13 -36c29 24 26 77 26 109c5 88 20 207 -56 226c-76 0 -183 -135 -215 -204c-8 -19 -47 -114 -55 -135c-8 -27 -9 -35 -9 -59c0 -95 84 -131 167 -131h20c19 3 80 15 84 17l240 115c29 13 53 63 86 63
c17 0 46 -9 46 -30c0 -23 -35 -48 -51 -59c-15 -10 -61 -42 -64 -42c-20 -13 -124 -61 -148 -72c-16 -4 -29 -16 -46 -21c-60 -19 -111 -34 -175 -34c-108 0 -242 65 -242 190zM233 310c-19 -43 2 -37 29 -8c80 83 12 68 -29 8z" />
    <glyph glyph-name="A" unicode="A" horiz-adv-x="509" 
d="M25 63c0 80 14 158 22 237c0 8 8 64 8 72v4l42 312c-3 27 7 51 38 51c68 8 81 -58 102 -97c13 -38 38 -94 89 -254l4 -4c19 11 115 55 135 63c1 3 9 5 12 6h2c13 0 20 -13 20 -22c0 -30 -31 -39 -42 -59l-99 -50c-3 -3 -4 -6 -4 -8c0 -11 15 -39 22 -52l51 -109v-3
c0 -24 -12 -36 -36 -36c-15 0 -33 1 -41 17l-67 143h-9c-51 -39 -109 -78 -169 -105c-9 -48 -11 -98 -8 -147c-11 -15 -19 -22 -38 -22c-37 0 -34 39 -34 63zM114 283v-26c40 16 78 46 113 69c4 3 11 5 16 9l10 7v8l-92 262l-4 4c-8 -16 -24 -157 -43 -333z" />
    <glyph glyph-name="B" unicode="B" horiz-adv-x="515" 
d="M88 195v8c-3 56 -5 120 -12 177c-11 0 -54 4 -54 23c0 30 34 62 50 78v152c0 17 22 26 37 26c74 0 27 -82 56 -93c49 24 82 55 133 55c24 0 60 -9 60 -40c0 -58 -37 -98 -58 -146c11 0 65 -8 76 -8c44 -8 122 -38 122 -95c0 -31 -13 -63 -29 -87c-11 -16 -47 -65 -50 -68
l-191 -165c-13 -11 -21 -13 -34 -13c-18 0 -81 7 -84 27zM165 262l21 -174h1c7 0 24 5 28 9c11 8 57 49 69 56c46 38 135 109 135 170c0 39 -62 45 -91 45c-57 0 -93 -42 -133 -76c-8 -8 -33 -17 -30 -30zM266 541h-4c-6 -3 -28 -19 -34 -22c0 0 -67 -52 -67 -54v-77h4
s38 43 50 59c4 7 19 26 22 30c8 16 29 53 29 54v10z" />
    <glyph glyph-name="C" unicode="C" horiz-adv-x="431" 
d="M23 129v24l29 234c3 20 4 32 4 35c24 82 46 207 155 207c48 0 75 -14 112 -46c13 -12 13 -10 13 -23c0 -17 -12 -37 -35 -37c-37 0 -43 43 -83 43c-44 0 -63 -51 -68 -89l-47 -320c0 -3 -1 -16 -1 -21c0 -18 -3 -64 24 -64c4 0 8 1 11 4c64 43 107 101 148 165
c3 6 24 44 29 55c16 35 8 80 58 80c19 0 40 -19 40 -40v-2c-33 -96 -88 -174 -152 -254c-40 -48 -92 -80 -156 -80h-5c-60 23 -76 69 -76 129z" />
    <glyph glyph-name="D" unicode="D" horiz-adv-x="523" 
d="M141 32c0 12 13 20 13 31c0 3 -8 8 -9 9c-13 20 -12 47 -12 70c0 123 2 241 2 364c-26 0 -48 -29 -83 -29h-16c-3 4 -18 7 -18 12v30c7 4 11 13 14 18l101 50l4 5c-3 37 -2 62 38 62c21 0 56 -15 51 -42c132 -5 275 -17 275 -185c0 -76 -30 -157 -85 -212l-190 -189
c-19 -19 -27 -26 -51 -26c-20 0 -34 12 -34 32zM226 537v-415h1l3 5c3 3 38 33 51 46c62 65 143 144 143 243c0 93 -73 129 -160 129c-4 0 -30 -1 -38 -8z" />
    <glyph glyph-name="E" unicode="E" 
d="M78 22c-13 53 -19 98 -22 151c-1 31 3 49 -4 76c-3 11 -21 7 -21 33c0 22 21 29 21 53v15c0 26 -9 145 -12 169c-1 23 -17 37 -17 60c0 43 15 58 59 58c9 0 14 -12 22 -12h4c4 1 14 4 17 4c223 96 233 101 249 93c16 -3 21 -9 21 -24c0 -13 -2 -28 -17 -35l-131 -63
l-4 -4l-110 -47c-8 -3 -8 -16 -8 -23c0 -20 11 -130 14 -130h1l1 1c29 21 146 118 148 118c15 0 29 -18 29 -34s-6 -39 -21 -50l-156 -139c1 -1 -2 -28 -1 -39c0 -48 10 -95 10 -143h4c1 0 16 14 21 21s35 48 160 203c5 5 18 20 21 20c4 4 21 3 26 0c7 -3 21 -17 21 -28
c0 -32 -78 -112 -102 -144c-38 -59 -103 -183 -185 -183c-20 0 -25 6 -38 23z" />
    <glyph glyph-name="F" unicode="F" horiz-adv-x="427" 
d="M34 249c0 24 17 30 17 51c0 79 -25 159 -25 238c0 28 8 37 37 37c23 0 36 -13 51 -30h5c19 11 114 63 135 76c23 12 43 21 68 21c13 0 20 -2 20 -19v-2c-11 -53 -59 -63 -93 -84c-79 -55 -109 -64 -122 -80c0 -4 -1 -19 -1 -22c0 -40 -2 -81 13 -118l233 110
c9 4 12 4 21 4c5 0 22 -4 22 -11c0 -61 -94 -97 -141 -120c-5 -3 -13 -3 -16 -8l-105 -55c-7 -4 -6 -6 -6 -13c0 -3 1 -8 1 -9l21 -164c4 -32 -19 -52 -47 -52c-11 0 -35 7 -38 23l-25 197c0 11 -25 14 -25 30z" />
    <glyph glyph-name="G" unicode="G" horiz-adv-x="501" 
d="M374 -87c-20 80 -27 175 -30 254c-24 -14 -28 -59 -47 -80c-31 -35 -65 -69 -114 -69c-80 0 -165 74 -165 156c0 57 21 119 48 170c11 19 51 80 59 88l109 115c29 31 79 43 118 46c20 3 35 -6 35 -26c0 -32 -59 -31 -81 -45c-71 -57 -128 -131 -173 -208
c-15 -47 -35 -86 -35 -137c0 -4 1 -23 1 -27c13 -32 42 -64 79 -64c19 0 41 14 52 31c11 14 59 89 67 105c8 17 30 55 30 59v4c-19 -5 -37 -9 -57 -9c-23 0 -62 6 -62 37c0 7 1 18 5 23c23 20 76 12 110 25c30 11 84 37 122 42c8 0 34 -12 34 -20c0 -29 -18 -35 -43 -51
c4 -53 -8 -107 -8 -160c0 -64 1 -132 12 -195c3 -5 14 -51 14 -55v-2c0 -19 -16 -41 -35 -41c-20 0 -41 15 -45 34z" />
    <glyph glyph-name="H" unicode="H" horiz-adv-x="367" 
d="M245 282l-114 -25h-3c0 -55 3 -106 3 -162c0 -32 2 -65 -37 -65c-19 0 -32 10 -39 29c-7 63 -5 122 -12 186c-3 19 -21 36 -21 52c0 12 13 17 13 32c0 104 -9 205 -9 308v17c9 13 17 14 33 14c39 0 45 -27 46 -60l9 -266c1 -4 4 -16 11 -16c18 0 117 20 124 32
c0 9 1 41 1 50c0 56 -1 110 -5 166c0 18 -17 164 -17 182c-1 1 -1 11 -1 14c0 17 15 25 30 25c32 0 45 -23 52 -52c2 -27 14 -159 17 -186v-16c0 -7 3 -32 4 -39v-410c7 -23 8 -34 8 -54c0 -16 -8 -39 -29 -39c-36 0 -64 41 -64 77v206z" />
    <glyph glyph-name="I" unicode="I" horiz-adv-x="154" 
d="M23 505v61c11 15 17 18 33 18c21 0 44 -12 47 -35c11 -75 0 -152 5 -227c5 -91 21 -191 21 -282c0 -27 -8 -40 -39 -40c-50 0 -50 81 -50 110c0 32 -17 301 -17 333v62z" />
    <glyph glyph-name="J" unicode="J" horiz-adv-x="323" 
d="M10 255c0 17 9 37 30 37c24 0 30 -38 43 -51c19 -16 105 -121 110 -131l12 -13l4 4c0 4 1 52 1 71c0 115 -5 226 -5 341v141c4 19 18 27 35 27c19 0 40 -7 45 -27c-3 -167 9 -326 9 -491c0 -40 7 -164 -58 -164c-3 0 -9 1 -10 1c-7 3 -30 17 -33 22l-165 185
c-16 17 -18 29 -18 48z" />
    <glyph glyph-name="K" unicode="K" horiz-adv-x="592" 
d="M92 38l-16 105c-15 7 -30 23 -30 38c0 19 17 29 17 48c0 31 -12 61 -8 93l-29 282v2c0 16 16 39 33 36c7 0 34 -9 42 -17c3 -3 12 -21 13 -25c11 -39 6 -90 9 -131c3 -30 9 -140 18 -140l2 1c68 68 120 138 153 227c0 5 10 36 12 43c0 1 6 36 14 37h46
c19 0 24 -31 24 -41c0 -1 -3 -8 -4 -9v-8c-21 -74 -48 -120 -88 -187c-7 -11 -26 -23 -30 -38l-92 -109l-13 -26h4c115 29 206 23 325 26c4 0 33 4 38 4h9c15 0 37 -3 42 -22c5 -15 -8 -34 -21 -41c-7 -2 -45 -9 -51 -9h-13c-28 -1 -74 -1 -113 -2l-72 -2l-148 -30v-6
c0 -29 13 -57 13 -86c0 -27 -12 -51 -43 -51c-16 0 -39 22 -43 38z" />
    <glyph glyph-name="L" unicode="L" horiz-adv-x="447" 
d="M32 155c0 103 5 203 5 307c0 60 -9 120 -9 180c0 19 12 34 31 34c64 0 58 -58 58 -106c0 -11 4 -98 4 -109v-33c0 -87 -4 -171 -4 -259v-42c0 -7 3 -22 4 -22h8l237 94c11 9 17 8 28 8c13 0 47 -1 47 -24c0 -15 -8 -29 -25 -40c-43 -23 -88 -43 -135 -55l-5 -4
c-64 -17 -116 -56 -176 -84h-9c-73 0 -59 110 -59 155z" />
    <glyph glyph-name="M" unicode="M" horiz-adv-x="585" 
d="M34 30c-3 148 -9 295 -9 443c0 22 1 123 1 143c5 21 14 35 37 35s40 -16 51 -35l144 -278c1 -3 12 -21 16 -26c1 -1 5 -3 5 -4l4 9l85 299c24 38 18 96 63 123h8c73 0 60 -95 63 -143c0 -26 17 -237 17 -262v-4c3 -23 17 -127 22 -148c2 -12 16 -61 21 -72
c-5 -31 -11 -48 -44 -48c-4 0 -15 1 -16 1c-4 3 -20 17 -21 21l-16 55l-30 228v9c-3 47 4 113 -12 161l-5 -6l-72 -290c-3 -28 -2 -73 -42 -76c-14 -2 -43 18 -46 34l-127 202l-21 42v-86c0 -81 5 -158 5 -239c0 -13 -1 -75 -1 -88c-5 -16 -14 -30 -33 -30
c-25 0 -38 7 -47 30z" />
    <glyph glyph-name="N" unicode="N" horiz-adv-x="445" 
d="M23 38v87c0 163 17 328 12 491c4 15 15 22 30 22c56 0 53 -45 56 -89c16 -29 41 -56 58 -84c0 -1 3 -8 4 -8l56 -85l4 -5l58 -84c3 -3 5 -4 7 -4h2c-17 141 -29 291 -29 435v50c5 9 14 13 27 13c51 0 41 -54 44 -89c0 -4 6 -11 22 -282v-18l34 -223c1 -11 16 -38 16 -50
c0 -28 -17 -47 -46 -47c-8 0 -29 15 -34 20l-161 229c-1 0 -3 6 -4 9c-16 24 -58 81 -58 84l-5 4c-7 -127 -12 -256 -8 -384c-3 -16 -19 -30 -34 -30c-27 0 -40 15 -51 38z" />
    <glyph glyph-name="O" unicode="O" horiz-adv-x="330" 
d="M22 177c4 25 -17 311 52 440c8 36 38 47 94 50c72 0 98 -84 120 -136v-5c19 -53 17 -231 17 -287c0 -81 -41 -239 -146 -239c-88 0 -137 102 -137 177zM119 110c3 -15 17 -34 34 -34h8c56 51 68 119 68 192c0 51 -11 295 -54 330c-1 -1 -4 -7 -4 -8
c-55 -68 -97 -245 -52 -480z" />
    <glyph glyph-name="P" unicode="P" horiz-adv-x="526" 
d="M162 38l-21 161c1 27 -1 53 -4 80c-1 7 -4 26 -4 29c0 1 -4 8 -4 9l2 2c2 2 3 3 2 3v193h-4c-16 -19 -37 -46 -66 -46c-21 0 -45 16 -45 40v2c0 1 2 4 3 7c1 2 1 4 2 5l112 98v55c0 13 21 21 32 21c17 0 31 -13 46 -13c13 0 23 10 34 17c51 31 94 47 153 47
c51 0 155 -15 155 -82c0 -60 -25 -116 -68 -159c-56 -53 -100 -92 -160 -135l-4 -5l-97 -67c-7 -5 -5 -24 -5 -28c0 -76 22 -153 22 -231c0 -21 -9 -41 -34 -41c-19 0 -44 18 -47 38zM217 397l4 -5l182 139c31 24 72 81 72 123c0 28 -51 26 -69 26c-60 0 -109 -33 -154 -64
c-6 -6 -35 -21 -35 -29v-190z" />
    <glyph glyph-name="Q" unicode="Q" horiz-adv-x="519" 
d="M515 -119l-193 199c-13 15 -24 30 -39 42l-2 1c-11 0 -62 -107 -144 -107c-80 0 -111 103 -111 167c0 20 5 38 4 57l54 233c2 15 29 86 34 101c13 11 10 22 29 22c20 0 47 -8 52 -31c3 -11 -4 -7 4 -16c19 7 39 8 58 8c72 0 77 -100 77 -150c0 -24 -7 -74 -4 -99l-21 -97
c-1 0 14 -18 21 -26l28 -29c3 -1 5 -6 6 -9l206 -215c1 -1 6 -12 9 -16v-1c0 -1 0 -1 1 -2c0 -23 -17 -40 -37 -40c-11 0 -25 1 -32 8zM139 358l-29 -159c-7 -31 2 -58 13 -85c3 -5 7 -22 14 -22c24 0 74 58 74 85c0 17 -17 25 -17 42c0 40 33 25 51 38c14 11 25 108 25 129
c0 30 1 76 -12 108h-6c-54 0 -86 -66 -105 -106c-3 -7 -11 -21 -8 -30z" />
    <glyph glyph-name="R" unicode="R" horiz-adv-x="768" 
d="M92 34l-16 198c-8 17 -13 25 -13 40c0 12 5 21 5 33c0 29 -2 52 -5 83c-3 8 -38 6 -38 41c0 32 34 41 34 73c0 14 -4 80 -4 94v2v2c11 24 11 30 33 30c57 0 44 -53 55 -56l72 63h4c47 31 99 48 156 48c36 0 106 -15 106 -63c0 -52 -28 -118 -63 -153
c-7 -15 -84 -71 -240 -190l480 -30c28 -3 102 4 102 -42c0 -25 -14 -25 -25 -38h-17h-17c-79 8 -163 34 -536 34c-1 0 -4 -5 -4 -8c0 -51 13 -99 13 -147c0 -19 -8 -49 -32 -49c-15 0 -47 15 -50 35zM143 469v-16c0 -33 1 -60 4 -95h3c4 0 7 2 167 111c32 19 80 99 80 133
c0 13 -17 10 -26 10c-39 0 -98 -18 -228 -143z" />
    <glyph glyph-name="S" unicode="S" horiz-adv-x="549" 
d="M173 36c43 60 105 47 157 86c29 16 119 71 119 97c0 1 0 1 -1 1s-2 0 -2 1l-2 2c-7 3 -26 8 -29 9c-344 40 -399 55 -399 124c0 26 23 69 36 84c43 54 147 82 214 101c37 3 76 24 113 29c19 0 32 -18 32 -34c0 -43 -38 -43 -73 -51c-21 -5 -83 -21 -88 -24
c-83 -35 -152 -59 -149 -103v-1c40 -56 423 -15 427 -131c0 -15 -6 -38 -17 -49c-67 -75 -191 -169 -300 -177c-19 0 -38 16 -38 36z" />
    <glyph glyph-name="T" unicode="T" horiz-adv-x="449" 
d="M218 431v8c-3 22 -9 73 -9 72h-8l-114 -34c-7 -11 -26 -8 -34 -8c-19 0 -43 20 -43 40c0 15 11 31 26 36l161 51c4 15 15 34 34 34s29 -13 45 -18c23 3 127 29 148 34c16 3 20 8 37 8c23 0 53 -13 53 -40c0 -17 -14 -31 -31 -35l-190 -48v-9c0 -41 12 -81 9 -121l34 -309
v-22c0 -32 2 -70 -40 -70c-16 0 -39 15 -40 34z" />
    <glyph glyph-name="U" unicode="U" 
d="M297 141c-29 -55 -86 -152 -157 -152c-91 0 -101 122 -101 190v26c4 31 18 176 22 207c-11 27 10 59 39 59c8 0 46 -13 46 -25v-38c-37 -286 -18 -325 -5 -338c31 -13 58 4 144 155c3 4 7 18 8 22c-3 88 0 178 4 266c5 13 19 22 32 22c11 0 48 -19 48 -35v-295
c9 -60 13 -121 22 -181c0 -12 15 -96 17 -106v-12c0 -24 -13 -37 -39 -39c-70 -8 -60 229 -80 274z" />
    <glyph glyph-name="V" unicode="V" horiz-adv-x="522" 
d="M257 118l-215 359c-15 11 -31 39 -31 58c0 20 20 31 37 31c63 0 51 -61 239 -329c4 -11 18 -30 21 -34l4 8l55 207l4 9l39 139c-4 24 13 46 36 46s52 -17 52 -42v-4l-114 -427c0 -6 -10 -62 -13 -80c-3 -24 0 -59 -37 -59c-65 0 -52 80 -77 118z" />
    <glyph glyph-name="W" unicode="W" horiz-adv-x="517" 
d="M370 17l-127 325l-4 4c-8 -32 -8 -64 -9 -97c0 -20 -4 -115 -4 -135c-4 -16 -19 -30 -36 -30c-12 0 -46 7 -49 21l-63 221l-46 181c-3 3 -18 36 -18 46c0 19 23 31 38 31c25 0 40 -10 47 -31l55 -199c7 3 8 19 8 22c0 2 4 41 39 203c11 13 25 17 44 17c17 0 27 -3 31 -22
l68 -286l8 -22c16 132 16 154 56 426c4 27 26 30 50 30c1 0 8 -3 9 -4l16 -4c5 -12 10 -19 10 -30c-8 40 -61 -286 -77 -684c-9 0 -41 5 -46 17z" />
    <glyph glyph-name="X" unicode="X" horiz-adv-x="467" 
d="M211 169h-8c-1 -3 -10 -18 -13 -22c-21 -29 -33 -131 -80 -131c-17 0 -47 14 -47 34c0 19 13 30 13 47l63 130l5 14v3v1c-54 76 -108 173 -118 194c-22 27 3 60 35 60c23 0 35 -7 44 -26c23 -48 44 -91 73 -135h1c17 19 23 68 66 236c3 12 20 26 31 26h4
c37 -8 39 -3 42 -44c-4 -58 -65 -262 -81 -294v-9l194 -194c8 -8 9 -15 9 -24c0 -21 -14 -35 -34 -35c-19 0 -41 11 -56 26z" />
    <glyph glyph-name="Y" unicode="Y" horiz-adv-x="424" 
d="M226 -6c3 14 12 82 14 97c7 60 20 119 20 179v15l-16 8c-11 5 -96 66 -123 90c-16 11 -79 70 -93 84c-11 11 -22 25 -22 40c0 23 21 32 41 32c13 0 29 -2 40 -13c51 -56 116 -116 181 -156l4 13l42 270c3 15 20 17 32 17c35 0 53 -15 53 -54v-2c0 -2 -8 -26 -8 -29
c-12 -49 -49 -389 -73 -553c3 -27 4 -76 -38 -76c-25 0 -46 14 -54 38z" />
    <glyph glyph-name="Z" unicode="Z" horiz-adv-x="748" 
d="M74 36v2c0 3 3 10 4 13c11 19 60 88 235 367h-28l-195 -30h-10c-20 0 -57 20 -57 40c0 40 49 37 76 37l215 29c1 0 23 1 30 1c36 0 84 5 84 -43c0 -13 -11 -27 -20 -34l-165 -265c-20 -13 -28 -46 -43 -65c3 -4 7 -4 11 -4h6l469 64c17 0 46 -10 46 -33
c0 -20 -8 -31 -25 -43c-70 0 -223 -5 -557 -72c-2 -1 -4 -1 -7 -1h-9c-20 0 -60 9 -60 37z" />
    <glyph glyph-name="bracketleft" unicode="[" horiz-adv-x="412" 
d="M47 -42c0 55 8 107 8 162c0 49 -5 99 -8 148c-3 64 -1 126 -4 190c-4 65 -6 141 -13 202c-3 23 -8 43 -8 66v7c1 4 16 18 21 21c19 9 52 9 71 17c47 20 92 40 135 63c4 11 22 8 33 8c18 0 27 -8 27 -25c0 -27 -36 -42 -55 -50l-144 -64l-4 -4v-14v-20
c15 -224 36 -446 29 -671c-1 -4 1 -15 4 -18h7h7l173 77c8 -3 17 5 26 5c23 0 41 -9 41 -33c0 -8 0 -23 -9 -27l-270 -110c-2 -1 -4 -1 -6 -1h-8c-43 0 -53 32 -53 71z" />
    <glyph glyph-name="backslash" unicode="\" horiz-adv-x="563" 
d="M467 22l-457 857v1c0 23 24 36 43 36c23 0 35 -10 46 -29l427 -795c19 -20 25 -31 25 -56c0 -24 -10 -37 -37 -37c-16 0 -39 7 -47 23z" />
    <glyph glyph-name="bracketright" unicode="]" horiz-adv-x="420" 
d="M138 -57c-1 5 -9 26 -12 30v2c0 32 89 36 105 36c11 0 81 -2 91 -2v8c-3 67 -31 225 -82 689v46c0 10 -3 42 -4 42l-5 4l-131 -13c-1 -1 -9 -4 -12 -4c-21 0 -76 7 -76 38s27 37 51 38c13 0 114 9 126 9c25 1 53 8 76 8c25 0 52 -4 60 -33c0 -2 -4 -32 -4 -34v-22
c0 -75 15 -152 79 -791c0 -1 1 -8 1 -11c0 -19 -9 -36 -28 -36c-25 0 -47 5 -72 5c-31 0 -63 -2 -94 -9c-5 0 -28 -8 -30 -8c-6 0 -31 3 -39 8z" />
    <glyph glyph-name="asciicircum" unicode="^" horiz-adv-x="354" 
d="M32 675l83 146l19 45c5 11 22 11 35 11c11 0 18 -1 26 -9c8 -13 52 -75 60 -86c1 -1 7 -8 7 -9c8 -10 42 -64 50 -75c4 -7 4 -8 4 -15c0 -15 -13 -19 -33 -19c-17 0 -32 8 -39 19l-67 99l-4 -3c-8 -10 -12 -32 -73 -127c-3 -3 -18 -8 -22 -8c-16 0 -56 13 -46 31z" />
    <glyph glyph-name="underscore" unicode="_" horiz-adv-x="596" 
d="M17 34v6c0 7 6 25 13 28l505 98c3 0 16 -1 19 -1c11 -19 26 -17 26 -49c0 -16 -20 -29 -35 -32l-465 -84h-1c-32 0 -41 10 -62 34z" />
    <glyph glyph-name="grave" unicode="`" horiz-adv-x="250" 
d="M234 608c-29 -47 -101 30 -123 55c-14 14 -34 32 -19 53c15 20 34 27 55 12c39 -54 95 -57 87 -120z" />
    <glyph glyph-name="a" unicode="a" horiz-adv-x="399" 
d="M260 274l-4 5c-35 -63 -102 -225 -177 -237c-20 0 -61 6 -61 34c3 271 71 450 250 498c3 0 12 1 15 1c80 3 62 -147 83 -507c4 -15 4 -23 4 -38c0 -20 -13 -30 -32 -30c-39 0 -52 23 -57 59c0 4 -10 89 -13 123v4c-3 13 -2 35 -5 54zM234 477c-36 -27 -75 -77 -90 -120
c-14 -41 -32 -150 -32 -167c1 0 4 4 5 5c83 80 112 171 117 282z" />
    <glyph glyph-name="b" unicode="b" horiz-adv-x="384" 
d="M47 308l-21 26v2c0 11 9 23 17 31v51c0 111 -2 213 -13 325c0 17 15 26 28 26c113 20 45 -269 73 -308c15 5 13 5 16 6l18 14c29 23 72 26 107 26c247 -36 12 -325 -159 -508c-24 0 -66 16 -66 48v261zM131 257c0 -8 4 -67 4 -75v-11c0 -9 1 -21 1 -32v-10
c31 6 114 160 138 213c11 27 26 80 -3 98c-47 0 -117 -54 -136 -94c-3 -13 -4 -75 -4 -89z" />
    <glyph glyph-name="c" unicode="c" horiz-adv-x="354" 
d="M23 120c-28 121 126 400 228 290c0 -3 5 -15 5 -118c1 -3 4 -10 4 -13c-4 -15 -16 -30 -33 -30c-23 0 -36 4 -43 32c5 8 -9 58 -9 77c-1 0 -4 -3 -5 -4c-44 -78 -87 -203 -37 -282c19 0 35 20 46 33c23 27 45 54 64 85c16 27 12 42 49 42c21 0 44 -9 44 -32
c0 -62 -124 -201 -191 -201c-65 0 -122 53 -122 121z" />
    <glyph glyph-name="d" unicode="d" horiz-adv-x="412" 
d="M274 158c-2 0 -71 -140 -157 -140c-59 0 -103 38 -103 101c-8 96 119 325 238 293v14c0 70 -9 137 -9 310c4 15 15 18 27 18c31 0 49 -23 53 -52c-8 -135 9 -271 85 -797v-34c0 -15 -29 -16 -38 -16c-20 0 -48 12 -52 32l-37 267c0 4 -4 4 -7 4zM98 136
c0 -8 -5 -46 10 -46c100 -4 233 274 90 241c-57 -51 -100 -116 -100 -195z" />
    <glyph glyph-name="e" unicode="e" horiz-adv-x="445" 
d="M441 284c-8 -72 -14 -31 -175 -192c-43 -41 -90 -88 -149 -88c-57 0 -83 45 -83 96c0 33 1 50 9 86c-15 13 -27 21 -27 38c0 31 35 16 43 33l38 110c19 45 43 98 99 98c33 0 101 -67 101 -99c0 -40 -42 -66 -69 -87c-1 0 -6 -4 -9 -5l-24 -25c-7 -7 -52 -41 -60 -46
l-4 -8c-4 -9 -12 -82 -12 -111c0 -1 0 -1 1 -2s2 -2 3 -2c11 0 19 13 30 17l160 148l41 63c14 20 87 53 87 -24zM155 319l66 43c14 11 -10 50 -26 26c-8 -11 -47 -74 -40 -69z" />
    <glyph glyph-name="f" unicode="f" horiz-adv-x="293" 
d="M70 208l-4 8c-59 -11 -63 52 -52 60c4 1 23 14 26 17c1 0 4 3 5 4v18c0 75 -13 147 -13 220c0 96 -2 222 123 222c21 0 63 3 63 -30c0 -49 -54 -15 -81 -50c-3 -3 -8 -18 -8 -22c-5 -18 -12 -72 -12 -75c0 -2 -1 -41 -1 -57c0 -57 1 -92 9 -150h8l135 80
c19 4 31 17 50 17s44 -9 44 -29c0 -15 -9 -18 -13 -30c-5 -1 -25 -10 -30 -13l-118 -72c-18 -12 -59 -44 -60 -45v-10l26 -85c-1 -4 -1 -9 4 -12l47 -143c7 -24 -15 -42 -36 -42c-24 0 -50 13 -57 38z" />
    <glyph glyph-name="g" unicode="g" horiz-adv-x="416" 
d="M72 -349c-5 15 0 38 19 43c61 -27 136 -13 197 8c61 50 44 151 -4 456c0 7 2 38 -10 29c-35 -67 -92 -169 -182 -169c-40 0 -75 24 -75 68c0 100 137 381 236 381c27 0 97 -20 97 -51v-81l65 -472c0 -107 2 -198 -123 -238c-24 -12 -224 -19 -220 26zM228 378
c-41 -45 -167 -260 -124 -276c84 44 216 288 124 276z" />
    <glyph glyph-name="h" unicode="h" horiz-adv-x="388" 
d="M63 88l-25 401c3 80 -12 160 -12 239c0 25 17 28 36 28c27 0 45 -15 48 -42c12 -145 8 -286 25 -431c121 229 277 229 225 -266c-19 0 -58 -5 -61 15c32 299 -30 298 -47 294c-59 -22 -107 -182 -99 -279c-3 -20 -2 -47 -30 -47c-55 0 -65 43 -60 88z" />
    <glyph glyph-name="i" unicode="i" horiz-adv-x="173" 
d="M70 38c-40 400 -47 431 -47 435v4c0 15 16 26 29 26c20 0 48 -5 56 -26c24 -131 10 -266 42 -397c0 -5 8 -37 8 -42v-2c0 -1 0 -1 1 -2c0 -16 -18 -37 -34 -34c-4 1 -25 5 -30 8c-7 2 -33 20 -25 30zM14 767c0 9 21 18 29 18c20 0 52 -11 52 -34s-3 -29 -26 -29
c-24 0 -55 17 -55 45z" />
    <glyph glyph-name="j" unicode="j" horiz-adv-x="201" 
d="M-116 -165c0 120 70 6 120 -2c76 0 92 120 92 174c0 7 1 28 -39 459c0 20 10 35 31 35c27 0 42 -5 57 -30c0 -47 15 -113 39 -475c0 -87 -26 -196 -123 -226c-8 3 -16 -4 -24 -4c-53 0 -131 20 -153 69zM10 728c0 21 21 27 37 27c25 0 53 -14 53 -45
c0 -17 -24 -24 -37 -24c-19 0 -53 21 -53 42z" />
    <glyph glyph-name="k" unicode="k" horiz-adv-x="399" 
d="M37 -37c0 13 -4 72 -4 84c-4 113 9 616 0 621c0 13 10 32 25 29c21 0 60 -13 60 -41v-292h4l115 131c19 24 30 68 66 76c28 -7 51 -15 51 -46c0 -3 -3 -10 -4 -13c-8 -11 -44 -53 -195 -236l9 -5l194 -20c17 -3 34 -23 34 -38c0 -27 -23 -36 -46 -39
c-3 10 -13 -2 -224 30l4 -238c0 -27 -6 -41 -38 -41c-24 0 -43 18 -51 38z" />
    <glyph glyph-name="l" unicode="l" horiz-adv-x="153" 
d="M31 70c0 56 4 108 4 164c-4 152 3 295 -12 448c0 25 12 32 36 32c31 0 56 -19 57 -51c-3 -189 9 -373 9 -564v-77c-8 -11 -24 -25 -39 -22c-39 7 -55 33 -55 70z" />
    <glyph glyph-name="m" unicode="m" horiz-adv-x="581" 
d="M38 322v4c-3 35 -5 70 -12 105c0 29 23 34 46 34h20c39 -18 28 -56 31 -89c3 -14 -1 -71 8 -80l88 165c8 15 24 27 43 24c59 -5 52 -35 55 -84c0 -17 6 -97 9 -113h4c6 20 34 118 42 139c3 6 18 39 20 46c9 15 19 12 31 12c67 0 64 -75 75 -127c1 0 1 -3 0 -4l55 -291
c5 -5 5 -8 5 -15c0 -15 -17 -32 -32 -32c-20 0 -53 16 -57 39l-46 237l-5 8c-5 -13 -36 -134 -68 -257c-3 -12 -19 -18 -28 -18c-57 0 -64 28 -69 76c0 11 -13 148 -16 199c0 11 3 7 -5 22l-29 -69l-46 -169l-10 -62c-3 -17 -27 -22 -38 -22c-29 0 -53 26 -54 51z" />
    <glyph glyph-name="n" unicode="n" horiz-adv-x="414" 
d="M308 34c-55 78 -61 386 -109 266l-87 -268c-7 -19 -14 -25 -35 -25s-51 14 -54 38c12 50 11 367 7 402c0 27 -2 60 33 60c25 0 52 -26 52 -50c0 -35 -5 -68 -5 -103c0 -21 -1 -33 4 -54l51 139c9 27 27 56 58 59c41 3 65 -58 73 -88l54 -249l42 -114c1 -1 1 -9 1 -12
c0 -16 -6 -35 -25 -35c-23 0 -51 14 -60 34z" />
    <glyph glyph-name="o" unicode="o" horiz-adv-x="338" 
d="M26 150v3l37 257c3 17 17 25 33 25c29 0 45 -19 57 -43h1c16 0 26 9 45 9c85 0 118 -120 118 -188c0 -80 -91 -214 -179 -214c-81 0 -112 82 -112 151zM110 150v-3c5 -27 7 -76 43 -63c34 31 88 80 88 135c11 91 -54 167 -110 55c-16 -35 -21 -85 -21 -124z" />
    <glyph glyph-name="p" unicode="p" 
d="M55 180l8 -414c0 -24 40 -38 57 -38c32 0 33 33 33 57l8 230c5 5 9 9 13 12c7 7 16 13 20 18c81 81 208 226 208 349c0 49 -33 78 -80 78c-72 0 -127 -38 -182 -81h-4c-16 0 -24 17 -40 17c-56 0 -41 -70 -41 -106c-5 -8 -37 -51 -42 -58c-3 -5 -8 -6 -8 -14
c0 -31 25 -41 50 -50zM148 117l-4 155c3 21 18 39 34 52c209 189 141 -68 20 -157c-11 -13 -44 -50 -46 -50h-4z" />
    <glyph glyph-name="q" unicode="q" horiz-adv-x="395" 
d="M270 160l-4 -4c-42 -84 -90 -141 -105 -136c-15 -9 -26 -9 -41 -9c-69 0 -98 70 -98 130c0 119 89 246 197 289c30 11 144 32 149 -22c0 -15 -6 -33 -10 -46c3 -100 -4 -199 -4 -299c0 -112 14 -222 14 -334c0 -20 -12 -51 -38 -46c-109 -8 -40 436 -60 477zM110 190
c-68 -241 160 75 160 190c-81 -32 -128 -116 -160 -190z" />
    <glyph glyph-name="r" unicode="r" horiz-adv-x="357" 
d="M68 43c-5 96 -27 351 -38 435c0 17 20 21 35 21c19 0 44 -11 49 -30c0 -12 5 -60 5 -72c0 -16 -1 -12 4 -30l8 9c43 62 73 85 143 147c15 13 14 14 28 14c23 0 52 -16 52 -43c0 -18 -30 -42 -45 -47c-69 -61 -166 -162 -166 -261c0 -45 10 -89 10 -134v-35
c-11 -11 -16 -18 -31 -18c-23 0 -47 24 -54 44z" />
    <glyph glyph-name="s" unicode="s" horiz-adv-x="412" 
d="M174 38c0 7 0 12 5 17c33 42 80 86 102 135v6l-131 -27h-15c-37 0 -121 8 -121 61c3 61 141 158 191 192c28 16 71 27 103 27c27 0 50 -8 50 -37c0 -12 1 -24 -14 -28c-87 8 -147 -46 -203 -105c-8 -9 -24 -31 -24 -34v-1c70 0 135 31 206 31c28 0 68 -7 68 -43
c0 -51 -49 -82 -152 -228c-3 -4 -15 -5 -22 -5c-19 0 -43 19 -43 39z" />
    <glyph glyph-name="t" unicode="t" horiz-adv-x="441" 
d="M123 292h-4c-19 0 -31 -14 -51 -14c-3 0 -18 1 -21 1c-10 12 -31 14 -31 37c0 40 73 47 99 68v44c0 99 -14 199 -14 296c0 27 14 32 37 32c53 0 45 -70 48 -106c0 -35 10 -197 13 -232c11 3 69 24 81 29c35 15 72 38 111 38c27 0 41 -21 41 -45c0 -17 -16 -23 -31 -30
l-182 -68c-4 -3 -8 -4 -12 -8v-32c0 -47 1 -98 8 -145c7 -40 17 -78 17 -118c0 -12 -8 -39 -25 -39c-36 0 -60 23 -63 59c-7 69 -14 157 -21 233z" />
    <glyph glyph-name="u" unicode="u" horiz-adv-x="350" 
d="M225 83l-4 12c-19 -41 -32 -97 -85 -97c-92 0 -122 105 -122 177l8 242c-3 19 28 43 50 43c31 0 55 -21 55 -52v-10c-43 -70 -55 -300 -2 -316c21 0 112 44 104 377c5 15 16 13 27 13c12 0 19 1 28 -8c7 -7 17 -25 17 -26l17 -443c0 -20 -11 -35 -31 -35
c-12 0 -42 6 -45 23z" />
    <glyph glyph-name="v" unicode="v" horiz-adv-x="388" 
d="M127 139v4l-110 267c-1 1 -1 1 -1 2v4c0 12 8 20 19 27c3 0 13 1 16 1c25 0 31 -9 50 -22c11 -40 28 -75 89 -227l5 -5c8 14 8 28 67 202c22 35 8 97 57 97c23 0 49 -21 49 -46c0 -12 -10 -28 -18 -37l-122 -406h-6c-11 0 -45 7 -48 17z" />
    <glyph glyph-name="w" unicode="w" horiz-adv-x="507" 
d="M141 48c-8 31 -47 152 -116 391c0 3 -3 14 -3 17c3 16 31 17 42 16c29 -4 41 -18 50 -46l58 -191l4 -5c32 53 -4 148 71 169c16 0 40 -15 45 -31l54 -173l11 -15c11 48 37 237 42 274c0 3 1 11 1 14c11 12 32 19 47 16c12 -3 36 -21 36 -36l-57 -410
c-3 -16 -36 -19 -47 -19c-66 25 -87 118 -119 174l-4 1c-17 -17 -26 -150 -26 -154c-3 -19 -31 -31 -48 -28c-19 3 -33 21 -41 36z" />
    <glyph glyph-name="x" unicode="x" horiz-adv-x="431" 
d="M60 -97c-4 26 91 244 99 294c0 3 -1 10 -1 11c-48 29 -100 104 -140 147v4c0 21 18 34 38 34c62 0 102 -105 127 -105h4c3 13 16 49 64 198c3 12 21 14 32 14c20 0 40 -14 40 -37v-6l-70 -240l163 -140l4 -12v-2c0 -23 -20 -33 -39 -33c-40 0 -124 102 -148 102h-4
c-55 -51 -45 -242 -125 -262c-17 0 -44 13 -44 33z" />
    <glyph glyph-name="y" unicode="y" horiz-adv-x="342" 
d="M223 -275c-5 55 -5 168 0 243v36c-13 18 -28 22 -172 236c-55 58 -26 77 -4 77c54 0 82 -54 109 -94c15 -23 55 -83 55 -84l12 -13v105c0 67 -4 129 -4 194c0 19 15 32 34 31c23 -3 31 -6 43 -22c11 -15 7 -36 8 -55c5 -127 9 -252 9 -379c-4 -39 3 -314 4 -313
c0 -20 -16 -29 -36 -29c-53 0 -45 33 -58 67z" />
    <glyph glyph-name="z" unicode="z" horiz-adv-x="752" 
d="M125 40c0 3 1 10 2 11l143 271c8 19 26 74 26 79v11c-88 0 -218 -112 -274 0c0 16 25 27 37 27c3 0 22 -4 25 -4c78 8 154 55 229 50c31 0 84 2 84 -42c0 -19 -6 -40 -17 -55l-118 -274v-9l72 34h4l326 102h16c22 0 59 -6 59 -35c8 -54 -238 -53 -473 -180
c-8 3 -73 -27 -89 -27c-21 0 -52 17 -52 41z" />
    <glyph glyph-name="braceleft" unicode="{" horiz-adv-x="391" 
d="M156 44c8 105 31 217 -9 320c-29 -11 -55 -38 -87 -38c-23 0 -48 15 -48 42c0 23 67 51 80 67c13 17 13 44 13 63c-32 152 0 398 194 418c20 0 72 3 72 -33c12 -54 -103 -11 -152 -89c-77 -109 -34 -236 -34 -359c92 -28 54 -355 58 -429c25 0 46 49 75 49h3
c17 -15 17 -12 17 -31c0 -47 -53 -108 -102 -108c-67 0 -80 77 -80 128z" />
    <glyph glyph-name="bar" unicode="|" horiz-adv-x="165" 
d="M22 910c0 27 9 28 32 28c31 0 40 -12 51 -39c15 -173 18 -344 22 -519c3 -104 -5 -213 12 -317c7 -7 5 -14 5 -21c0 -27 -22 -42 -45 -42c-29 0 -49 34 -52 59v76c-3 167 -3 329 -8 494c-4 95 -17 188 -17 281z" />
    <glyph glyph-name="braceright" unicode="}" horiz-adv-x="296" 
d="M18 -76c0 32 78 34 99 50c39 31 76 76 76 127c0 73 -141 55 -149 165c0 27 26 58 26 66v2l-4 4c-9 9 -10 22 -10 42c8 99 93 189 77 299c0 14 2 77 -81 77c-25 12 -97 95 73 71c50 0 132 -67 84 -219c-11 -51 -18 -103 -42 -147c-11 -20 -26 -40 -26 -64v-4
c30 17 60 -22 60 -51c-5 -37 -76 -33 -76 -84c0 -30 43 -40 62 -51c41 -22 85 -43 85 -112c0 -87 -103 -210 -196 -210c-21 0 -58 13 -58 39z" />
    <glyph glyph-name="asciitilde" unicode="~" horiz-adv-x="408" 
d="M39 502c0 7 1 10 2 17c18 55 39 118 88 134c9 0 17 0 25 -11l57 -72c11 -7 16 -19 29 -19c9 0 18 20 22 27c16 24 23 64 49 64c15 0 18 -13 18 -32c0 -57 -41 -131 -80 -131c-47 -3 -85 55 -120 85c-27 0 -44 -88 -64 -88c-9 0 -26 10 -26 26z" />
    <glyph glyph-name="exclamdown" unicode="&#xa1;" horiz-adv-x="121" 
d="M26 667c0 15 22 27 35 30c21 3 45 -16 45 -31c0 -21 -17 -29 -41 -29h-16c-9 7 -23 18 -23 30zM26 374c0 27 10 41 39 41s37 -20 40 -41c0 -19 4 -92 4 -103s-4 -91 -4 -101v-116c-7 -15 -16 -32 -40 -32c-5 0 -33 11 -33 17v301c-7 13 -6 22 -6 34z" />
    <glyph glyph-name="cent" unicode="&#xa2;" horiz-adv-x="354" 
d="M137 383c5 148 3 157 41 149c52 -3 31 -23 36 -100c55 18 106 -10 114 -121c1 -3 4 -10 4 -13c-6 -14 -44 -19 -62 -19c0 13 -13 46 -28 61c-3 3 -13 3 -25 4c-5 -93 -8 -167 3 -227c7 1 12 3 19 14c16 27 12 42 49 42c21 0 44 -9 44 -32c0 -39 -44 -82 -93 -111
c3 -24 5 -52 5 -56c0 -27 -23 -34 -46 -34c-16 0 -32 29 -43 60c-2 -1 -5 -1 -10 -1c-65 0 -122 53 -122 121c-21 81 41 196 114 263zM133 72h6c0 19 1 58 1 63c0 35 -1 91 -2 152c-29 -71 -42 -157 -5 -215z" />
    <glyph glyph-name="sterling" unicode="&#xa3;" horiz-adv-x="521" 
d="M-50 337c0 23 19 31 38 35l48 5c0 28 1 56 1 85c0 60 -9 120 -9 180c0 150 575 -29 297 -50c-105 -16 -219 60 -219 21c0 -11 15 -142 15 -152v-33v-43l118 12c23 0 47 -5 47 -32c0 -11 -40 -38 -51 -32l-116 -13c5 -48 -14 -135 10 -215c245 140 284 -33 334 -33
c14 0 52 -20 52 -43c0 -15 -8 -29 -25 -40c-42 -17 -185 105 -237 77c-64 -16 -94 -39 -153 -66h-9c-73 0 -59 110 -59 155c0 52 1 104 2 156l-46 -5c-17 0 -38 12 -38 31z" />
    <glyph glyph-name="currency" unicode="&#xa4;" horiz-adv-x="498" 
d="M46 70c3 15 43 69 84 129c-3 13 -4 28 -4 45v3l29 202c-12 25 -21 48 -32 68c0 0 0 1 1 2v2c7 20 27 28 46 23c11 -3 19 -8 26 -15c12 -49 28 -68 57 -43h1c16 0 26 9 45 9c8 0 15 -1 23 -4c15 24 33 53 60 92c7 11 24 8 35 5c19 -5 36 -23 29 -46c0 -1 -1 -5 -2 -5
l-60 -99c23 -40 33 -94 33 -131c0 -28 -10 -62 -29 -94l47 -68v-5c0 -3 1 -6 1 -7v-2c-7 -21 -28 -27 -47 -22c-15 4 -29 21 -45 42c-31 -35 -69 -58 -106 -58c-27 0 -46 8 -62 21c-27 -47 -57 -88 -96 -87c-16 3 -39 25 -34 43zM200 242v-3c5 -27 7 -76 43 -63
c34 31 88 80 88 135c11 91 -54 167 -110 55c-16 -35 -21 -85 -21 -124z" />
    <glyph glyph-name="yen" unicode="&#xa5;" horiz-adv-x="446" 
d="M44 292c-3 25 15 33 34 38c31 11 59 19 106 30v33l-13 12c-8 8 -71 94 -90 123c-13 15 -56 91 -64 107c-7 13 -14 32 -9 45c7 23 29 25 48 18c13 -3 27 -9 35 -24c31 -68 75 -145 126 -202l8 11l120 245c7 15 24 10 36 7c33 -10 45 -32 34 -67v-2
c-1 -1 -154 -246 -155 -249c-5 -5 -9 -19 -10 -42c35 7 78 17 127 28h5c10 0 34 -12 34 -23c0 -17 -10 -34 -25 -41c-47 -17 -91 -29 -138 -41l3 -49c23 7 43 12 63 23c29 9 39 12 62 12c17 0 44 -5 47 -25c-1 -5 -9 -26 -12 -29s-16 -11 -21 -14c-45 -7 -89 -28 -132 -47
c5 -87 8 -218 -30 -218c-24 7 -40 27 -41 52l-6 137c-15 -4 -29 -7 -44 -8c-23 0 -52 15 -52 40c27 27 59 42 95 54v55c-27 -7 -52 -14 -79 -23c-20 0 -59 10 -62 34z" />
    <glyph glyph-name="brokenbar" unicode="&#xa6;" horiz-adv-x="141" 
d="M102 348h-71c5 55 10 108 13 163c0 26 -7 84 38 81c21 -3 32 -19 39 -39c-7 -68 -14 -137 -19 -205zM37 313h57c-5 -66 0 -99 0 -165c0 -32 5 -64 5 -96c0 -20 -3 -53 -31 -53c-24 0 -34 19 -41 39c-5 61 -4 104 -4 164c0 48 9 63 14 111z" />
    <glyph glyph-name="section" unicode="&#xa7;" horiz-adv-x="495" 
d="M41 15c0 7 0 12 5 17c74 21 246 94 235 158v6l-131 -27h-15c-37 0 -121 8 -121 61c-5 58 75 148 153 166c-36 5 -77 20 -77 58c3 61 141 158 191 192c28 16 71 27 103 27c27 0 50 -8 50 -37c0 -12 1 -24 -14 -28c-87 8 -147 -46 -203 -105c-8 -9 -24 -31 -24 -34v-1
c70 0 135 31 206 31c28 0 68 -7 68 -43c22 -76 -52 -130 -145 -181h1c28 0 68 -7 68 -43c32 -110 -142 -180 -285 -251c-3 -4 -15 -5 -22 -5c-19 0 -43 19 -43 39zM344 384c-131 43 -207 -93 -220 -128c43 -27 207 60 220 128z" />
    <glyph glyph-name="dieresis" unicode="&#xa8;" horiz-adv-x="302" 
d="M40 710c0 19 16 38 35 38c23 0 35 -14 48 -29v-3c0 -23 -17 -44 -42 -44c-17 0 -41 19 -41 38zM169 710c0 19 16 38 35 38c23 0 35 -14 48 -29v-3c0 -23 -17 -44 -42 -44c-17 0 -41 19 -41 38z" />
    <glyph glyph-name="copyright" unicode="&#xa9;" horiz-adv-x="716" 
d="M201 220c-28 121 126 400 228 290c0 -3 5 -15 5 -118c1 -3 4 -10 4 -13c-4 -15 -16 -30 -33 -30c-23 0 -36 4 -43 32c5 8 -9 58 -9 77c-1 0 -4 -3 -5 -4c-44 -78 -87 -203 -37 -282c19 0 35 20 46 33c23 27 45 54 64 85c16 27 12 42 49 42c21 0 44 -9 44 -32
c0 -62 -124 -201 -191 -201c-65 0 -122 53 -122 121zM66 201c-11 51 11 537 377 468c75 -3 128 -102 158 -172c19 -53 39 -206 39 -262c0 -81 -101 -233 -206 -233c-41 0 -312 -58 -368 199zM163 134c36 -76 269 -56 265 -56h8c56 50 128 113 128 186c0 49 -71 324 -118 328
c-134 39 -402 -124 -283 -458z" />
    <glyph glyph-name="ordfeminine" unicode="&#xaa;" horiz-adv-x="279" 
d="M180 425l-3 3c-24 -33 -69 -111 -118 -119c-14 0 -41 3 -41 17c3 136 46 225 167 249c1 0 9 1 10 1c53 0 42 -73 55 -254c3 -7 3 -11 3 -19c0 -9 -9 -15 -21 -15c-27 0 -35 11 -38 30c0 0 -8 46 -9 61v2l-3 27c-1 6 -2 12 -2 17zM162 527c-24 -13 -51 -39 -60 -60
c-8 -22 -21 -74 -21 -84l3 3c56 40 75 85 78 141z" />
    <glyph glyph-name="guillemotleft" unicode="&#xab;" horiz-adv-x="840" 
d="M224 223l-68 28c-3 1 -22 10 -27 13c-30 14 -65 35 -46 73c8 17 24 18 41 27c14 6 73 35 86 43c11 11 23 11 34 20l166 104c26 15 41 53 73 37c27 -13 35 -44 24 -69c0 -3 -6 -7 -9 -10l-199 -124c-24 -21 -80 -31 -94 -58c79 -37 148 -77 223 -122c0 -19 28 -26 16 -52
c-11 -23 -31 -29 -54 -18c-16 8 -19 20 -34 29c-40 32 -85 56 -132 79zM467 212l-68 28c-3 1 -22 10 -27 13c-30 14 -65 35 -46 73c8 17 24 18 41 27c14 6 73 35 86 43c11 11 23 11 34 20l166 104c26 16 40 53 74 37c27 -13 34 -44 23 -69c0 -3 -6 -7 -9 -10l-199 -124
c-24 -22 -80 -29 -94 -57c79 -39 148 -76 223 -123c0 -19 28 -26 16 -52c-11 -23 -31 -29 -54 -18c-16 8 -19 21 -34 29c-40 32 -85 56 -132 79z" />
    <glyph glyph-name="logicalnot" unicode="&#xac;" horiz-adv-x="558" 
d="M60 371c0 23 19 31 38 35l368 34c23 0 47 -5 47 -32c0 -5 -8 -12 5 -175c0 -23 -5 -47 -32 -47c-12 0 -37 39 -32 51l-9 137l-347 -34c-17 0 -38 12 -38 31z" />
    <glyph glyph-name="hyphen_" unicode="&#xad;" horiz-adv-x="409" 
d="M54 253c0 23 19 31 38 35l251 25c23 0 47 -5 47 -32c0 -11 -40 -38 -51 -32l-247 -27c-17 0 -38 12 -38 31z" />
    <glyph glyph-name="registered" unicode="&#xae;" horiz-adv-x="647" 
d="M43 230c-11 51 11 537 377 468c75 -3 128 -102 158 -172c19 -53 39 -206 39 -262c0 -81 -101 -233 -206 -233c-42 0 -312 -58 -368 199zM198 173l-7 119c-5 8 -7 11 -7 18c0 5 2 9 2 14c0 13 -1 23 -2 36c-3 4 -20 3 -20 18c0 14 18 18 18 32c-1 7 -2 34 -2 41v2
c5 11 22 15 34 15c29 0 24 -23 29 -25c37 62 168 165 176 21c0 -84 -75 -138 -158 -149l251 -13c7 -1 17 1 28 -2c-4 64 -72 317 -117 321c-134 39 -402 -124 -283 -458c36 -76 269 -56 265 -56h8c43 41 99 88 120 143c-43 -11 -106 -11 -279 32c-1 -1 -1 -1 -1 -2
c-1 -1 -1 -1 -1 -2c0 -21 7 -73 7 -94c0 -8 -4 -21 -17 -21c-9 0 -41 2 -44 10zM243 398v-7c0 -15 1 -27 2 -42h1c3 0 3 1 88 49c16 8 41 44 41 57c0 7 -9 5 -13 5c-21 0 -51 -8 -119 -62z" />
    <glyph glyph-name="macron" unicode="&#xaf;" horiz-adv-x="406" 
d="M24 714c0 23 19 31 38 35l251 25c23 0 47 -5 47 -32c0 -11 -40 -38 -51 -32l-247 -27c-17 0 -38 12 -38 31z" />
    <glyph glyph-name="degree" unicode="&#xb0;" horiz-adv-x="279" 
d="M121 609h1c11 0 18 4 30 4c57 0 78 -54 78 -83c0 -35 -60 -94 -119 -94c-61 3 -145 61 10 173zM172 532c-3 67 -78 25 -81 -20c13 -40 84 -13 81 20z" />
    <glyph glyph-name="plusminus" unicode="&#xb1;" horiz-adv-x="437" 
d="M42 75c0 23 19 31 38 35l100 10c1 33 -1 69 -9 102h-4c-39 0 -47 -13 -88 -13c-23 0 -34 12 -34 35c0 55 101 28 126 50l16 181c3 23 9 23 28 23c3 0 12 -1 15 -1c5 -4 10 -10 14 -17v-36c0 -45 -4 -89 -4 -134h4l110 15c20 -5 37 -2 37 -31v-3c-23 -23 -54 -15 -147 -47
c-7 -3 -5 -8 -5 -13c0 -35 8 -69 9 -104l83 8c23 0 47 -5 47 -32c0 -11 -40 -38 -51 -32l-247 -27c-17 0 -38 12 -38 31z" />
    <glyph glyph-name="twosuperior" unicode="&#xb2;" horiz-adv-x="305" 
d="M56 260c0 5 0 7 5 14c43 61 90 124 90 199c-45 0 -71 -64 -105 -64c-11 0 -28 5 -28 18v1c11 19 37 38 53 49c21 18 56 42 88 42c28 0 37 -19 37 -44c0 -49 -20 -97 -44 -138v-2l-16 -26h6c32 17 71 30 108 38h2c15 0 24 -3 24 -19c0 -5 -1 -10 -4 -14
c-7 -3 -17 -6 -25 -5l-57 -19l-93 -47c-6 -3 -12 -4 -18 -4c-11 0 -23 10 -23 21z" />
    <glyph glyph-name="threesuperior" unicode="&#xb3;" horiz-adv-x="224" 
d="M83 276c0 7 1 10 6 14c3 0 11 3 13 3c7 0 20 15 24 17c17 19 23 39 23 66c0 7 2 29 -6 32c-1 1 -8 1 -9 1c-29 0 -49 -33 -79 -33c-11 0 -16 8 -16 19c0 23 55 84 66 113h-3c-29 0 -47 -32 -69 -32c-8 0 -19 4 -19 16c0 32 94 62 120 62c11 0 17 -7 17 -21v-7
c-11 -32 -27 -55 -42 -84h5c8 0 15 2 24 2c25 0 38 -20 45 -47c0 -4 1 -18 1 -22c0 -48 -18 -80 -53 -107c-9 -8 -18 -12 -28 -12c-11 0 -20 9 -20 20z" />
    <glyph glyph-name="acute" unicode="&#xb4;" horiz-adv-x="250" 
d="M87 629c-8 69 45 70 81 129c20 16 37 10 52 -13c16 -24 -7 -41 -18 -57c-21 -26 -88 -110 -115 -59z" />
    <glyph glyph-name="mu" unicode="&#xb5;" horiz-adv-x="449" 
d="M133 107l-4 -12l-26 -167c-8 -30 -41 -21 -52 -24c-24 0 -37 15 -37 36l25 522c0 1 13 20 20 27c11 9 18 8 33 8c13 0 25 2 32 -13c-12 -346 99 -390 122 -390c61 20 53 245 0 319v11c0 32 29 53 65 53c27 0 39 -24 35 -43l42 -227c24 -93 77 -274 -23 -216
c-22 11 -6 100 -20 78c-23 -35 -59 -62 -112 -62c-62 0 -76 57 -100 100z" />
    <glyph glyph-name="paragraph" unicode="&#xb6;" horiz-adv-x="452" 
d="M330 53c-5 61 -4 104 -4 164c0 104 25 294 30 398v7c-31 -4 -61 -10 -61 -18c0 -99 -14 -196 -21 -296c-7 -95 -8 -187 -17 -282c-9 -19 -17 -26 -40 -26s-43 22 -40 43c0 4 8 45 8 49c0 3 4 49 4 65c7 105 18 211 18 318v19c-40 -32 -60 -97 -119 -102
c-56 -5 -77 44 -77 91c0 218 218 240 369 212c3 1 7 1 14 1c12 -2 22 -8 29 -19c12 -9 15 -18 9 -29c-13 -135 -35 -352 -35 -485c0 -32 5 -64 5 -96c0 -20 -3 -53 -31 -53c-24 0 -34 19 -41 39z" />
    <glyph glyph-name="periodcentered" unicode="&#xb7;" horiz-adv-x="129" 
d="M25 284c0 19 16 38 35 38c23 0 35 -14 48 -29v-3c0 -23 -17 -44 -42 -44c-17 0 -41 19 -41 38z" />
    <glyph glyph-name="cedilla" unicode="&#xb8;" horiz-adv-x="414" 
d="M113 -270c0 7 0 12 5 17c33 41 131 12 152 67c21 48 -74 37 -92 34c-37 0 -121 8 -121 61c24 133 167 198 127 49c-8 -9 -24 -31 -24 -34v-1c70 -14 178 25 220 -73c24 -114 -59 -103 -202 -154c-3 -4 -15 -5 -22 -5c-19 0 -43 19 -43 39z" />
    <glyph glyph-name="onesuperior" unicode="&#xb9;" horiz-adv-x="141" 
d="M26 316c-5 32 -3 51 -3 83c0 52 12 103 16 155c0 12 -6 43 29 40c16 -1 25 -10 30 -19c-11 -68 -21 -135 -21 -204c0 -16 4 -32 4 -48c0 -10 -2 -27 -24 -27c-19 0 -27 11 -31 20z" />
    <glyph glyph-name="ordmasculine" unicode="&#xba;" horiz-adv-x="207" 
d="M26 306v2l19 115c1 8 9 12 17 12c16 0 23 -9 30 -20c9 0 15 4 24 4c44 0 62 -53 62 -84c0 -37 -49 -96 -94 -96c-43 0 -58 36 -58 67zM69 306v-1c6 -12 3 -34 23 -28c17 12 46 38 46 60c5 41 -29 76 -58 25c-8 -16 -11 -39 -11 -56z" />
    <glyph glyph-name="guillemotright" unicode="&#xbb;" horiz-adv-x="659" 
d="M106 109c0 18 27 38 42 46l160 224c3 4 4 8 4 11v3l-274 105c-4 0 -22 29 -22 34c-3 20 41 28 50 28c104 -61 223 -80 335 -131c9 -12 13 -17 13 -28c0 -27 -23 -43 -38 -64c-64 -91 -104 -166 -187 -249c-3 -4 -20 -14 -25 -17c-21 -5 -58 11 -58 38zM294 142
c0 18 27 38 42 46l160 224c3 4 4 8 4 11v3l-274 105c-4 0 -22 29 -22 34c-3 20 41 28 50 28c104 -61 223 -80 335 -131c9 -12 13 -17 13 -28c0 -27 -23 -43 -38 -64c-64 -91 -104 -166 -187 -249c-3 -4 -20 -14 -25 -17c-21 -5 -58 11 -58 38z" />
    <glyph glyph-name="onequarter" unicode="&#xbc;" horiz-adv-x="558" 
d="M27 292c-5 32 -4 57 -4 89c0 57 14 112 19 169c0 14 -7 47 34 44c20 -1 29 -10 36 -21c-12 -73 -25 -146 -25 -221c0 -17 5 -34 5 -53c0 -11 -3 -29 -28 -29c-23 0 -32 11 -37 22zM57 -76v3c7 53 19 97 31 150v7l144 612c4 19 14 25 37 25h2c25 -11 30 -14 30 -35
c0 -13 -5 -29 -8 -42c-3 -6 -16 -56 -18 -63v-3l-114 -469c-13 -64 -28 -125 -39 -189c-4 -13 -18 -19 -33 -19c-16 0 -32 10 -32 23zM412 28l-17 145h-3c-42 0 -85 -18 -129 -18h-3c-12 8 -25 19 -24 32c1 7 14 14 18 18c0 3 24 38 26 40c0 2 1 3 3 3l73 110c0 1 2 2 3 3
c7 7 34 36 39 44c5 7 12 6 20 6c13 0 37 -7 37 -24v-145c19 0 32 13 51 13s28 -9 28 -26c0 -7 -2 -15 -10 -18l-69 -24v-2c0 -51 16 -100 16 -151c0 -13 -7 -29 -26 -29c-5 0 -12 0 -17 3s-16 12 -16 15v5zM329 216v-5c8 0 45 6 54 8c1 1 8 3 9 3s3 3 3 4v86l-3 4z" />
    <glyph glyph-name="onehalf" unicode="&#xbd;" horiz-adv-x="601" 
d="M26 257c-3 37 -3 63 -3 100c0 63 11 124 15 188c0 14 -5 52 27 49c15 -1 23 -12 27 -24c-9 -81 -19 -162 -19 -246c0 -20 4 -39 4 -58c0 -12 -3 -33 -22 -33c-17 0 -24 12 -29 24zM84 -36v2c7 47 16 84 27 131v5l124 533c4 16 12 22 32 22h1c23 -9 26 -12 26 -31
c0 -12 -4 -25 -7 -36c0 -4 -13 -51 -15 -55v-3l-99 -408c-11 -55 -24 -109 -33 -164c-3 -11 -16 -16 -29 -16c-12 0 -27 8 -27 20zM301 49c0 8 1 9 6 18c56 77 117 155 117 250c-59 0 -90 -81 -136 -81c-13 0 -35 5 -35 22v2c10 23 48 48 67 61c29 23 73 53 115 53
c36 0 48 -23 48 -55c0 -61 -26 -121 -58 -173v-3l-20 -32h7c43 23 93 36 140 47h3c17 0 32 -3 32 -24c0 -7 -2 -13 -6 -18c-8 -1 -23 -6 -32 -5l-74 -24l-120 -58c-8 -4 -16 -6 -24 -6c-15 0 -30 13 -30 26z" />
    <glyph glyph-name="threequarters" unicode="&#xbe;" horiz-adv-x="693" 
d="M115 247c0 7 0 11 9 15c2 0 17 3 18 3c11 0 30 16 35 19c27 20 34 44 34 73c0 9 3 31 -8 36h-14c-41 0 -71 -36 -115 -36c-15 0 -23 9 -23 21c0 25 79 94 97 125h-6c-43 0 -67 -35 -100 -35c-12 0 -28 4 -28 17c0 35 138 69 175 69c17 0 25 -8 25 -23v-8
c-15 -36 -38 -61 -61 -93h7c13 0 22 2 35 2c36 0 57 -23 66 -52c0 -4 1 -20 1 -24c0 -53 -26 -88 -77 -119c-13 -9 -27 -13 -42 -13s-28 11 -28 23zM202 -48v3c7 44 16 82 27 127v6l129 521c3 16 12 22 32 22h2c23 -9 27 -12 27 -31c0 -11 -4 -24 -7 -35
c-2 -5 -16 -49 -16 -54v-2l-102 -400c-11 -53 -25 -107 -34 -160c-4 -12 -17 -16 -30 -16s-28 7 -28 19zM539 46l-16 141h-2c-43 0 -78 -17 -121 -17h-2c-11 7 -25 18 -22 31c0 5 13 13 16 18c0 3 22 36 24 39c0 1 1 2 3 2l68 108c0 1 2 2 3 3c5 8 31 35 36 43
c5 7 11 6 19 6c11 0 34 -7 34 -23v-143c17 0 29 13 48 13c17 0 25 -8 25 -25c0 -7 -1 -15 -9 -18l-64 -23v-2c0 -49 15 -99 15 -147c0 -15 -8 -29 -24 -29c-5 0 -11 0 -16 3s-15 13 -15 14v6zM462 230v-6c7 0 40 8 50 8c1 1 6 3 9 4c0 0 2 2 2 3v84l-2 4z" />
    <glyph glyph-name="questiondown" unicode="&#xbf;" horiz-adv-x="366" 
d="M178 627c0 31 23 43 46 43c20 0 39 -9 39 -38c0 -33 -26 -47 -49 -47c-20 0 -36 23 -36 42zM119 374v2c0 36 23 66 54 66c19 0 34 -10 34 -35c0 -12 -13 -14 -13 -25c0 -39 49 -94 68 -129c27 -51 72 -121 72 -187c0 -49 -33 -69 -70 -69c-91 0 -152 51 -220 114
c-8 7 -8 6 -8 14c0 25 26 43 43 43c23 0 35 -21 52 -36c39 -31 75 -56 123 -56c0 15 2 13 -3 29c-6 15 -29 68 -34 76c-32 66 -85 115 -98 193z" />
    <glyph glyph-name="Agrave" unicode="&#xc0;" horiz-adv-x="509" 
d="M25 63c0 80 14 158 22 237c0 8 8 64 8 72v4l42 312c-3 27 7 51 38 51c68 8 81 -58 102 -97c13 -38 38 -94 89 -254l4 -4c19 11 115 55 135 63c1 3 9 5 12 6h2c13 0 20 -13 20 -22c0 -30 -31 -39 -42 -59l-99 -50c-3 -3 -4 -6 -4 -8c0 -11 15 -39 22 -52l51 -109v-3
c0 -24 -12 -36 -36 -36c-15 0 -33 1 -41 17l-67 143h-9c-51 -39 -109 -78 -169 -105c-9 -48 -11 -98 -8 -147c-11 -15 -19 -22 -38 -22c-37 0 -34 39 -34 63zM114 283v-26c40 16 78 46 113 69c4 3 11 5 16 9l10 7v8l-92 262l-4 4c-8 -16 -24 -157 -43 -333zM246 818
c-29 -47 -101 30 -123 55c-14 14 -34 32 -19 53c15 20 34 27 55 12c39 -54 95 -57 87 -120z" />
    <glyph glyph-name="Aacute" unicode="&#xc1;" horiz-adv-x="509" 
d="M25 63c0 80 14 158 22 237c0 8 8 64 8 72v4l42 312c-3 27 7 51 38 51c68 8 81 -58 102 -97c13 -38 38 -94 89 -254l4 -4c19 11 115 55 135 63c1 3 9 5 12 6h2c13 0 20 -13 20 -22c0 -30 -31 -39 -42 -59l-99 -50c-3 -3 -4 -6 -4 -8c0 -11 15 -39 22 -52l51 -109v-3
c0 -24 -12 -36 -36 -36c-15 0 -33 1 -41 17l-67 143h-9c-51 -39 -109 -78 -169 -105c-9 -48 -11 -98 -8 -147c-11 -15 -19 -22 -38 -22c-37 0 -34 39 -34 63zM114 283v-26c40 16 78 46 113 69c4 3 11 5 16 9l10 7v8l-92 262l-4 4c-8 -16 -24 -157 -43 -333zM44 776
c-8 69 45 70 81 129c20 16 37 10 52 -13c16 -24 -7 -41 -18 -57c-21 -26 -88 -110 -115 -59z" />
    <glyph glyph-name="Acircumflex" unicode="&#xc2;" horiz-adv-x="509" 
d="M25 63c0 80 14 158 22 237c0 8 8 64 8 72v4l42 312c-3 27 7 51 38 51c68 8 81 -58 102 -97c13 -38 38 -94 89 -254l4 -4c19 11 115 55 135 63c1 3 9 5 12 6h2c13 0 20 -13 20 -22c0 -30 -31 -39 -42 -59l-99 -50c-3 -3 -4 -6 -4 -8c0 -11 15 -39 22 -52l51 -109v-3
c0 -24 -12 -36 -36 -36c-15 0 -33 1 -41 17l-67 143h-9c-51 -39 -109 -78 -169 -105c-9 -48 -11 -98 -8 -147c-11 -15 -19 -22 -38 -22c-37 0 -34 39 -34 63zM114 283v-26c40 16 78 46 113 69c4 3 11 5 16 9l10 7v8l-92 262l-4 4c-8 -16 -24 -157 -43 -333zM-12 793l83 146
l19 45c5 11 22 11 35 11c11 0 18 -1 26 -9c8 -13 52 -75 60 -86c1 -1 7 -8 7 -9c8 -10 42 -64 50 -75c4 -7 4 -8 4 -15c0 -15 -13 -19 -33 -19c-17 0 -32 8 -39 19l-67 99l-4 -3c-8 -10 -12 -32 -73 -127c-3 -3 -18 -8 -22 -8c-16 0 -56 13 -46 31z" />
    <glyph glyph-name="Atilde" unicode="&#xc3;" horiz-adv-x="509" 
d="M25 63c0 80 14 158 22 237c0 8 8 64 8 72v4l42 312c-3 27 7 51 38 51c68 8 81 -58 102 -97c13 -38 38 -94 89 -254l4 -4c19 11 115 55 135 63c1 3 9 5 12 6h2c13 0 20 -13 20 -22c0 -30 -31 -39 -42 -59l-99 -50c-3 -3 -4 -6 -4 -8c0 -11 15 -39 22 -52l51 -109v-3
c0 -24 -12 -36 -36 -36c-15 0 -33 1 -41 17l-67 143h-9c-51 -39 -109 -78 -169 -105c-9 -48 -11 -98 -8 -147c-11 -15 -19 -22 -38 -22c-37 0 -34 39 -34 63zM114 283v-26c40 16 78 46 113 69c4 3 11 5 16 9l10 7v8l-92 262l-4 4c-8 -16 -24 -157 -43 -333zM38 784
c0 7 1 10 2 17c18 55 39 118 88 134c9 0 17 0 25 -11l57 -72c11 -7 16 -19 29 -19c9 0 18 20 22 27c16 24 23 64 49 64c15 0 18 -13 18 -32c0 -57 -41 -131 -80 -131c-47 -3 -85 55 -120 85c-27 0 -44 -88 -64 -88c-9 0 -26 10 -26 26z" />
    <glyph glyph-name="Adieresis" unicode="&#xc4;" horiz-adv-x="509" 
d="M25 63c0 80 14 158 22 237c0 8 8 64 8 72v4l42 312c-3 27 7 51 38 51c68 8 81 -58 102 -97c13 -38 38 -94 89 -254l4 -4c19 11 115 55 135 63c1 3 9 5 12 6h2c13 0 20 -13 20 -22c0 -30 -31 -39 -42 -59l-99 -50c-3 -3 -4 -6 -4 -8c0 -11 15 -39 22 -52l51 -109v-3
c0 -24 -12 -36 -36 -36c-15 0 -33 1 -41 17l-67 143h-9c-51 -39 -109 -78 -169 -105c-9 -48 -11 -98 -8 -147c-11 -15 -19 -22 -38 -22c-37 0 -34 39 -34 63zM114 283v-26c40 16 78 46 113 69c4 3 11 5 16 9l10 7v8l-92 262l-4 4c-8 -16 -24 -157 -43 -333zM34 839
c0 19 16 38 35 38c23 0 35 -14 48 -29v-3c0 -23 -17 -44 -42 -44c-17 0 -41 19 -41 38zM163 839c0 19 16 38 35 38c23 0 35 -14 48 -29v-3c0 -23 -17 -44 -42 -44c-17 0 -41 19 -41 38z" />
    <glyph glyph-name="Aring" unicode="&#xc5;" horiz-adv-x="509" 
d="M126 865h1c11 0 18 4 30 4c57 0 78 -54 78 -83c0 -17 -15 -41 -38 -60c-1 -2 -3 -4 -5 -5l12 -13c15 -20 22 -46 33 -66c13 -38 38 -94 89 -254l4 -4c19 11 115 55 135 63c1 3 9 5 12 6h2c13 0 20 -13 20 -22c0 -30 -31 -39 -42 -59l-99 -50c-3 -3 -4 -6 -4 -8
c0 -5 3 -14 8 -25l14 -27l51 -109v-3c0 -24 -12 -36 -36 -36c-15 0 -33 1 -41 17l-67 143h-9c-51 -39 -109 -78 -169 -105c-9 -48 -11 -98 -8 -147c-11 -15 -19 -22 -38 -22c-27 0 -34 22 -34 43v20c0 80 14 158 22 237c0 8 8 64 8 72v4l42 312c-1 2 -1 4 -1 6
c-9 3 -17 6 -26 10c-43 22 -59 77 56 161zM114 283v-26c40 16 78 46 113 69c4 3 11 5 16 9l10 7v8l-92 262l-4 4c-8 -16 -24 -157 -43 -333zM177 788c-3 67 -78 25 -81 -20c13 -40 84 -13 81 20z" />
    <glyph glyph-name="AE" unicode="&#xc6;" horiz-adv-x="710" 
d="M360 77c-5 20 -10 40 -13 59l-64 138h-9c-51 -39 -109 -78 -169 -105c-9 -48 -11 -98 -8 -147c-11 -15 -19 -22 -38 -22c-27 0 -34 22 -34 43v20c0 80 14 158 22 237c0 8 8 64 8 72v4l42 312c-3 27 7 51 38 51c68 8 81 -58 102 -97c13 -38 38 -94 89 -254l4 -4l4 2v19
c0 26 -9 145 -12 169c-1 23 -17 37 -17 60c0 43 15 58 59 58c9 0 14 -12 22 -12h4c4 1 14 4 17 4c223 96 233 101 249 93c16 -3 21 -9 21 -24c0 -13 -2 -28 -17 -35l-131 -63l-4 -4l-110 -47c-8 -3 -8 -16 -8 -23c0 -20 11 -130 14 -130h1l1 1c29 21 146 118 148 118
c15 0 29 -18 29 -34s-6 -39 -21 -50l-88 -79c-11 -13 -25 -22 -48 -42l-20 -18v-5c0 -7 -1 -15 -1 -24v-10c0 -48 10 -95 10 -143h4c1 0 16 14 21 21s35 48 160 203c5 5 18 20 21 20c4 4 21 3 26 0c7 -3 21 -17 21 -28c0 -32 -78 -112 -102 -144
c-38 -59 -103 -183 -185 -183c-20 0 -25 6 -38 23zM114 283v-26c40 16 78 46 113 69c4 3 11 5 16 9l10 7v8l-92 262l-4 4c-8 -16 -24 -157 -43 -333z" />
    <glyph glyph-name="Ccedilla" unicode="&#xc7;" horiz-adv-x="431" 
d="M99 -270c0 7 0 12 5 17c33 41 131 12 152 67c21 48 -74 37 -92 34c-37 0 -121 8 -121 61c4 22 11 42 20 60c7 14 15 26 23 36c-23 11 -39 26 -48 45c-10 23 -15 49 -15 79v24l29 234c3 20 4 32 4 35c24 82 46 207 155 207c48 0 75 -14 112 -46c13 -12 13 -10 13 -23
c0 -17 -12 -37 -35 -37c-37 0 -43 43 -83 43c-44 0 -63 -51 -68 -89l-47 -320c0 -3 -1 -16 -1 -21v-18c0 -19 4 -46 24 -46c4 0 8 1 11 4c64 43 107 101 148 165c3 6 24 44 29 55c16 35 8 80 58 80c19 0 40 -19 40 -40v-2c-33 -96 -88 -174 -152 -254
c-20 -24 -43 -43 -69 -58l-15 -8c2 -13 0 -32 -6 -56c-8 -9 -24 -31 -24 -34v-1c70 -14 178 25 220 -73c24 -114 -59 -103 -202 -154c-3 -4 -15 -5 -22 -5c-19 0 -43 19 -43 39z" />
    <glyph glyph-name="Egrave" unicode="&#xc8;" 
d="M78 22c-13 53 -19 98 -22 151c-1 31 3 49 -4 76c-3 11 -21 7 -21 33c0 22 21 29 21 53v15c0 26 -9 145 -12 169c-1 23 -17 37 -17 60c0 43 15 58 59 58c9 0 14 -12 22 -12h4c4 1 14 4 17 4c223 96 233 101 249 93c16 -3 21 -9 21 -24c0 -13 -2 -28 -17 -35l-131 -63
l-4 -4l-110 -47c-8 -3 -8 -16 -8 -23c0 -20 11 -130 14 -130h1l1 1c29 21 146 118 148 118c15 0 29 -18 29 -34s-6 -39 -21 -50l-156 -139c1 -1 -2 -28 -1 -39c0 -48 10 -95 10 -143h4c1 0 16 14 21 21s35 48 160 203c5 5 18 20 21 20c4 4 21 3 26 0c7 -3 21 -17 21 -28
c0 -32 -78 -112 -102 -144c-38 -59 -103 -183 -185 -183c-20 0 -25 6 -38 23zM224 769c-29 -47 -101 30 -123 55c-14 14 -34 32 -19 53c15 20 34 27 55 12c39 -54 95 -57 87 -120z" />
    <glyph glyph-name="Eacute" unicode="&#xc9;" 
d="M78 22c-13 53 -19 98 -22 151c-1 31 3 49 -4 76c-3 11 -21 7 -21 33c0 22 21 29 21 53v15c0 26 -9 145 -12 169c-1 23 -17 37 -17 60c0 43 15 58 59 58c9 0 14 -12 22 -12h4c4 1 14 4 17 4c223 96 233 101 249 93c16 -3 21 -9 21 -24c0 -13 -2 -28 -17 -35l-131 -63
l-4 -4l-110 -47c-8 -3 -8 -16 -8 -23c0 -20 11 -130 14 -130h1l1 1c29 21 146 118 148 118c15 0 29 -18 29 -34s-6 -39 -21 -50l-156 -139c1 -1 -2 -28 -1 -39c0 -48 10 -95 10 -143h4c1 0 16 14 21 21s35 48 160 203c5 5 18 20 21 20c4 4 21 3 26 0c7 -3 21 -17 21 -28
c0 -32 -78 -112 -102 -144c-38 -59 -103 -183 -185 -183c-20 0 -25 6 -38 23zM114 721c-8 69 45 70 81 129c20 16 37 10 52 -13c16 -24 -7 -41 -18 -57c-21 -26 -88 -110 -115 -59z" />
    <glyph glyph-name="Ecircumflex" unicode="&#xca;" 
d="M78 22c-13 53 -19 98 -22 151c-1 31 3 49 -4 76c-3 11 -21 7 -21 33c0 22 21 29 21 53v15c0 26 -9 145 -12 169c-1 23 -17 37 -17 60c0 43 15 58 59 58c9 0 14 -12 22 -12h4c4 1 14 4 17 4c223 96 233 101 249 93c16 -3 21 -9 21 -24c0 -13 -2 -28 -17 -35l-131 -63
l-4 -4l-110 -47c-8 -3 -8 -16 -8 -23c0 -20 11 -130 14 -130h1l1 1c29 21 146 118 148 118c15 0 29 -18 29 -34s-6 -39 -21 -50l-156 -139c1 -1 -2 -28 -1 -39c0 -48 10 -95 10 -143h4c1 0 16 14 21 21s35 48 160 203c5 5 18 20 21 20c4 4 21 3 26 0c7 -3 21 -17 21 -28
c0 -32 -78 -112 -102 -144c-38 -59 -103 -183 -185 -183c-20 0 -25 6 -38 23zM63 767l83 146l19 45c5 11 22 11 35 11c11 0 18 -1 26 -9c8 -13 52 -75 60 -86c1 -1 7 -8 7 -9c8 -10 42 -64 50 -75c4 -7 4 -8 4 -15c0 -15 -13 -19 -33 -19c-17 0 -32 8 -39 19l-67 99l-4 -3
c-8 -10 -12 -32 -73 -127c-3 -3 -18 -8 -22 -8c-16 0 -56 13 -46 31z" />
    <glyph glyph-name="Edieresis" unicode="&#xcb;" 
d="M78 22c-13 53 -19 98 -22 151c-1 31 3 49 -4 76c-3 11 -21 7 -21 33c0 22 21 29 21 53v15c0 26 -9 145 -12 169c-1 23 -17 37 -17 60c0 43 15 58 59 58c9 0 14 -12 22 -12h4c4 1 14 4 17 4c223 96 233 101 249 93c16 -3 21 -9 21 -24c0 -13 -2 -28 -17 -35l-131 -63
l-4 -4l-110 -47c-8 -3 -8 -16 -8 -23c0 -20 11 -130 14 -130h1l1 1c29 21 146 118 148 118c15 0 29 -18 29 -34s-6 -39 -21 -50l-156 -139c1 -1 -2 -28 -1 -39c0 -48 10 -95 10 -143h4c1 0 16 14 21 21s35 48 160 203c5 5 18 20 21 20c4 4 21 3 26 0c7 -3 21 -17 21 -28
c0 -32 -78 -112 -102 -144c-38 -59 -103 -183 -185 -183c-20 0 -25 6 -38 23zM82 776c0 19 16 38 35 38c23 0 35 -14 48 -29v-3c0 -23 -17 -44 -42 -44c-17 0 -41 19 -41 38zM211 776c0 19 16 38 35 38c23 0 35 -14 48 -29v-3c0 -23 -17 -44 -42 -44c-17 0 -41 19 -41 38z
" />
    <glyph glyph-name="Igrave" unicode="&#xcc;" horiz-adv-x="154" 
d="M23 505v61c11 15 17 18 33 18c21 0 44 -12 47 -35c11 -75 0 -152 5 -227c5 -91 21 -191 21 -282c0 -27 -8 -40 -39 -40c-50 0 -50 81 -50 110c0 32 -17 301 -17 333v62zM154 608c-29 -47 -101 30 -123 55c-14 14 -34 32 -19 53c15 20 34 27 55 12c39 -54 95 -57 87 -120z
" />
    <glyph glyph-name="Iacute" unicode="&#xcd;" horiz-adv-x="154" 
d="M23 505v61c11 15 17 18 33 18c21 0 44 -12 47 -35c11 -75 0 -152 5 -227c5 -91 21 -191 21 -282c0 -27 -8 -40 -39 -40c-50 0 -50 81 -50 110c0 32 -17 301 -17 333v62zM8 629c-8 69 45 70 81 129c20 16 37 10 52 -13c16 -24 -7 -41 -18 -57c-21 -26 -88 -110 -115 -59z
" />
    <glyph glyph-name="Icircumflex" unicode="&#xce;" horiz-adv-x="154" 
d="M23 505v61c11 15 17 18 33 18c21 0 44 -12 47 -35c11 -75 0 -152 5 -227c5 -91 21 -191 21 -282c0 -27 -8 -40 -39 -40c-50 0 -50 81 -50 110c0 32 -17 301 -17 333v62zM-59 675l83 146l19 45c5 11 22 11 35 11c11 0 18 -1 26 -9c8 -13 52 -75 60 -86c1 -1 7 -8 7 -9
c8 -10 42 -64 50 -75c4 -7 4 -8 4 -15c0 -15 -13 -19 -33 -19c-17 0 -32 8 -39 19l-67 99l-4 -3c-8 -10 -12 -32 -73 -127c-3 -3 -18 -8 -22 -8c-16 0 -56 13 -46 31z" />
    <glyph glyph-name="Idieresis" unicode="&#xcf;" horiz-adv-x="154" 
d="M23 505v61c11 15 17 18 33 18c21 0 44 -12 47 -35c11 -75 0 -152 5 -227c5 -91 21 -191 21 -282c0 -27 -8 -40 -39 -40c-50 0 -50 81 -50 110c0 32 -17 301 -17 333v62zM-28 710c0 19 16 38 35 38c23 0 35 -14 48 -29v-3c0 -23 -17 -44 -42 -44c-17 0 -41 19 -41 38z
M101 710c0 19 16 38 35 38c23 0 35 -14 48 -29v-3c0 -23 -17 -44 -42 -44c-17 0 -41 19 -41 38z" />
    <glyph glyph-name="Eth" unicode="&#xd0;" horiz-adv-x="523" 
d="M52 259c0 25 61 24 79 29h2c1 73 2 145 2 218c-26 0 -48 -29 -83 -29h-16c-3 4 -18 7 -18 12v30c7 4 11 13 14 18l101 50l4 5c-3 37 -2 62 38 62c21 0 56 -15 51 -42c132 -5 275 -17 275 -185c0 -76 -30 -157 -85 -212l-190 -189c-19 -19 -27 -26 -51 -26
c-20 0 -34 12 -34 32c0 12 13 20 13 31c0 3 -8 8 -9 9c-13 20 -12 47 -12 70v80h-2c-17 0 -79 18 -79 37zM226 537v-235l40 6c23 0 47 -5 47 -32c0 -11 -40 -38 -51 -32l-36 -6v-114l4 3c3 3 38 33 51 46c62 65 143 144 143 243c0 93 -73 129 -160 129c-4 0 -30 -1 -38 -8z
" />
    <glyph glyph-name="Ntilde" unicode="&#xd1;" horiz-adv-x="445" 
d="M23 38v87c0 163 17 328 12 491c4 15 15 22 30 22c56 0 53 -45 56 -89c16 -29 41 -56 58 -84c0 -1 3 -8 4 -8l56 -85l4 -5l58 -84c3 -3 5 -4 7 -4h2c-17 141 -29 291 -29 435v50c5 9 14 13 27 13c51 0 41 -54 44 -89c0 -4 6 -11 22 -282v-18l34 -223c1 -11 16 -38 16 -50
c0 -28 -17 -47 -46 -47c-8 0 -29 15 -34 20l-161 229c-1 0 -3 6 -4 9c-16 24 -58 81 -58 84l-5 4c-7 -127 -12 -256 -8 -384c-3 -16 -19 -30 -34 -30c-27 0 -40 15 -51 38zM-5 781c0 7 1 10 2 17c18 55 39 118 88 134c9 0 17 0 25 -11l57 -72c11 -7 16 -19 29 -19
c9 0 18 20 22 27c16 24 23 64 49 64c15 0 18 -13 18 -32c0 -57 -41 -131 -80 -131c-47 -3 -85 55 -120 85c-27 0 -44 -88 -64 -88c-9 0 -26 10 -26 26z" />
    <glyph glyph-name="Ograve" unicode="&#xd2;" horiz-adv-x="330" 
d="M22 177c4 25 -17 311 52 440c8 36 38 47 94 50c72 0 98 -84 120 -136v-5c19 -53 17 -231 17 -287c0 -81 -41 -239 -146 -239c-88 0 -137 102 -137 177zM119 110c3 -15 17 -34 34 -34h8c56 51 68 119 68 192c0 51 -11 295 -54 330c-1 -1 -4 -7 -4 -8
c-55 -68 -97 -245 -52 -480zM223 720c-29 -47 -101 30 -123 55c-14 14 -34 32 -19 53c15 20 34 27 55 12c39 -54 95 -57 87 -120z" />
    <glyph glyph-name="Oacute" unicode="&#xd3;" horiz-adv-x="330" 
d="M22 177c4 25 -17 311 52 440c8 36 38 47 94 50c72 0 98 -84 120 -136v-5c19 -53 17 -231 17 -287c0 -81 -41 -239 -146 -239c-88 0 -137 102 -137 177zM119 110c3 -15 17 -34 34 -34h8c56 51 68 119 68 192c0 51 -11 295 -54 330c-1 -1 -4 -7 -4 -8
c-55 -68 -97 -245 -52 -480zM60 715c-8 69 45 70 81 129c20 16 37 10 52 -13c16 -24 -7 -41 -18 -57c-21 -26 -88 -110 -115 -59z" />
    <glyph glyph-name="Ocircumflex" unicode="&#xd4;" horiz-adv-x="330" 
d="M22 177c4 25 -17 311 52 440c8 36 38 47 94 50c72 0 98 -84 120 -136v-5c19 -53 17 -231 17 -287c0 -81 -41 -239 -146 -239c-88 0 -137 102 -137 177zM119 110c3 -15 17 -34 34 -34h8c56 51 68 119 68 192c0 51 -11 295 -54 330c-1 -1 -4 -7 -4 -8
c-55 -68 -97 -245 -52 -480zM8 741l83 146l19 45c5 11 22 11 35 11c11 0 18 -1 26 -9c8 -13 52 -75 60 -86c1 -1 7 -8 7 -9c8 -10 42 -64 50 -75c4 -7 4 -8 4 -15c0 -15 -13 -19 -33 -19c-17 0 -32 8 -39 19l-67 99l-4 -3c-8 -10 -12 -32 -73 -127c-3 -3 -18 -8 -22 -8
c-16 0 -56 13 -46 31z" />
    <glyph glyph-name="Otilde" unicode="&#xd5;" horiz-adv-x="330" 
d="M22 177c4 25 -17 311 52 440c8 36 38 47 94 50c72 0 98 -84 120 -136v-5c19 -53 17 -231 17 -287c0 -81 -41 -239 -146 -239c-88 0 -137 102 -137 177zM119 110c3 -15 17 -34 34 -34h8c56 51 68 119 68 192c0 51 -11 295 -54 330c-1 -1 -4 -7 -4 -8
c-55 -68 -97 -245 -52 -480zM38 712c0 7 1 10 2 17c18 55 39 118 88 134c9 0 17 0 25 -11l57 -72c11 -7 16 -19 29 -19c9 0 18 20 22 27c16 24 23 64 49 64c15 0 18 -13 18 -32c0 -57 -41 -131 -80 -131c-47 -3 -85 55 -120 85c-27 0 -44 -88 -64 -88c-9 0 -26 10 -26 26z
" />
    <glyph glyph-name="Odieresis" unicode="&#xd6;" horiz-adv-x="330" 
d="M22 177c4 25 -17 311 52 440c8 36 38 47 94 50c72 0 98 -84 120 -136v-5c19 -53 17 -231 17 -287c0 -81 -41 -239 -146 -239c-88 0 -137 102 -137 177zM119 110c3 -15 17 -34 34 -34h8c56 51 68 119 68 192c0 51 -11 295 -54 330c-1 -1 -4 -7 -4 -8
c-55 -68 -97 -245 -52 -480zM47 759c0 19 16 38 35 38c23 0 35 -14 48 -29v-3c0 -23 -17 -44 -42 -44c-17 0 -41 19 -41 38zM176 759c0 19 16 38 35 38c23 0 35 -14 48 -29v-3c0 -23 -17 -44 -42 -44c-17 0 -41 19 -41 38z" />
    <glyph glyph-name="multiply" unicode="&#xd7;" horiz-adv-x="446" 
d="M102 88c0 35 75 70 67 111c-35 22 -72 69 -101 98v3c0 15 12 22 27 22c43 8 68 -31 96 -59c8 23 57 161 88 67v-4l-35 -106l111 -107c0 -1 0 -2 1 -3c1 -3 1 -4 2 -5v-1c0 -15 -15 -22 -28 -22c-29 0 -92 56 -109 56h-3c-39 -34 -27 -58 -84 -71c-13 0 -32 8 -32 21z" />
    <glyph glyph-name="Oslash" unicode="&#xd8;" horiz-adv-x="330" 
d="M51 -61v2c3 27 7 53 12 77l6 26l-12 16c-23 36 -35 80 -35 117c4 25 -17 311 52 440c8 36 38 47 94 50c11 0 22 -2 32 -6l15 68c3 19 13 25 34 25h2c24 -11 28 -13 28 -36c0 -15 -5 -30 -8 -43c-2 -5 -14 -59 -17 -64v-5c6 -10 11 -21 16 -32l18 -43v-5
c14 -40 17 -150 17 -226v-61c0 -81 -41 -239 -146 -239c-13 0 -25 2 -36 5l-12 -70c-3 -15 -16 -20 -31 -20c-13 0 -29 9 -29 24zM153 76h8c56 51 68 119 68 192c0 26 -3 99 -11 171c0 1 0 3 -1 4l-70 -316l-9 -48c5 -2 10 -3 15 -3zM175 598c-1 -1 -4 -7 -4 -8
c-43 -53 -73 -162 -71 -316l3 -59l81 372c-3 5 -6 8 -9 11z" />
    <glyph glyph-name="Ugrave" unicode="&#xd9;" 
d="M297 141c-29 -55 -86 -152 -157 -152c-91 0 -101 122 -101 190v26c4 31 18 176 22 207c-11 27 10 59 39 59c8 0 46 -13 46 -25v-38c-37 -286 -18 -325 -5 -338c31 -13 58 4 144 155c3 4 7 18 8 22c-3 88 0 178 4 266c5 13 19 22 32 22c11 0 48 -19 48 -35v-295
c9 -60 13 -121 22 -181c0 -12 15 -96 17 -106v-12c0 -24 -13 -37 -39 -39c-70 -8 -60 229 -80 274zM286 608c-29 -47 -101 30 -123 55c-14 14 -34 32 -19 53c15 20 34 27 55 12c39 -54 95 -57 87 -120z" />
    <glyph glyph-name="Uacute" unicode="&#xda;" 
d="M297 141c-29 -55 -86 -152 -157 -152c-91 0 -101 122 -101 190v26c4 31 18 176 22 207c-11 27 10 59 39 59c8 0 46 -13 46 -25v-38c-37 -286 -18 -325 -5 -338c31 -13 58 4 144 155c3 4 7 18 8 22c-3 88 0 178 4 266c5 13 19 22 32 22c11 0 48 -19 48 -35v-295
c9 -60 13 -121 22 -181c0 -12 15 -96 17 -106v-12c0 -24 -13 -37 -39 -39c-70 -8 -60 229 -80 274zM140 629c-8 69 45 70 81 129c20 16 37 10 52 -13c16 -24 -7 -41 -18 -57c-21 -26 -88 -110 -115 -59z" />
    <glyph glyph-name="Ucircumflex" unicode="&#xdb;" 
d="M297 141c-29 -55 -86 -152 -157 -152c-91 0 -101 122 -101 190v26c4 31 18 176 22 207c-11 27 10 59 39 59c8 0 46 -13 46 -25v-38c-37 -286 -18 -325 -5 -338c31 -13 58 4 144 155c3 4 7 18 8 22c-3 88 0 178 4 266c5 13 19 22 32 22c11 0 48 -19 48 -35v-295
c9 -60 13 -121 22 -181c0 -12 15 -96 17 -106v-12c0 -24 -13 -37 -39 -39c-70 -8 -60 229 -80 274zM74 675l83 146l19 45c5 11 22 11 35 11c11 0 18 -1 26 -9c8 -13 52 -75 60 -86c1 -1 7 -8 7 -9c8 -10 42 -64 50 -75c4 -7 4 -8 4 -15c0 -15 -13 -19 -33 -19
c-17 0 -32 8 -39 19l-67 99l-4 -3c-8 -10 -12 -32 -73 -127c-3 -3 -18 -8 -22 -8c-16 0 -56 13 -46 31z" />
    <glyph glyph-name="Udieresis" unicode="&#xdc;" 
d="M297 141c-29 -55 -86 -152 -157 -152c-91 0 -101 122 -101 190v26c4 31 18 176 22 207c-11 27 10 59 39 59c8 0 46 -13 46 -25v-38c-37 -286 -18 -325 -5 -338c31 -13 58 4 144 155c3 4 7 18 8 22c-3 88 0 178 4 266c5 13 19 22 32 22c11 0 48 -19 48 -35v-295
c9 -60 13 -121 22 -181c0 -12 15 -96 17 -106v-12c0 -24 -13 -37 -39 -39c-70 -8 -60 229 -80 274zM105 710c0 19 16 38 35 38c23 0 35 -14 48 -29v-3c0 -23 -17 -44 -42 -44c-17 0 -41 19 -41 38zM234 710c0 19 16 38 35 38c23 0 35 -14 48 -29v-3c0 -23 -17 -44 -42 -44
c-17 0 -41 19 -41 38z" />
    <glyph glyph-name="Yacute" unicode="&#xdd;" horiz-adv-x="424" 
d="M226 -6c3 14 12 82 14 97c7 60 20 119 20 179v15l-16 8c-11 5 -96 66 -123 90c-16 11 -79 70 -93 84c-11 11 -22 25 -22 40c0 23 21 32 41 32c13 0 29 -2 40 -13c51 -56 116 -116 181 -156l4 13l42 270c3 15 20 17 32 17c35 0 53 -15 53 -54v-2c0 -2 -8 -26 -8 -29
c-12 -49 -49 -389 -73 -553c3 -27 4 -76 -38 -76c-25 0 -46 14 -54 38zM141 629c-8 69 45 70 81 129c20 16 37 10 52 -13c16 -24 -7 -41 -18 -57c-21 -26 -88 -110 -115 -59z" />
    <glyph glyph-name="Thorn" unicode="&#xde;" horiz-adv-x="384" 
d="M28 405l-21 26v2c0 11 9 23 17 31v113c0 28 -1 48 -4 76l-6 63c0 17 15 26 28 26c114 20 42 -144 70 -184l13 4l1 1h1c2 2 8 7 19 15c29 23 72 26 107 26c247 -36 12 -325 -159 -508c3 -34 4 -97 -6 -115c-13 -26 -43 -26 -54 11c-8 24 -9 89 -6 152v261zM112 354
c0 -8 4 -67 4 -75v-11c0 -9 1 -21 1 -32v-10c31 6 114 160 138 213c11 27 26 80 -3 98c-47 0 -117 -54 -136 -94c-3 -13 -4 -75 -4 -89z" />
    <glyph glyph-name="germandbls" unicode="&#xdf;" horiz-adv-x="515" 
d="M187 88l4 -180c-18 0 -81 7 -84 27l-19 260v8c-3 56 -5 120 -12 177c-11 0 -15 78 -15 98c0 112 226 163 217 154c19 13 80 -20 80 -51c0 -58 -37 -98 -58 -146c11 0 65 -8 76 -8c44 -8 122 -38 122 -95c0 -31 -13 -63 -29 -87c-11 -16 -47 -65 -50 -68l-183 -158l-7 89
c17 15 44 38 55 45c46 38 135 109 135 170c0 39 -62 45 -91 45c-57 0 -68 -29 -108 -63c-1 0 -8 -4 -9 -4l-22 119c17 19 32 34 48 57c8 17 20 59 -18 48c-1 0 -58 -57 -58 -60l4 -203l21 -174h1z" />
    <glyph glyph-name="agrave" unicode="&#xe0;" horiz-adv-x="399" 
d="M260 274l-4 5c-35 -63 -102 -225 -177 -237c-20 0 -61 6 -61 34c3 271 71 450 250 498c3 0 12 1 15 1c80 3 62 -147 83 -507c4 -15 4 -23 4 -38c0 -20 -13 -30 -32 -30c-39 0 -52 23 -57 59c0 4 -10 89 -13 123v4c-3 13 -2 35 -5 54zM234 477c-36 -27 -75 -77 -90 -120
c-14 -41 -32 -150 -32 -167c1 0 4 4 5 5c83 80 112 171 117 282zM275 608c-29 -47 -101 30 -123 55c-14 14 -34 32 -19 53c15 20 34 27 55 12c39 -54 95 -57 87 -120z" />
    <glyph glyph-name="aacute" unicode="&#xe1;" horiz-adv-x="399" 
d="M260 274l-4 5c-35 -63 -102 -225 -177 -237c-20 0 -61 6 -61 34c3 271 71 450 250 498c3 0 12 1 15 1c80 3 62 -147 83 -507c4 -15 4 -23 4 -38c0 -20 -13 -30 -32 -30c-39 0 -52 23 -57 59c0 4 -10 89 -13 123v4c-3 13 -2 35 -5 54zM234 477c-36 -27 -75 -77 -90 -120
c-14 -41 -32 -150 -32 -167c1 0 4 4 5 5c83 80 112 171 117 282zM129 629c-8 69 45 70 81 129c20 16 37 10 52 -13c16 -24 -7 -41 -18 -57c-21 -26 -88 -110 -115 -59z" />
    <glyph glyph-name="acircumflex" unicode="&#xe2;" horiz-adv-x="399" 
d="M260 274l-4 5c-35 -63 -102 -225 -177 -237c-20 0 -61 6 -61 34c3 271 71 450 250 498c3 0 12 1 15 1c80 3 62 -147 83 -507c4 -15 4 -23 4 -38c0 -20 -13 -30 -32 -30c-39 0 -52 23 -57 59c0 4 -10 89 -13 123v4c-3 13 -2 35 -5 54zM234 477c-36 -27 -75 -77 -90 -120
c-14 -41 -32 -150 -32 -167c1 0 4 4 5 5c83 80 112 171 117 282zM62 675l83 146l19 45c5 11 22 11 35 11c11 0 18 -1 26 -9c8 -13 52 -75 60 -86c1 -1 7 -8 7 -9c8 -10 42 -64 50 -75c4 -7 4 -8 4 -15c0 -15 -13 -19 -33 -19c-17 0 -32 8 -39 19l-67 99l-4 -3
c-8 -10 -12 -32 -73 -127c-3 -3 -18 -8 -22 -8c-16 0 -56 13 -46 31z" />
    <glyph glyph-name="atilde" unicode="&#xe3;" horiz-adv-x="399" 
d="M260 274l-4 5c-35 -63 -102 -225 -177 -237c-20 0 -61 6 -61 34c3 271 71 450 250 498c3 0 12 1 15 1c80 3 62 -147 83 -507c4 -15 4 -23 4 -38c0 -20 -13 -30 -32 -30c-39 0 -52 23 -57 59c0 4 -10 89 -13 123v4c-3 13 -2 35 -5 54zM234 477c-36 -27 -75 -77 -90 -120
c-14 -41 -32 -150 -32 -167c1 0 4 4 5 5c83 80 112 171 117 282zM94 620c0 7 1 10 2 17c18 55 39 118 88 134c9 0 17 0 25 -11l57 -72c11 -7 16 -19 29 -19c9 0 18 20 22 27c16 24 23 64 49 64c15 0 18 -13 18 -32c0 -57 -41 -131 -80 -131c-47 -3 -85 55 -120 85
c-27 0 -44 -88 -64 -88c-9 0 -26 10 -26 26z" />
    <glyph glyph-name="adieresis" unicode="&#xe4;" horiz-adv-x="399" 
d="M260 274l-4 5c-35 -63 -102 -225 -177 -237c-20 0 -61 6 -61 34c3 271 71 450 250 498c3 0 12 1 15 1c80 3 62 -147 83 -507c4 -15 4 -23 4 -38c0 -20 -13 -30 -32 -30c-39 0 -52 23 -57 59c0 4 -10 89 -13 123v4c-3 13 -2 35 -5 54zM234 477c-36 -27 -75 -77 -90 -120
c-14 -41 -32 -150 -32 -167c1 0 4 4 5 5c83 80 112 171 117 282zM93 710c0 19 16 38 35 38c23 0 35 -14 48 -29v-3c0 -23 -17 -44 -42 -44c-17 0 -41 19 -41 38zM222 710c0 19 16 38 35 38c23 0 35 -14 48 -29v-3c0 -23 -17 -44 -42 -44c-17 0 -41 19 -41 38z" />
    <glyph glyph-name="aring" unicode="&#xe5;" horiz-adv-x="399" 
d="M222 716h1c11 0 18 4 30 4c57 0 78 -54 78 -83c0 -17 -15 -41 -38 -60l-2 -3c16 -1 28 -10 35 -27c29 -59 24 -208 40 -479c4 -15 4 -23 4 -38c0 -20 -13 -30 -32 -30c-39 0 -52 23 -57 59c0 4 -10 89 -13 123v4c-3 13 -2 35 -5 54l-3 34l-4 5
c-35 -63 -102 -225 -177 -237c-20 0 -61 6 -61 34c2 204 41 353 136 438c13 11 27 21 42 30c-10 3 -20 6 -30 11c-43 22 -59 77 56 161zM234 477c-36 -27 -75 -77 -90 -120c-14 -41 -32 -150 -32 -167c1 0 4 4 5 5c83 80 112 171 117 282zM273 639c-3 67 -78 25 -81 -20
c13 -40 84 -13 81 20z" />
    <glyph glyph-name="ae" unicode="&#xe6;" horiz-adv-x="722" 
d="M708 330c-8 -72 -14 -31 -175 -192c-43 -41 -90 -88 -149 -88h-15v-1c1 -5 1 -12 1 -19c0 -20 -13 -30 -32 -30c-39 0 -52 23 -57 59c0 4 -10 89 -13 123v4c-3 13 -2 35 -5 54l-3 34l-4 5c-35 -63 -102 -225 -177 -237c-20 0 -61 6 -61 34c3 271 71 450 250 498
c3 0 12 1 15 1c40 1 55 -35 63 -118c3 -22 5 -48 6 -77l4 11l8 22c19 45 43 98 99 98c33 0 101 -67 101 -99c0 -40 -42 -66 -69 -87c-1 0 -6 -4 -9 -5l-12 -12l-12 -13c-7 -7 -52 -41 -60 -46l-4 -8c-4 -9 -12 -82 -12 -111c0 -1 0 -1 1 -2s2 -2 3 -2c11 0 19 13 30 17
l160 148l41 63c14 20 87 53 87 -24zM234 477c-36 -27 -75 -77 -90 -120c-14 -41 -32 -150 -32 -167c1 0 4 4 5 5c83 80 112 171 117 282zM422 365l66 43c14 11 -10 50 -26 26c-8 -11 -47 -74 -40 -69z" />
    <glyph glyph-name="ccedilla" unicode="&#xe7;" horiz-adv-x="354" 
d="M106 -278c0 7 0 12 5 17c33 41 131 12 152 67c21 48 -74 37 -92 34c-37 0 -121 8 -121 61c8 44 28 81 51 105l1 1c-1 0 -3 0 -4 1c-43 19 -75 60 -75 112c-28 121 126 400 228 290c0 -3 5 -15 5 -118c1 -3 4 -10 4 -13c-4 -15 -16 -30 -33 -30c-23 0 -36 4 -43 32
c5 8 -9 58 -9 77c-1 0 -2 -1 -3 -2l-2 -2c-44 -78 -87 -203 -37 -282c19 0 35 20 46 33c23 27 45 54 64 85c16 27 12 42 49 42c21 0 44 -9 44 -32c0 -47 -70 -135 -133 -179c-7 -5 -14 -9 -21 -12c1 -1 1 -1 1 -2c3 -13 1 -32 -6 -57c-8 -9 -24 -31 -24 -34v-1
c70 -14 178 25 220 -73c24 -114 -59 -103 -202 -154c-3 -4 -15 -5 -22 -5c-19 0 -43 19 -43 39z" />
    <glyph glyph-name="egrave" unicode="&#xe8;" horiz-adv-x="445" 
d="M441 284c-8 -72 -14 -31 -175 -192c-43 -41 -90 -88 -149 -88c-57 0 -83 45 -83 96c0 33 1 50 9 86c-15 13 -27 21 -27 38c0 31 35 16 43 33l38 110c19 45 43 98 99 98c33 0 101 -67 101 -99c0 -40 -42 -66 -69 -87c-1 0 -6 -4 -9 -5l-24 -25c-7 -7 -52 -41 -60 -46
l-4 -8c-4 -9 -12 -82 -12 -111c0 -1 0 -1 1 -2s2 -2 3 -2c11 0 19 13 30 17l160 148l41 63c14 20 87 53 87 -24zM155 319l66 43c14 11 -10 50 -26 26c-8 -11 -47 -74 -40 -69zM298 608c-29 -47 -101 30 -123 55c-14 14 -34 32 -19 53c15 20 34 27 55 12
c39 -54 95 -57 87 -120z" />
    <glyph glyph-name="eacute" unicode="&#xe9;" horiz-adv-x="445" 
d="M441 284c-8 -72 -14 -31 -175 -192c-43 -41 -90 -88 -149 -88c-57 0 -83 45 -83 96c0 33 1 50 9 86c-15 13 -27 21 -27 38c0 31 35 16 43 33l38 110c19 45 43 98 99 98c33 0 101 -67 101 -99c0 -40 -42 -66 -69 -87c-1 0 -6 -4 -9 -5l-24 -25c-7 -7 -52 -41 -60 -46
l-4 -8c-4 -9 -12 -82 -12 -111c0 -1 0 -1 1 -2s2 -2 3 -2c11 0 19 13 30 17l160 148l41 63c14 20 87 53 87 -24zM155 319l66 43c14 11 -10 50 -26 26c-8 -11 -47 -74 -40 -69zM115 527c-8 69 45 70 81 129c20 16 37 10 52 -13c16 -24 -7 -41 -18 -57
c-21 -26 -88 -110 -115 -59z" />
    <glyph glyph-name="ecircumflex" unicode="&#xea;" horiz-adv-x="445" 
d="M441 284c-8 -72 -14 -31 -175 -192c-43 -41 -90 -88 -149 -88c-57 0 -83 45 -83 96c0 33 1 50 9 86c-15 13 -27 21 -27 38c0 31 35 16 43 33l38 110c19 45 43 98 99 98c33 0 101 -67 101 -99c0 -40 -42 -66 -69 -87c-1 0 -6 -4 -9 -5l-24 -25c-7 -7 -52 -41 -60 -46
l-4 -8c-4 -9 -12 -82 -12 -111c0 -1 0 -1 1 -2s2 -2 3 -2c11 0 19 13 30 17l160 148l41 63c14 20 87 53 87 -24zM155 319l66 43c14 11 -10 50 -26 26c-8 -11 -47 -74 -40 -69zM42 532l83 146l19 45c5 11 22 11 35 11c11 0 18 -1 26 -9c8 -13 52 -75 60 -86c1 -1 7 -8 7 -9
c8 -10 42 -64 50 -75c4 -7 4 -8 4 -15c0 -15 -13 -19 -33 -19c-17 0 -32 8 -39 19l-67 99l-4 -3c-8 -10 -12 -32 -73 -127c-3 -3 -18 -8 -22 -8c-16 0 -56 13 -46 31z" />
    <glyph glyph-name="edieresis" unicode="&#xeb;" horiz-adv-x="445" 
d="M441 284c-8 -72 -14 -31 -175 -192c-43 -41 -90 -88 -149 -88c-57 0 -83 45 -83 96c0 33 1 50 9 86c-15 13 -27 21 -27 38c0 31 35 16 43 33l38 110c19 45 43 98 99 98c33 0 101 -67 101 -99c0 -40 -42 -66 -69 -87c-1 0 -6 -4 -9 -5l-24 -25c-7 -7 -52 -41 -60 -46
l-4 -8c-4 -9 -12 -82 -12 -111c0 -1 0 -1 1 -2s2 -2 3 -2c11 0 19 13 30 17l160 148l41 63c14 20 87 53 87 -24zM155 319l66 43c14 11 -10 50 -26 26c-8 -11 -47 -74 -40 -69zM67 564c0 19 16 38 35 38c23 0 35 -14 48 -29v-3c0 -23 -17 -44 -42 -44c-17 0 -41 19 -41 38z
M196 564c0 19 16 38 35 38c23 0 35 -14 48 -29v-3c0 -23 -17 -44 -42 -44c-17 0 -41 19 -41 38z" />
    <glyph glyph-name="igrave" unicode="&#xec;" horiz-adv-x="173" 
d="M70 38c-40 400 -47 431 -47 435v4c0 15 16 26 29 26c20 0 48 -5 56 -26c24 -131 10 -266 42 -397c0 -5 8 -37 8 -42v-2c0 -1 0 -1 1 -2c0 -16 -18 -37 -34 -34c-4 1 -25 5 -30 8c-7 2 -33 20 -25 30zM162 608c-29 -47 -101 30 -123 55c-14 14 -34 32 -19 53
c15 20 34 27 55 12c39 -54 95 -57 87 -120z" />
    <glyph glyph-name="iacute" unicode="&#xed;" horiz-adv-x="173" 
d="M70 38c-40 400 -47 431 -47 435v4c0 15 16 26 29 26c20 0 48 -5 56 -26c24 -131 10 -266 42 -397c0 -5 8 -37 8 -42v-2c0 -1 0 -1 1 -2c0 -16 -18 -37 -34 -34c-4 1 -25 5 -30 8c-7 2 -33 20 -25 30zM16 629c-8 69 45 70 81 129c20 16 37 10 52 -13
c16 -24 -7 -41 -18 -57c-21 -26 -88 -110 -115 -59z" />
    <glyph glyph-name="icircumflex" unicode="&#xee;" horiz-adv-x="173" 
d="M70 38c-40 400 -47 431 -47 435v4c0 15 16 26 29 26c20 0 48 -5 56 -26c24 -131 10 -266 42 -397c0 -5 8 -37 8 -42v-2c0 -1 0 -1 1 -2c0 -16 -18 -37 -34 -34c-4 1 -25 5 -30 8c-7 2 -33 20 -25 30zM-50 675l83 146l19 45c5 11 22 11 35 11c11 0 18 -1 26 -9
c8 -13 52 -75 60 -86c1 -1 7 -8 7 -9c8 -10 42 -64 50 -75c4 -7 4 -8 4 -15c0 -15 -13 -19 -33 -19c-17 0 -32 8 -39 19l-67 99l-4 -3c-8 -10 -12 -32 -73 -127c-3 -3 -18 -8 -22 -8c-16 0 -56 13 -46 31z" />
    <glyph glyph-name="idieresis" unicode="&#xef;" horiz-adv-x="173" 
d="M70 38c-40 400 -47 431 -47 435v4c0 15 16 26 29 26c20 0 48 -5 56 -26c24 -131 10 -266 42 -397c0 -5 8 -37 8 -42v-2c0 -1 0 -1 1 -2c0 -16 -18 -37 -34 -34c-4 1 -25 5 -30 8c-7 2 -33 20 -25 30zM-19 710c0 19 16 38 35 38c23 0 35 -14 48 -29v-3
c0 -23 -17 -44 -42 -44c-17 0 -41 19 -41 38zM110 710c0 19 16 38 35 38c23 0 35 -14 48 -29v-3c0 -23 -17 -44 -42 -44c-17 0 -41 19 -41 38z" />
    <glyph glyph-name="eth" unicode="&#xf0;" horiz-adv-x="371" 
d="M201 1c-99 19 -172 101 -172 177c0 24 9 54 46 54c85 3 140 -39 165 -99l-69 200l-56 -21c-11 16 -12 46 -19 57c-2 4 41 13 35 17c-56 86 15 143 60 21l61 33l33 -52c6 -8 -71 -19 -65 -27c96 -140 183 -352 -19 -360zM175 129c-59 84 -116 7 -48 -42
c40 -30 112 -19 48 42z" />
    <glyph glyph-name="ntilde" unicode="&#xf1;" horiz-adv-x="414" 
d="M308 34c-55 78 -61 386 -109 266l-87 -268c-7 -19 -14 -25 -35 -25s-51 14 -54 38c12 50 11 367 7 402c0 27 -2 60 33 60c25 0 52 -26 52 -50c0 -35 -5 -68 -5 -103c0 -21 -1 -33 4 -54l51 139c9 27 27 56 58 59c41 3 65 -58 73 -88l54 -249l42 -114c1 -1 1 -9 1 -12
c0 -16 -6 -35 -25 -35c-23 0 -51 14 -60 34zM48 591c0 7 1 10 2 17c18 55 39 118 88 134c9 0 17 0 25 -11l57 -72c11 -7 16 -19 29 -19c9 0 18 20 22 27c16 24 23 64 49 64c15 0 18 -13 18 -32c0 -57 -41 -131 -80 -131c-47 -3 -85 55 -120 85c-27 0 -44 -88 -64 -88
c-9 0 -26 10 -26 26z" />
    <glyph glyph-name="ograve" unicode="&#xf2;" horiz-adv-x="338" 
d="M26 150v3l37 257c3 17 17 25 33 25c29 0 45 -19 57 -43h1c16 0 26 9 45 9c85 0 118 -120 118 -188c0 -80 -91 -214 -179 -214c-81 0 -112 82 -112 151zM110 150v-3c5 -27 7 -76 43 -63c34 31 88 80 88 135c11 91 -54 167 -110 55c-16 -35 -21 -85 -21 -124zM228 511
c-29 -47 -101 30 -123 55c-14 14 -34 32 -19 53c15 20 34 27 55 12c39 -54 95 -57 87 -120z" />
    <glyph glyph-name="oacute" unicode="&#xf3;" horiz-adv-x="338" 
d="M26 150v3l37 257c3 17 17 25 33 25c29 0 45 -19 57 -43h1c16 0 26 9 45 9c85 0 118 -120 118 -188c0 -80 -91 -214 -179 -214c-81 0 -112 82 -112 151zM110 150v-3c5 -27 7 -76 43 -63c34 31 88 80 88 135c11 91 -54 167 -110 55c-16 -35 -21 -85 -21 -124zM98 535
c-8 69 45 70 81 129c20 16 37 10 52 -13c16 -24 -7 -41 -18 -57c-21 -26 -88 -110 -115 -59z" />
    <glyph glyph-name="ocircumflex" unicode="&#xf4;" horiz-adv-x="338" 
d="M26 150v3l37 257c3 17 17 25 33 25c29 0 45 -19 57 -43h1c16 0 26 9 45 9c85 0 118 -120 118 -188c0 -80 -91 -214 -179 -214c-81 0 -112 82 -112 151zM110 150v-3c5 -27 7 -76 43 -63c34 31 88 80 88 135c11 91 -54 167 -110 55c-16 -35 -21 -85 -21 -124zM38 546
l83 146l19 45c5 11 22 11 35 11c11 0 18 -1 26 -9c8 -13 52 -75 60 -86c1 -1 7 -8 7 -9c8 -10 42 -64 50 -75c4 -7 4 -8 4 -15c0 -15 -13 -19 -33 -19c-17 0 -32 8 -39 19l-67 99l-4 -3c-8 -10 -12 -32 -73 -127c-3 -3 -18 -8 -22 -8c-16 0 -56 13 -46 31z" />
    <glyph glyph-name="otilde" unicode="&#xf5;" horiz-adv-x="338" 
d="M26 150v3l37 257c3 17 17 25 33 25c29 0 45 -19 57 -43h1c16 0 26 9 45 9c85 0 118 -120 118 -188c0 -80 -91 -214 -179 -214c-81 0 -112 82 -112 151zM110 150v-3c5 -27 7 -76 43 -63c34 31 88 80 88 135c11 91 -54 167 -110 55c-16 -35 -21 -85 -21 -124zM25 502
c0 7 1 10 2 17c18 55 39 118 88 134c9 0 17 0 25 -11l57 -72c11 -7 16 -19 29 -19c9 0 18 20 22 27c16 24 23 64 49 64c15 0 18 -13 18 -32c0 -57 -41 -131 -80 -131c-47 -3 -85 55 -120 85c-27 0 -44 -88 -64 -88c-9 0 -26 10 -26 26z" />
    <glyph glyph-name="odieresis" unicode="&#xf6;" horiz-adv-x="338" 
d="M26 150v3l37 257c3 17 17 25 33 25c29 0 45 -19 57 -43h1c16 0 26 9 45 9c85 0 118 -120 118 -188c0 -80 -91 -214 -179 -214c-81 0 -112 82 -112 151zM110 150v-3c5 -27 7 -76 43 -63c34 31 88 80 88 135c11 91 -54 167 -110 55c-16 -35 -21 -85 -21 -124zM66 527
c0 19 16 38 35 38c23 0 35 -14 48 -29v-3c0 -23 -17 -44 -42 -44c-17 0 -41 19 -41 38zM195 527c0 19 16 38 35 38c23 0 35 -14 48 -29v-3c0 -23 -17 -44 -42 -44c-17 0 -41 19 -41 38z" />
    <glyph glyph-name="divide" unicode="&#xf7;" horiz-adv-x="376" 
d="M113 154c0 19 12 41 31 41c25 0 60 -23 57 -52c-3 -19 -24 -30 -39 -30c-24 0 -49 14 -49 41zM117 358c-3 27 29 38 50 38c10 0 34 -29 34 -38c5 -19 -18 -33 -34 -33c-19 0 -47 10 -50 33zM14 252c0 23 19 31 38 35l251 25c23 0 47 -5 47 -32c0 -11 -40 -38 -51 -32
l-247 -27c-17 0 -38 12 -38 31z" />
    <glyph glyph-name="oslash" unicode="&#xf8;" horiz-adv-x="338" 
d="M92 -42v1c2 17 5 32 9 46c-5 2 -10 5 -15 8c-42 28 -60 83 -60 137v3l37 257c3 17 17 25 33 25c29 0 45 -19 57 -43h1c16 0 26 9 45 9c3 0 6 0 9 -1l26 93c3 13 10 17 29 17h2c20 -7 24 -9 24 -24c0 -9 -5 -20 -6 -29c-1 -1 -2 -4 -3 -8l-5 -14l-7 -22v-2l-10 -35
c13 -12 23 -27 32 -44c19 -37 27 -86 27 -119c0 -61 -51 -149 -114 -192c-17 -11 -33 -18 -49 -21l-9 -45c-4 -9 -15 -14 -27 -14s-26 6 -26 17zM110 150v-3c3 -13 5 -32 10 -47l3 -8l66 237c-5 0 -11 -1 -16 -4c-14 -6 -28 -23 -42 -51c-16 -35 -21 -85 -21 -124zM209 143
c19 23 32 48 32 76c3 23 1 43 -5 62l-3 7l-49 -174c9 9 17 19 25 29z" />
    <glyph glyph-name="ugrave" unicode="&#xf9;" horiz-adv-x="350" 
d="M225 83l-4 12c-19 -41 -32 -97 -85 -97c-92 0 -122 105 -122 177l8 242c-3 19 28 43 50 43c31 0 55 -21 55 -52v-10c-43 -70 -55 -300 -2 -316c21 0 112 44 104 377c5 15 16 13 27 13c12 0 19 1 28 -8c7 -7 17 -25 17 -26l17 -443c0 -20 -11 -35 -31 -35
c-12 0 -42 6 -45 23zM250 608c-29 -47 -101 30 -123 55c-14 14 -34 32 -19 53c15 20 34 27 55 12c39 -54 95 -57 87 -120z" />
    <glyph glyph-name="uacute" unicode="&#xfa;" horiz-adv-x="350" 
d="M225 83l-4 12c-19 -41 -32 -97 -85 -97c-92 0 -122 105 -122 177l8 242c-3 19 28 43 50 43c31 0 55 -21 55 -52v-10c-43 -70 -55 -300 -2 -316c21 0 112 44 104 377c5 15 16 13 27 13c12 0 19 1 28 -8c7 -7 17 -25 17 -26l17 -443c0 -20 -11 -35 -31 -35
c-12 0 -42 6 -45 23zM104 629c-8 69 45 70 81 129c20 16 37 10 52 -13c16 -24 -7 -41 -18 -57c-21 -26 -88 -110 -115 -59z" />
    <glyph glyph-name="ucircumflex" unicode="&#xfb;" horiz-adv-x="350" 
d="M225 83l-4 12c-19 -41 -32 -97 -85 -97c-92 0 -122 105 -122 177l8 242c-3 19 28 43 50 43c31 0 55 -21 55 -52v-10c-43 -70 -55 -300 -2 -316c21 0 112 44 104 377c5 15 16 13 27 13c12 0 19 1 28 -8c7 -7 17 -25 17 -26l17 -443c0 -20 -11 -35 -31 -35
c-12 0 -42 6 -45 23zM38 675l83 146l19 45c5 11 22 11 35 11c11 0 18 -1 26 -9c8 -13 52 -75 60 -86c1 -1 7 -8 7 -9c8 -10 42 -64 50 -75c4 -7 4 -8 4 -15c0 -15 -13 -19 -33 -19c-17 0 -32 8 -39 19l-67 99l-4 -3c-8 -10 -12 -32 -73 -127c-3 -3 -18 -8 -22 -8
c-16 0 -56 13 -46 31z" />
    <glyph glyph-name="udieresis" unicode="&#xfc;" horiz-adv-x="350" 
d="M225 83l-4 12c-19 -41 -32 -97 -85 -97c-92 0 -122 105 -122 177l8 242c-3 19 28 43 50 43c31 0 55 -21 55 -52v-10c-43 -70 -55 -300 -2 -316c21 0 112 44 104 377c5 15 16 13 27 13c12 0 19 1 28 -8c7 -7 17 -25 17 -26l17 -443c0 -20 -11 -35 -31 -35
c-12 0 -42 6 -45 23zM69 710c0 19 16 38 35 38c23 0 35 -14 48 -29v-3c0 -23 -17 -44 -42 -44c-17 0 -41 19 -41 38zM198 710c0 19 16 38 35 38c23 0 35 -14 48 -29v-3c0 -23 -17 -44 -42 -44c-17 0 -41 19 -41 38z" />
    <glyph glyph-name="yacute" unicode="&#xfd;" horiz-adv-x="342" 
d="M223 -275c-5 55 -5 168 0 243v36c-13 18 -28 22 -172 236c-55 58 -26 77 -4 77c54 0 82 -54 109 -94c15 -23 55 -83 55 -84l12 -13v105c0 67 -4 129 -4 194c0 19 15 32 34 31c23 -3 31 -6 43 -22c11 -15 7 -36 8 -55c5 -127 9 -252 9 -379c-4 -39 3 -314 4 -313
c0 -20 -16 -29 -36 -29c-53 0 -45 33 -58 67zM100 629c-8 69 45 70 81 129c20 16 37 10 52 -13c16 -24 -7 -41 -18 -57c-21 -26 -88 -110 -115 -59z" />
    <glyph glyph-name="thorn" unicode="&#xfe;" horiz-adv-x="394" 
d="M47 33l-16 303c-25 9 -50 19 -50 50c0 8 5 9 8 14c5 7 37 50 42 58c-13 46 -47 254 46 223c16 0 19 -134 35 -134h4c55 43 110 81 182 81c47 0 80 -29 80 -78c0 -123 -127 -268 -208 -349c-4 -5 -13 -11 -20 -18c-4 -3 -8 -7 -13 -12v-119c0 -24 -1 -57 -33 -57
c-17 0 -57 14 -57 38zM120 428l4 -155h4c2 0 35 37 46 50c121 89 189 346 -20 157c-16 -13 -31 -31 -34 -52z" />
    <glyph glyph-name="ydieresis" unicode="&#xff;" horiz-adv-x="342" 
d="M223 -275c-5 55 -5 168 0 243v36c-13 18 -28 22 -172 236c-55 58 -26 77 -4 77c54 0 82 -54 109 -94c15 -23 55 -83 55 -84l12 -13v105c0 67 -4 129 -4 194c0 19 15 32 34 31c23 -3 31 -6 43 -22c11 -15 7 -36 8 -55c5 -127 9 -252 9 -379c-4 -39 3 -314 4 -313
c0 -20 -16 -29 -36 -29c-53 0 -45 33 -58 67zM65 710c0 19 16 38 35 38c23 0 35 -14 48 -29v-3c0 -23 -17 -44 -42 -44c-17 0 -41 19 -41 38zM194 710c0 19 16 38 35 38c23 0 35 -14 48 -29v-3c0 -23 -17 -44 -42 -44c-17 0 -41 19 -41 38z" />
    <glyph glyph-name="Amacron" unicode="&#x100;" horiz-adv-x="509" 
d="M25 63c0 80 14 158 22 237c0 8 8 64 8 72v4l42 312c-3 27 7 51 38 51c68 8 81 -58 102 -97c13 -38 38 -94 89 -254l4 -4c19 11 115 55 135 63c1 3 9 5 12 6h2c13 0 20 -13 20 -22c0 -30 -31 -39 -42 -59l-99 -50c-3 -3 -4 -6 -4 -8c0 -11 15 -39 22 -52l51 -109v-3
c0 -24 -12 -36 -36 -36c-15 0 -33 1 -41 17l-67 143h-9c-51 -39 -109 -78 -169 -105c-9 -48 -11 -98 -8 -147c-11 -15 -19 -22 -38 -22c-37 0 -34 39 -34 63zM114 283v-26c40 16 78 46 113 69c4 3 11 5 16 9l10 7v8l-92 262l-4 4c-8 -16 -24 -157 -43 -333zM60 780
c0 23 19 31 38 35l251 25c23 0 47 -5 47 -32c0 -11 -40 -38 -51 -32l-247 -27c-17 0 -38 12 -38 31z" />
    <glyph glyph-name="amacron" unicode="&#x101;" horiz-adv-x="399" 
d="M260 274l-4 5c-35 -63 -102 -225 -177 -237c-20 0 -61 6 -61 34c3 271 71 450 250 498c3 0 12 1 15 1c80 3 62 -147 83 -507c4 -15 4 -23 4 -38c0 -20 -13 -30 -32 -30c-39 0 -52 23 -57 59c0 4 -10 89 -13 123v4c-3 13 -2 35 -5 54zM234 477c-36 -27 -75 -77 -90 -120
c-14 -41 -32 -150 -32 -167c1 0 4 4 5 5c83 80 112 171 117 282zM31 714c0 23 19 31 38 35l251 25c23 0 47 -5 47 -32c0 -11 -40 -38 -51 -32l-247 -27c-17 0 -38 12 -38 31z" />
    <glyph glyph-name="Abreve" unicode="&#x102;" horiz-adv-x="509" 
d="M25 63c0 80 14 158 22 237c0 8 8 64 8 72v4l42 312c-3 27 7 51 38 51c68 8 81 -58 102 -97c13 -38 38 -94 89 -254l4 -4c19 11 115 55 135 63c1 3 9 5 12 6h2c13 0 20 -13 20 -22c0 -30 -31 -39 -42 -59l-99 -50c-3 -3 -4 -6 -4 -8c0 -11 15 -39 22 -52l51 -109v-3
c0 -24 -12 -36 -36 -36c-15 0 -33 1 -41 17l-67 143h-9c-51 -39 -109 -78 -169 -105c-9 -48 -11 -98 -8 -147c-11 -15 -19 -22 -38 -22c-37 0 -34 39 -34 63zM114 283v-26c40 16 78 46 113 69c4 3 11 5 16 9l10 7v8l-92 262l-4 4c-8 -16 -24 -157 -43 -333zM136 800
c-131 11 -92 108 -77 123c27 -105 165 -76 181 9c11 -60 -7 -140 -104 -132z" />
    <glyph glyph-name="abreve" unicode="&#x103;" horiz-adv-x="399" 
d="M260 274l-4 5c-35 -63 -102 -225 -177 -237c-20 0 -61 6 -61 34c3 271 71 450 250 498c3 0 12 1 15 1c80 3 62 -147 83 -507c4 -15 4 -23 4 -38c0 -20 -13 -30 -32 -30c-39 0 -52 23 -57 59c0 4 -10 89 -13 123v4c-3 13 -2 35 -5 54zM234 477c-36 -27 -75 -77 -90 -120
c-14 -41 -32 -150 -32 -167c1 0 4 4 5 5c83 80 112 171 117 282zM207 610c-131 11 -92 108 -77 123c27 -105 165 -76 181 9c11 -60 -7 -140 -104 -132z" />
    <glyph glyph-name="Aogonek" unicode="&#x104;" horiz-adv-x="509" 
d="M303 -16c0 93 16 139 40 158l1 1l-61 131h-9c-51 -39 -109 -78 -169 -105c-9 -48 -11 -98 -8 -147c-11 -15 -19 -22 -38 -22c-27 0 -34 22 -34 43v20c0 80 14 158 22 237c0 8 8 64 8 72v4l42 312c-3 27 7 51 38 51c68 8 81 -58 102 -97c13 -38 38 -94 89 -254l4 -4
c19 11 115 55 135 63c1 3 9 5 12 6h2c13 0 20 -13 20 -22c0 -30 -31 -39 -42 -59l-99 -50c-3 -3 -4 -6 -4 -8c0 -5 3 -14 8 -25l14 -27l51 -109v-9l2 -1c-1 0 -2 -1 -3 -2c-1 -10 -6 -17 -13 -22c-16 -32 -27 -60 -33 -85c-7 -30 -7 -57 0 -82c19 -19 48 -4 59 25
c64 89 85 -94 -34 -106c-65 0 -102 45 -102 113zM114 283v-26c40 16 78 46 113 69c4 3 11 5 16 9l10 7v8l-92 262l-4 4c-8 -16 -24 -157 -43 -333z" />
    <glyph glyph-name="aogonek" unicode="&#x105;" horiz-adv-x="399" 
d="M229 -123c0 93 16 139 40 158c5 3 10 6 15 8l-3 16c0 4 -10 89 -13 123v4c-3 13 -2 35 -5 54l-3 34l-4 5c-35 -63 -102 -225 -177 -237c-20 0 -61 6 -61 34c3 271 71 450 250 498c3 0 12 1 15 1c80 3 62 -147 83 -507c4 -15 4 -23 4 -38c0 -20 -13 -30 -32 -30h-5
c-13 -27 -22 -51 -27 -73c-7 -30 -7 -57 0 -82c19 -19 48 -4 59 25c64 89 85 -94 -34 -106c-65 0 -102 45 -102 113zM234 477c-36 -27 -75 -77 -90 -120c-14 -41 -32 -150 -32 -167c1 0 4 4 5 5c83 80 112 171 117 282z" />
    <glyph glyph-name="Cacute" unicode="&#x106;" horiz-adv-x="431" 
d="M23 129v24l29 234c3 20 4 32 4 35c24 82 46 207 155 207c48 0 75 -14 112 -46c13 -12 13 -10 13 -23c0 -17 -12 -37 -35 -37c-37 0 -43 43 -83 43c-44 0 -63 -51 -68 -89l-47 -320c0 -3 -1 -16 -1 -21c0 -18 -3 -64 24 -64c4 0 8 1 11 4c64 43 107 101 148 165
c3 6 24 44 29 55c16 35 8 80 58 80c19 0 40 -19 40 -40v-2c-33 -96 -88 -174 -152 -254c-40 -48 -92 -80 -156 -80h-5c-60 23 -76 69 -76 129zM133 730c-8 69 45 70 81 129c20 16 37 10 52 -13c16 -24 -7 -41 -18 -57c-21 -26 -88 -110 -115 -59z" />
    <glyph glyph-name="cacute" unicode="&#x107;" horiz-adv-x="354" 
d="M23 120c-28 121 126 400 228 290c0 -3 5 -15 5 -118c1 -3 4 -10 4 -13c-4 -15 -16 -30 -33 -30c-23 0 -36 4 -43 32c5 8 -9 58 -9 77c-1 0 -4 -3 -5 -4c-44 -78 -87 -203 -37 -282c19 0 35 20 46 33c23 27 45 54 64 85c16 27 12 42 49 42c21 0 44 -9 44 -32
c0 -62 -124 -201 -191 -201c-65 0 -122 53 -122 121zM106 629c-8 69 45 70 81 129c20 16 37 10 52 -13c16 -24 -7 -41 -18 -57c-21 -26 -88 -110 -115 -59z" />
    <glyph glyph-name="Ccircumflex" unicode="&#x108;" horiz-adv-x="431" 
d="M23 129v24l29 234c3 20 4 32 4 35c24 82 46 207 155 207c48 0 75 -14 112 -46c13 -12 13 -10 13 -23c0 -17 -12 -37 -35 -37c-37 0 -43 43 -83 43c-44 0 -63 -51 -68 -89l-47 -320c0 -3 -1 -16 -1 -21c0 -18 -3 -64 24 -64c4 0 8 1 11 4c64 43 107 101 148 165
c3 6 24 44 29 55c16 35 8 80 58 80c19 0 40 -19 40 -40v-2c-33 -96 -88 -174 -152 -254c-40 -48 -92 -80 -156 -80h-5c-60 23 -76 69 -76 129zM78 675l83 146l19 45c5 11 22 11 35 11c11 0 18 -1 26 -9c8 -13 52 -75 60 -86c1 -1 7 -8 7 -9c8 -10 42 -64 50 -75
c4 -7 4 -8 4 -15c0 -15 -13 -19 -33 -19c-17 0 -32 8 -39 19l-67 99l-4 -3c-8 -10 -12 -32 -73 -127c-3 -3 -18 -8 -22 -8c-16 0 -56 13 -46 31z" />
    <glyph glyph-name="ccircumflex" unicode="&#x109;" horiz-adv-x="354" 
d="M23 120c-28 121 126 400 228 290c0 -3 5 -15 5 -118c1 -3 4 -10 4 -13c-4 -15 -16 -30 -33 -30c-23 0 -36 4 -43 32c5 8 -9 58 -9 77c-1 0 -4 -3 -5 -4c-44 -78 -87 -203 -37 -282c19 0 35 20 46 33c23 27 45 54 64 85c16 27 12 42 49 42c21 0 44 -9 44 -32
c0 -62 -124 -201 -191 -201c-65 0 -122 53 -122 121zM40 538l83 146l19 45c5 11 22 11 35 11c11 0 18 -1 26 -9c8 -13 52 -75 60 -86c1 -1 7 -8 7 -9c8 -10 42 -64 50 -75c4 -7 4 -8 4 -15c0 -15 -13 -19 -33 -19c-17 0 -32 8 -39 19l-67 99l-4 -3c-8 -10 -12 -32 -73 -127
c-3 -3 -18 -8 -22 -8c-16 0 -56 13 -46 31z" />
    <glyph glyph-name="Cdotaccent" unicode="&#x10a;" horiz-adv-x="431" 
d="M23 129v24l29 234c3 20 4 32 4 35c24 82 46 207 155 207c48 0 75 -14 112 -46c13 -12 13 -10 13 -23c0 -17 -12 -37 -35 -37c-37 0 -43 43 -83 43c-44 0 -63 -51 -68 -89l-47 -320c0 -3 -1 -16 -1 -21c0 -18 -3 -64 24 -64c4 0 8 1 11 4c64 43 107 101 148 165
c3 6 24 44 29 55c16 35 8 80 58 80c19 0 40 -19 40 -40v-2c-33 -96 -88 -174 -152 -254c-40 -48 -92 -80 -156 -80h-5c-60 23 -76 69 -76 129zM136 738c0 29 26 64 53 64c33 0 53 -24 72 -49v-5c0 -37 -24 -74 -63 -74c-27 0 -62 35 -62 64z" />
    <glyph glyph-name="cdotaccent" unicode="&#x10b;" horiz-adv-x="354" 
d="M23 120c-28 121 126 400 228 290c0 -3 5 -15 5 -118c1 -3 4 -10 4 -13c-4 -15 -16 -30 -33 -30c-23 0 -36 4 -43 32c5 8 -9 58 -9 77c-1 0 -4 -3 -5 -4c-44 -78 -87 -203 -37 -282c19 0 35 20 46 33c23 27 45 54 64 85c16 27 12 42 49 42c21 0 44 -9 44 -32
c0 -62 -124 -201 -191 -201c-65 0 -122 53 -122 121zM114 577c0 29 26 64 53 64c33 0 53 -24 72 -49v-5c0 -37 -24 -74 -63 -74c-27 0 -62 35 -62 64z" />
    <glyph glyph-name="Ccaron" unicode="&#x10c;" horiz-adv-x="431" 
d="M23 129v24l29 234c3 20 4 32 4 35c24 82 46 207 155 207c48 0 75 -14 112 -46c13 -12 13 -10 13 -23c0 -17 -12 -37 -35 -37c-37 0 -43 43 -83 43c-44 0 -63 -51 -68 -89l-47 -320c0 -3 -1 -16 -1 -21c0 -18 -3 -64 24 -64c4 0 8 1 11 4c64 43 107 101 148 165
c3 6 24 44 29 55c16 35 8 80 58 80c19 0 40 -19 40 -40v-2c-33 -96 -88 -174 -152 -254c-40 -48 -92 -80 -156 -80h-5c-60 23 -76 69 -76 129zM143 739l-77 93c-9 12 28 20 43 20c3 0 17 -2 20 -5c56 -61 60 -74 67 -81l4 -2l62 63c7 8 19 12 36 12c19 0 30 -1 30 -12
c0 -4 0 -5 -4 -10c-4 -6 -39 -42 -46 -47c0 -1 -5 -6 -6 -6l-56 -55c-7 -5 -12 -6 -23 -6c-12 0 -28 0 -33 7c-3 5 -14 25 -17 29z" />
    <glyph glyph-name="ccaron" unicode="&#x10d;" horiz-adv-x="354" 
d="M23 120c-28 121 126 400 228 290c0 -3 5 -15 5 -118c1 -3 4 -10 4 -13c-4 -15 -16 -30 -33 -30c-23 0 -36 4 -43 32c5 8 -9 58 -9 77c-1 0 -4 -3 -5 -4c-44 -78 -87 -203 -37 -282c19 0 35 20 46 33c23 27 45 54 64 85c16 27 12 42 49 42c21 0 44 -9 44 -32
c0 -62 -124 -201 -191 -201c-65 0 -122 53 -122 121zM129 570l-77 93c-9 12 28 20 43 20c3 0 17 -2 20 -5c56 -61 60 -74 67 -81l4 -2l62 63c7 8 19 12 36 12c19 0 30 -1 30 -12c0 -4 0 -5 -4 -10c-4 -6 -39 -42 -46 -47c0 -1 -5 -6 -6 -6l-56 -55c-7 -5 -12 -6 -23 -6
c-12 0 -28 0 -33 7c-3 5 -14 25 -17 29z" />
    <glyph glyph-name="Dcaron" unicode="&#x10e;" horiz-adv-x="523" 
d="M141 32c0 12 13 20 13 31c0 3 -8 8 -9 9c-13 20 -12 47 -12 70c0 123 2 241 2 364c-26 0 -48 -29 -83 -29h-16c-3 4 -18 7 -18 12v30c7 4 11 13 14 18l101 50l4 5c-3 37 -2 62 38 62c21 0 56 -15 51 -42c132 -5 275 -17 275 -185c0 -76 -30 -157 -85 -212l-190 -189
c-19 -19 -27 -26 -51 -26c-20 0 -34 12 -34 32zM226 537v-415h1l3 5c3 3 38 33 51 46c62 65 143 144 143 243c0 93 -73 129 -160 129c-4 0 -30 -1 -38 -8zM244 753l-77 93c-9 12 28 20 43 20c3 0 17 -2 20 -5c56 -61 60 -74 67 -81l4 -2l62 63c7 8 19 12 36 12
c19 0 30 -1 30 -12c0 -4 0 -5 -4 -10c-4 -6 -39 -42 -46 -47c0 -1 -5 -6 -6 -6l-56 -55c-7 -5 -12 -6 -23 -6c-12 0 -28 0 -33 7c-3 5 -14 25 -17 29z" />
    <glyph glyph-name="Emacron" unicode="&#x112;" 
d="M78 22c-13 53 -19 98 -22 151c-1 31 3 49 -4 76c-3 11 -21 7 -21 33c0 22 21 29 21 53v15c0 26 -9 145 -12 169c-1 23 -17 37 -17 60c0 43 15 58 59 58c9 0 14 -12 22 -12h4c4 1 14 4 17 4c223 96 233 101 249 93c16 -3 21 -9 21 -24c0 -13 -2 -28 -17 -35l-131 -63
l-4 -4l-110 -47c-8 -3 -8 -16 -8 -23c0 -20 11 -130 14 -130h1l1 1c29 21 146 118 148 118c15 0 29 -18 29 -34s-6 -39 -21 -50l-156 -139c1 -1 -2 -28 -1 -39c0 -48 10 -95 10 -143h4c1 0 16 14 21 21s35 48 160 203c5 5 18 20 21 20c4 4 21 3 26 0c7 -3 21 -17 21 -28
c0 -32 -78 -112 -102 -144c-38 -59 -103 -183 -185 -183c-20 0 -25 6 -38 23zM40 774c0 23 19 31 38 35l251 25c23 0 47 -5 47 -32c0 -11 -40 -38 -51 -32l-247 -27c-17 0 -38 12 -38 31z" />
    <glyph glyph-name="emacron" unicode="&#x113;" horiz-adv-x="445" 
d="M441 284c-8 -72 -14 -31 -175 -192c-43 -41 -90 -88 -149 -88c-57 0 -83 45 -83 96c0 33 1 50 9 86c-15 13 -27 21 -27 38c0 31 35 16 43 33l38 110c19 45 43 98 99 98c33 0 101 -67 101 -99c0 -40 -42 -66 -69 -87c-1 0 -6 -4 -9 -5l-24 -25c-7 -7 -52 -41 -60 -46
l-4 -8c-4 -9 -12 -82 -12 -111c0 -1 0 -1 1 -2s2 -2 3 -2c11 0 19 13 30 17l160 148l41 63c14 20 87 53 87 -24zM155 319l66 43c14 11 -10 50 -26 26c-8 -11 -47 -74 -40 -69zM37 543c0 23 19 31 38 35l251 25c23 0 47 -5 47 -32c0 -11 -40 -38 -51 -32l-247 -27
c-17 0 -38 12 -38 31z" />
    <glyph glyph-name="Ebreve" unicode="&#x114;" 
d="M78 22c-13 53 -19 98 -22 151c-1 31 3 49 -4 76c-3 11 -21 7 -21 33c0 22 21 29 21 53v15c0 26 -9 145 -12 169c-1 23 -17 37 -17 60c0 43 15 58 59 58c9 0 14 -12 22 -12h4c4 1 14 4 17 4c223 96 233 101 249 93c16 -3 21 -9 21 -24c0 -13 -2 -28 -17 -35l-131 -63
l-4 -4l-110 -47c-8 -3 -8 -16 -8 -23c0 -20 11 -130 14 -130h1l1 1c29 21 146 118 148 118c15 0 29 -18 29 -34s-6 -39 -21 -50l-156 -139c1 -1 -2 -28 -1 -39c0 -48 10 -95 10 -143h4c1 0 16 14 21 21s35 48 160 203c5 5 18 20 21 20c4 4 21 3 26 0c7 -3 21 -17 21 -28
c0 -32 -78 -112 -102 -144c-38 -59 -103 -183 -185 -183c-20 0 -25 6 -38 23zM207 740c-131 11 -92 108 -77 123c27 -105 165 -76 181 9c11 -60 -7 -140 -104 -132z" />
    <glyph glyph-name="ebreve" unicode="&#x115;" horiz-adv-x="445" 
d="M441 284c-8 -72 -14 -31 -175 -192c-43 -41 -90 -88 -149 -88c-57 0 -83 45 -83 96c0 33 1 50 9 86c-15 13 -27 21 -27 38c0 31 35 16 43 33l38 110c19 45 43 98 99 98c33 0 101 -67 101 -99c0 -40 -42 -66 -69 -87c-1 0 -6 -4 -9 -5l-24 -25c-7 -7 -52 -41 -60 -46
l-4 -8c-4 -9 -12 -82 -12 -111c0 -1 0 -1 1 -2s2 -2 3 -2c11 0 19 13 30 17l160 148l41 63c14 20 87 53 87 -24zM155 319l66 43c14 11 -10 50 -26 26c-8 -11 -47 -74 -40 -69zM230 610c-131 11 -92 108 -77 123c27 -105 165 -76 181 9c11 -60 -7 -140 -104 -132z" />
    <glyph glyph-name="Edotaccent" unicode="&#x116;" 
d="M78 22c-13 53 -19 98 -22 151c-1 31 3 49 -4 76c-3 11 -21 7 -21 33c0 22 21 29 21 53v15c0 26 -9 145 -12 169c-1 23 -17 37 -17 60c0 43 15 58 59 58c9 0 14 -12 22 -12h4c4 1 14 4 17 4c223 96 233 101 249 93c16 -3 21 -9 21 -24c0 -13 -2 -28 -17 -35l-131 -63
l-4 -4l-110 -47c-8 -3 -8 -16 -8 -23c0 -20 11 -130 14 -130h1l1 1c29 21 146 118 148 118c15 0 29 -18 29 -34s-6 -39 -21 -50l-156 -139c1 -1 -2 -28 -1 -39c0 -48 10 -95 10 -143h4c1 0 16 14 21 21s35 48 160 203c5 5 18 20 21 20c4 4 21 3 26 0c7 -3 21 -17 21 -28
c0 -32 -78 -112 -102 -144c-38 -59 -103 -183 -185 -183c-20 0 -25 6 -38 23zM122 784c0 29 26 64 53 64c33 0 53 -24 72 -49v-5c0 -37 -24 -74 -63 -74c-27 0 -62 35 -62 64z" />
    <glyph glyph-name="edotaccent" unicode="&#x117;" horiz-adv-x="445" 
d="M441 284c-8 -72 -14 -31 -175 -192c-43 -41 -90 -88 -149 -88c-57 0 -83 45 -83 96c0 33 1 50 9 86c-15 13 -27 21 -27 38c0 31 35 16 43 33l38 110c19 45 43 98 99 98c33 0 101 -67 101 -99c0 -40 -42 -66 -69 -87c-1 0 -6 -4 -9 -5l-24 -25c-7 -7 -52 -41 -60 -46
l-4 -8c-4 -9 -12 -82 -12 -111c0 -1 0 -1 1 -2s2 -2 3 -2c11 0 19 13 30 17l160 148l41 63c14 20 87 53 87 -24zM155 319l66 43c14 11 -10 50 -26 26c-8 -11 -47 -74 -40 -69zM160 577c0 29 26 64 53 64c33 0 53 -24 72 -49v-5c0 -37 -24 -74 -63 -74c-27 0 -62 35 -62 64z
" />
    <glyph glyph-name="Eogonek" unicode="&#x118;" 
d="M78 22c-13 53 -19 98 -22 151c-1 31 3 49 -4 76c-3 11 -21 7 -21 33c0 22 21 29 21 53v15c0 26 -9 145 -12 169c-1 23 -17 37 -17 60c0 43 15 58 59 58c9 0 14 -12 22 -12h4c4 1 14 4 17 4c223 96 233 101 249 93c16 -3 21 -9 21 -24c0 -13 -2 -28 -17 -35l-131 -63
l-4 -4l-110 -47c-8 -3 -8 -16 -8 -23c0 -20 11 -130 14 -130h1l1 1c29 21 146 118 148 118c15 0 29 -18 29 -34s-6 -39 -21 -50l-156 -139v-5c0 -7 -1 -15 -1 -24v-10c0 -48 10 -95 10 -143h4c1 0 16 14 21 21s35 48 160 203c5 5 18 20 21 20c4 4 21 3 26 0
c7 -3 21 -17 21 -28c0 -16 -19 -44 -42 -72l-4 -5l-6 -7c-21 -39 -35 -73 -42 -102c-7 -30 -7 -57 0 -82c19 -19 48 -4 59 25c64 89 85 -94 -34 -106c-33 0 -58 10 -76 31c-15 18 -24 41 -26 69c-3 -3 -5 -6 -7 -9c-31 -37 -68 -69 -109 -69c-20 0 -25 6 -38 23z" />
    <glyph glyph-name="eogonek" unicode="&#x119;" horiz-adv-x="445" 
d="M219 6c0 15 0 30 1 43c-7 -6 -15 -12 -23 -17c-24 -16 -51 -28 -80 -28c-57 0 -83 45 -83 96c0 33 1 50 9 86c-15 13 -27 21 -27 38c0 31 35 16 43 33l38 110c19 45 43 98 99 98c33 0 101 -67 101 -99c0 -40 -42 -66 -69 -87c-1 0 -6 -4 -9 -5l-12 -12l-12 -13
c-7 -7 -52 -41 -60 -46l-4 -8c-4 -9 -12 -82 -12 -111c0 -1 0 -1 1 -2s2 -2 3 -2c11 0 19 13 30 17l160 148l41 63c14 20 87 53 87 -24c-5 -49 -10 -45 -60 -87c-11 -8 -23 -19 -38 -32h2c-1 0 -2 -1 -3 -2l-2 -2c-44 -80 -57 -138 -44 -187c19 -19 48 -4 59 25
c64 89 85 -94 -34 -106c-65 0 -102 45 -102 113zM155 319l66 43c14 11 -10 50 -26 26c-8 -11 -47 -74 -40 -69z" />
    <glyph glyph-name="Ecaron" unicode="&#x11a;" 
d="M78 22c-13 53 -19 98 -22 151c-1 31 3 49 -4 76c-3 11 -21 7 -21 33c0 22 21 29 21 53v15c0 26 -9 145 -12 169c-1 23 -17 37 -17 60c0 43 15 58 59 58c9 0 14 -12 22 -12h4c4 1 14 4 17 4c223 96 233 101 249 93c16 -3 21 -9 21 -24c0 -13 -2 -28 -17 -35l-131 -63
l-4 -4l-110 -47c-8 -3 -8 -16 -8 -23c0 -20 11 -130 14 -130h1l1 1c29 21 146 118 148 118c15 0 29 -18 29 -34s-6 -39 -21 -50l-156 -139c1 -1 -2 -28 -1 -39c0 -48 10 -95 10 -143h4c1 0 16 14 21 21s35 48 160 203c5 5 18 20 21 20c4 4 21 3 26 0c7 -3 21 -17 21 -28
c0 -32 -78 -112 -102 -144c-38 -59 -103 -183 -185 -183c-20 0 -25 6 -38 23zM113 776l-77 93c-9 12 28 20 43 20c3 0 17 -2 20 -5c56 -61 60 -74 67 -81l4 -2l62 63c7 8 19 12 36 12c19 0 30 -1 30 -12c0 -4 0 -5 -4 -10c-4 -6 -39 -42 -46 -47c0 -1 -5 -6 -6 -6l-56 -55
c-7 -5 -12 -6 -23 -6c-12 0 -28 0 -33 7c-3 5 -14 25 -17 29z" />
    <glyph glyph-name="ecaron" unicode="&#x11b;" horiz-adv-x="445" 
d="M441 284c-8 -72 -14 -31 -175 -192c-43 -41 -90 -88 -149 -88c-57 0 -83 45 -83 96c0 33 1 50 9 86c-15 13 -27 21 -27 38c0 31 35 16 43 33l38 110c19 45 43 98 99 98c33 0 101 -67 101 -99c0 -40 -42 -66 -69 -87c-1 0 -6 -4 -9 -5l-24 -25c-7 -7 -52 -41 -60 -46
l-4 -8c-4 -9 -12 -82 -12 -111c0 -1 0 -1 1 -2s2 -2 3 -2c11 0 19 13 30 17l160 148l41 63c14 20 87 53 87 -24zM155 319l66 43c14 11 -10 50 -26 26c-8 -11 -47 -74 -40 -69zM128 532l-77 93c-9 12 28 20 43 20c3 0 17 -2 20 -5c56 -61 60 -74 67 -81l4 -2l62 63
c7 8 19 12 36 12c19 0 30 -1 30 -12c0 -4 0 -5 -4 -10c-4 -6 -39 -42 -46 -47c0 -1 -5 -6 -6 -6l-56 -55c-7 -5 -12 -6 -23 -6c-12 0 -28 0 -33 7c-3 5 -14 25 -17 29z" />
    <glyph glyph-name="Gcircumflex" unicode="&#x11c;" horiz-adv-x="501" 
d="M374 -87c-20 80 -27 175 -30 254c-24 -14 -28 -59 -47 -80c-31 -35 -65 -69 -114 -69c-80 0 -165 74 -165 156c0 57 21 119 48 170c11 19 51 80 59 88l109 115c29 31 79 43 118 46c20 3 35 -6 35 -26c0 -32 -59 -31 -81 -45c-71 -57 -128 -131 -173 -208
c-15 -47 -35 -86 -35 -137c0 -4 1 -23 1 -27c13 -32 42 -64 79 -64c19 0 41 14 52 31c11 14 59 89 67 105c8 17 30 55 30 59v4c-19 -5 -37 -9 -57 -9c-23 0 -62 6 -62 37c0 7 1 18 5 23c23 20 76 12 110 25c30 11 84 37 122 42c8 0 34 -12 34 -20c0 -29 -18 -35 -43 -51
c4 -53 -8 -107 -8 -160c0 -64 1 -132 12 -195c3 -5 14 -51 14 -55v-2c0 -19 -16 -41 -35 -41c-20 0 -41 15 -45 34zM113 675l83 146l19 45c5 11 22 11 35 11c11 0 18 -1 26 -9c8 -13 52 -75 60 -86c1 -1 7 -8 7 -9c8 -10 42 -64 50 -75c4 -7 4 -8 4 -15
c0 -15 -13 -19 -33 -19c-17 0 -32 8 -39 19l-67 99l-4 -3c-8 -10 -12 -32 -73 -127c-3 -3 -18 -8 -22 -8c-16 0 -56 13 -46 31z" />
    <glyph glyph-name="gcircumflex" unicode="&#x11d;" horiz-adv-x="416" 
d="M72 -349c-5 15 0 38 19 43c61 -27 136 -13 197 8c61 50 44 151 -4 456c0 7 2 38 -10 29c-35 -67 -92 -169 -182 -169c-40 0 -75 24 -75 68c0 100 137 381 236 381c27 0 97 -20 97 -51v-81l65 -472c0 -107 2 -198 -123 -238c-24 -12 -224 -19 -220 26zM228 378
c-41 -45 -167 -260 -124 -276c84 44 216 288 124 276zM77 566l83 146l19 45c5 11 22 11 35 11c11 0 18 -1 26 -9c8 -13 52 -75 60 -86c1 -1 7 -8 7 -9c8 -10 42 -64 50 -75c4 -7 4 -8 4 -15c0 -15 -13 -19 -33 -19c-17 0 -32 8 -39 19l-67 99l-4 -3c-8 -10 -12 -32 -73 -127
c-3 -3 -18 -8 -22 -8c-16 0 -56 13 -46 31z" />
    <glyph glyph-name="Gbreve" unicode="&#x11e;" horiz-adv-x="501" 
d="M374 -87c-20 80 -27 175 -30 254c-24 -14 -28 -59 -47 -80c-31 -35 -65 -69 -114 -69c-80 0 -165 74 -165 156c0 57 21 119 48 170c11 19 51 80 59 88l109 115c29 31 79 43 118 46c20 3 35 -6 35 -26c0 -32 -59 -31 -81 -45c-71 -57 -128 -131 -173 -208
c-15 -47 -35 -86 -35 -137c0 -4 1 -23 1 -27c13 -32 42 -64 79 -64c19 0 41 14 52 31c11 14 59 89 67 105c8 17 30 55 30 59v4c-19 -5 -37 -9 -57 -9c-23 0 -62 6 -62 37c0 7 1 18 5 23c23 20 76 12 110 25c30 11 84 37 122 42c8 0 34 -12 34 -20c0 -29 -18 -35 -43 -51
c4 -53 -8 -107 -8 -160c0 -64 1 -132 12 -195c3 -5 14 -51 14 -55v-2c0 -19 -16 -41 -35 -41c-20 0 -41 15 -45 34zM258 610c-131 11 -92 108 -77 123c27 -105 165 -76 181 9c11 -60 -7 -140 -104 -132z" />
    <glyph glyph-name="gbreve" unicode="&#x11f;" horiz-adv-x="416" 
d="M72 -349c-5 15 0 38 19 43c61 -27 136 -13 197 8c61 50 44 151 -4 456c0 7 2 38 -10 29c-35 -67 -92 -169 -182 -169c-40 0 -75 24 -75 68c0 100 137 381 236 381c27 0 97 -20 97 -51v-81l65 -472c0 -107 2 -198 -123 -238c-24 -12 -224 -19 -220 26zM228 378
c-41 -45 -167 -260 -124 -276c84 44 216 288 124 276zM215 610c-131 11 -92 108 -77 123c27 -105 165 -76 181 9c11 -60 -7 -140 -104 -132z" />
    <glyph glyph-name="Gdotaccent" unicode="&#x120;" horiz-adv-x="501" 
d="M374 -87c-20 80 -27 175 -30 254c-24 -14 -28 -59 -47 -80c-31 -35 -65 -69 -114 -69c-80 0 -165 74 -165 156c0 57 21 119 48 170c11 19 51 80 59 88l109 115c29 31 79 43 118 46c20 3 35 -6 35 -26c0 -32 -59 -31 -81 -45c-71 -57 -128 -131 -173 -208
c-15 -47 -35 -86 -35 -137c0 -4 1 -23 1 -27c13 -32 42 -64 79 -64c19 0 41 14 52 31c11 14 59 89 67 105c8 17 30 55 30 59v4c-19 -5 -37 -9 -57 -9c-23 0 -62 6 -62 37c0 7 1 18 5 23c23 20 76 12 110 25c30 11 84 37 122 42c8 0 34 -12 34 -20c0 -29 -18 -35 -43 -51
c4 -53 -8 -107 -8 -160c0 -64 1 -132 12 -195c3 -5 14 -51 14 -55v-2c0 -19 -16 -41 -35 -41c-20 0 -41 15 -45 34zM200 709c0 29 26 64 53 64c33 0 53 -24 72 -49v-5c0 -37 -24 -74 -63 -74c-27 0 -62 35 -62 64z" />
    <glyph glyph-name="gdotaccent" unicode="&#x121;" horiz-adv-x="416" 
d="M72 -349c-5 15 0 38 19 43c61 -27 136 -13 197 8c61 50 44 151 -4 456c0 7 2 38 -10 29c-35 -67 -92 -169 -182 -169c-40 0 -75 24 -75 68c0 100 137 381 236 381c27 0 97 -20 97 -51v-81l65 -472c0 -107 2 -198 -123 -238c-24 -12 -224 -19 -220 26zM228 378
c-41 -45 -167 -260 -124 -276c84 44 216 288 124 276zM145 577c0 29 26 64 53 64c33 0 53 -24 72 -49v-5c0 -37 -24 -74 -63 -74c-27 0 -62 35 -62 64z" />
    <glyph glyph-name="Gcommaaccent" unicode="&#x122;" horiz-adv-x="501" 
d="M374 -87c-20 80 -27 175 -30 254c-24 -14 -28 -59 -47 -80c-31 -35 -65 -69 -114 -69c-80 0 -165 74 -165 156c0 57 21 119 48 170c11 19 51 80 59 88l109 115c29 31 79 43 118 46c20 3 35 -6 35 -26c0 -32 -59 -31 -81 -45c-71 -57 -128 -131 -173 -208
c-15 -47 -35 -86 -35 -137c0 -4 1 -23 1 -27c13 -32 42 -64 79 -64c19 0 41 14 52 31c11 14 59 89 67 105c8 17 30 55 30 59v4c-19 -5 -37 -9 -57 -9c-23 0 -62 6 -62 37c0 7 1 18 5 23c23 20 76 12 110 25c30 11 84 37 122 42c8 0 34 -12 34 -20c0 -29 -18 -35 -43 -51
c4 -53 -8 -107 -8 -160c0 -64 1 -132 12 -195c3 -5 14 -51 14 -55v-2c0 -19 -16 -41 -35 -41c-20 0 -41 15 -45 34zM253 -181c-38 29 36 90 -21 112c-38 22 -2 47 31 47c25 0 42 -10 42 -37c0 -4 0 -13 -1 -14c-5 -66 -1 -116 -51 -108z" />
    <glyph glyph-name="gcommaaccent" unicode="&#x123;" horiz-adv-x="416" 
d="M72 -349c-5 15 0 38 19 43c61 -27 136 -13 197 8c61 50 44 151 -4 456c0 7 2 38 -10 29c-35 -67 -92 -169 -182 -169c-40 0 -75 24 -75 68c0 100 137 381 236 381c27 0 97 -20 97 -51v-81l65 -472c0 -107 2 -198 -123 -238c-24 -12 -224 -19 -220 26zM228 378
c-41 -45 -167 -260 -124 -276c84 44 216 288 124 276zM166 570v16c0 19 8 106 8 127c5 17 15 25 32 25c29 0 40 -18 40 -45c0 -24 -7 -204 -37 -200c-36 5 -43 49 -43 77z" />
    <glyph glyph-name="Hcircumflex" unicode="&#x124;" horiz-adv-x="367" 
d="M245 282l-114 -25h-3c0 -55 3 -106 3 -162c0 -32 2 -65 -37 -65c-19 0 -32 10 -39 29c-7 63 -5 122 -12 186c-3 19 -21 36 -21 52c0 12 13 17 13 32c0 104 -9 205 -9 308v17c9 13 17 14 33 14c39 0 45 -27 46 -60l9 -266c1 -4 4 -16 11 -16c18 0 117 20 124 32
c0 9 1 41 1 50c0 56 -1 110 -5 166c0 18 -17 164 -17 182c-1 1 -1 11 -1 14c0 17 15 25 30 25c32 0 45 -23 52 -52c2 -27 14 -159 17 -186v-16c0 -7 3 -32 4 -39v-410c7 -23 8 -34 8 -54c0 -16 -8 -39 -29 -39c-36 0 -64 41 -64 77v206zM34 819l83 146l19 45
c5 11 22 11 35 11c11 0 18 -1 26 -9c8 -13 52 -75 60 -86c1 -1 7 -8 7 -9c8 -10 42 -64 50 -75c4 -7 4 -8 4 -15c0 -15 -13 -19 -33 -19c-17 0 -32 8 -39 19l-67 99l-4 -3c-8 -10 -12 -32 -73 -127c-3 -3 -18 -8 -22 -8c-16 0 -56 13 -46 31z" />
    <glyph glyph-name="hcircumflex" unicode="&#x125;" horiz-adv-x="388" 
d="M63 88l-25 401c3 80 -12 160 -12 239c0 25 17 28 36 28c27 0 45 -15 48 -42c12 -145 8 -286 25 -431c121 229 277 229 225 -266c-19 0 -58 -5 -61 15c32 299 -30 298 -47 294c-59 -22 -107 -182 -99 -279c-3 -20 -2 -47 -30 -47c-55 0 -65 43 -60 88zM137 661l83 146
l19 45c5 11 22 11 35 11c11 0 18 -1 26 -9c8 -13 52 -75 60 -86c1 -1 7 -8 7 -9c8 -10 42 -64 50 -75c4 -7 4 -8 4 -15c0 -15 -13 -19 -33 -19c-17 0 -32 8 -39 19l-67 99l-4 -3c-8 -10 -12 -32 -73 -127c-3 -3 -18 -8 -22 -8c-16 0 -56 13 -46 31z" />
    <glyph glyph-name="hbar" unicode="&#x127;" horiz-adv-x="388" 
d="M-36 513c0 23 19 31 38 35l35 3c-1 19 -2 39 -4 58c-5 40 -7 80 -7 119c0 25 17 28 36 28c27 0 45 -15 48 -42c4 -52 7 -104 9 -155l134 14c23 0 47 -5 47 -32c0 -11 -40 -38 -51 -32l-129 -14c1 -70 6 -141 15 -212c121 229 277 229 225 -266c-19 0 -58 -5 -61 15
c32 299 -30 298 -47 294c-59 -22 -107 -182 -99 -279l-2 -16c-2 -16 -6 -31 -28 -31c-55 0 -65 43 -60 88l-25 398l-36 -4c-17 0 -38 12 -38 31z" />
    <glyph glyph-name="Itilde" unicode="&#x128;" horiz-adv-x="154" 
d="M23 505v61c11 15 17 18 33 18c21 0 44 -12 47 -35c11 -75 0 -152 5 -227c5 -91 21 -191 21 -282c0 -27 -8 -40 -39 -40c-50 0 -50 81 -50 110c0 32 -17 301 -17 333v62zM-55 623c0 7 1 10 2 17c18 55 39 118 88 134c9 0 17 0 25 -11l57 -72c11 -7 16 -19 29 -19
c9 0 18 20 22 27c16 24 23 64 49 64c15 0 18 -13 18 -32c0 -57 -41 -131 -80 -131c-47 -3 -85 55 -120 85c-27 0 -44 -88 -64 -88c-9 0 -26 10 -26 26z" />
    <glyph glyph-name="itilde" unicode="&#x129;" horiz-adv-x="173" 
d="M70 38c-40 400 -47 431 -47 435v4c0 15 16 26 29 26c20 0 48 -5 56 -26c24 -131 10 -266 42 -397c0 -5 8 -37 8 -42v-2c0 -1 0 -1 1 -2c0 -16 -18 -37 -34 -34c-4 1 -25 5 -30 8c-7 2 -33 20 -25 30zM-64 568c0 7 1 10 2 17c18 55 39 118 88 134c9 0 17 0 25 -11l57 -72
c11 -7 16 -19 29 -19c9 0 18 20 22 27c16 24 23 64 49 64c15 0 18 -13 18 -32c0 -57 -41 -131 -80 -131c-47 -3 -85 55 -120 85c-27 0 -44 -88 -64 -88c-9 0 -26 10 -26 26z" />
    <glyph glyph-name="imacron" unicode="&#x12b;" horiz-adv-x="173" 
d="M70 38c-40 400 -47 431 -47 435v4c0 15 16 26 29 26c20 0 48 -5 56 -26c24 -131 10 -266 42 -397c0 -5 8 -37 8 -42v-2c0 -1 0 -1 1 -2c0 -16 -18 -37 -34 -34c-4 1 -25 5 -30 8c-7 2 -33 20 -25 30zM-81 714c0 23 19 31 38 35l251 25c23 0 47 -5 47 -32
c0 -11 -40 -38 -51 -32l-247 -27c-17 0 -38 12 -38 31z" />
    <glyph glyph-name="Ibreve" unicode="&#x12c;" horiz-adv-x="154" 
d="M23 505v61c11 15 17 18 33 18c21 0 44 -12 47 -35c11 -75 0 -152 5 -227c5 -91 21 -191 21 -282c0 -27 -8 -40 -39 -40c-50 0 -50 81 -50 110c0 32 -17 301 -17 333v62zM86 610c-131 11 -92 108 -77 123c27 -105 165 -76 181 9c11 -60 -7 -140 -104 -132z" />
    <glyph glyph-name="ibreve" unicode="&#x12d;" horiz-adv-x="173" 
d="M94 610c-131 11 -92 108 -77 123c27 -105 165 -76 181 9c11 -60 -7 -140 -104 -132zM70 38c-40 400 -47 431 -47 435v4c0 15 16 26 29 26c20 0 48 -5 56 -26c24 -131 10 -266 42 -397c0 -5 8 -37 8 -42v-2c0 -1 0 -1 1 -2c0 -16 -18 -37 -34 -34c-4 1 -25 5 -30 8
c-7 2 -33 20 -25 30z" />
    <glyph glyph-name="Iogonek" unicode="&#x12e;" horiz-adv-x="154" 
d="M-11 -133c0 93 16 139 40 158c6 5 13 8 20 10l-3 9c-5 24 -6 51 -6 66c0 32 -17 301 -17 333v123c11 15 17 18 33 18c21 0 44 -12 47 -35c5 -37 5 -75 4 -114l-1 -57c0 -19 1 -37 2 -56c5 -91 21 -191 21 -282c0 -13 -3 -23 -8 -30c-5 -5 -12 -9 -23 -10
c-15 -31 -26 -58 -32 -83c-7 -30 -7 -57 0 -82c19 -19 48 -4 59 25c64 89 85 -94 -34 -106c-65 0 -102 45 -102 113z" />
    <glyph glyph-name="iogonek" unicode="&#x12f;" horiz-adv-x="173" 
d="M12 -129c0 93 16 139 40 158c5 4 11 7 18 9c-40 400 -47 431 -47 435v4c0 15 16 26 29 26c20 0 48 -5 56 -26c24 -131 10 -266 42 -397c0 -5 8 -37 8 -42v-2c0 -1 0 -1 1 -2c0 -16 -18 -37 -34 -34c-1 0 -3 0 -6 1c-15 -29 -25 -56 -30 -80c-7 -30 -7 -57 0 -82
c19 -19 48 -4 59 25c64 89 85 -94 -34 -106c-65 0 -102 45 -102 113zM14 767c0 9 21 18 29 18c20 0 52 -11 52 -34s-3 -29 -26 -29c-24 0 -55 17 -55 45z" />
    <glyph glyph-name="Idotaccent" unicode="&#x130;" horiz-adv-x="154" 
d="M23 505v61c11 15 17 18 33 18c21 0 44 -12 47 -35c11 -75 0 -152 5 -227c5 -91 21 -191 21 -282c0 -27 -8 -40 -39 -40c-50 0 -50 81 -50 110c0 32 -17 301 -17 333v62zM10 703c0 29 26 64 53 64c33 0 53 -24 72 -49v-5c0 -37 -24 -74 -63 -74c-27 0 -62 35 -62 64z" />
    <glyph glyph-name="Jcircumflex" unicode="&#x134;" horiz-adv-x="323" 
d="M10 255c0 17 9 37 30 37c24 0 30 -38 43 -51c19 -16 105 -121 110 -131l12 -13l4 4c0 4 1 52 1 71c0 115 -5 226 -5 341v141c4 19 18 27 35 27c19 0 40 -7 45 -27c-3 -167 9 -326 9 -491c0 -40 7 -164 -58 -164c-3 0 -9 1 -10 1c-7 3 -30 17 -33 22l-165 185
c-16 17 -18 29 -18 48zM97 744l83 146l19 45c5 11 22 11 35 11c11 0 18 -1 26 -9c8 -13 52 -75 60 -86c1 -1 7 -8 7 -9c8 -10 42 -64 50 -75c4 -7 4 -8 4 -15c0 -15 -13 -19 -33 -19c-17 0 -32 8 -39 19l-67 99l-4 -3c-8 -10 -12 -32 -73 -127c-3 -3 -18 -8 -22 -8
c-16 0 -56 13 -46 31z" />
    <glyph glyph-name="jcircumflex" unicode="&#x135;" horiz-adv-x="201" 
d="M-116 -165c0 120 70 6 120 -2c76 0 92 120 92 174c0 7 1 28 -39 459c0 20 10 35 31 35c27 0 42 -5 57 -30c0 -47 15 -113 39 -475c0 -87 -26 -196 -123 -226c-8 3 -16 -4 -24 -4c-53 0 -131 20 -153 69zM-36 675l83 146l19 45c5 11 22 11 35 11c11 0 18 -1 26 -9
c8 -13 52 -75 60 -86c1 -1 7 -8 7 -9c8 -10 42 -64 50 -75c4 -7 4 -8 4 -15c0 -15 -13 -19 -33 -19c-17 0 -32 8 -39 19l-67 99l-4 -3c-8 -10 -12 -32 -73 -127c-3 -3 -18 -8 -22 -8c-16 0 -56 13 -46 31z" />
    <glyph glyph-name="Kcommaaccent" unicode="&#x136;" horiz-adv-x="592" 
d="M92 38l-16 105c-15 7 -30 23 -30 38c0 19 17 29 17 48c0 31 -12 61 -8 93l-29 282v2c0 16 16 39 33 36c7 0 34 -9 42 -17c3 -3 12 -21 13 -25c11 -39 6 -90 9 -131c3 -30 9 -140 18 -140l2 1c68 68 120 138 153 227c0 5 10 36 12 43c0 1 6 36 14 37h46
c19 0 24 -31 24 -41c0 -1 -3 -8 -4 -9v-8c-21 -74 -48 -120 -88 -187c-7 -11 -26 -23 -30 -38l-92 -109l-13 -26h4c115 29 206 23 325 26c4 0 33 4 38 4h9c15 0 37 -3 42 -22c5 -15 -8 -34 -21 -41c-7 -2 -45 -9 -51 -9h-13c-28 -1 -74 -1 -113 -2l-72 -2l-148 -30v-6
c0 -29 13 -57 13 -86c0 -27 -12 -51 -43 -51c-16 0 -39 22 -43 38zM298 -181c-38 29 36 90 -21 112c-38 22 -2 47 31 47c25 0 42 -10 42 -37c0 -4 0 -13 -1 -14c-5 -66 -1 -116 -51 -108z" />
    <glyph glyph-name="kcommaaccent" unicode="&#x137;" horiz-adv-x="399" 
d="M37 -37c0 13 -4 72 -4 84c-4 113 9 616 0 621c0 13 10 32 25 29c21 0 60 -13 60 -41v-292h4l115 131c19 24 30 68 66 76c28 -7 51 -15 51 -46c0 -3 -3 -10 -4 -13c-8 -11 -44 -53 -195 -236l9 -5l194 -20c17 -3 34 -23 34 -38c0 -27 -23 -36 -46 -39
c-3 10 -13 -2 -224 30l4 -238c0 -27 -6 -41 -38 -41c-24 0 -43 18 -51 38zM202 -181c-38 29 36 90 -21 112c-38 22 -2 47 31 47c25 0 42 -10 42 -37c0 -4 0 -13 -1 -14c-5 -66 -1 -116 -51 -108z" />
    <glyph glyph-name="Lacute" unicode="&#x139;" horiz-adv-x="447" 
d="M32 155c0 103 5 203 5 307c0 60 -9 120 -9 180c0 19 12 34 31 34c64 0 58 -58 58 -106c0 -11 4 -98 4 -109v-33c0 -87 -4 -171 -4 -259v-42c0 -7 3 -22 4 -22h8l237 94c11 9 17 8 28 8c13 0 47 -1 47 -24c0 -15 -8 -29 -25 -40c-43 -23 -88 -43 -135 -55l-5 -4
c-64 -17 -116 -56 -176 -84h-9c-73 0 -59 110 -59 155zM110 793c-8 69 45 70 81 129c20 16 37 10 52 -13c16 -24 -7 -41 -18 -57c-21 -26 -88 -110 -115 -59z" />
    <glyph glyph-name="lacute" unicode="&#x13a;" horiz-adv-x="153" 
d="M31 70c0 56 4 108 4 164c-4 152 3 295 -12 448c0 25 12 32 36 32c31 0 56 -19 57 -51c-3 -189 9 -373 9 -564v-77c-8 -11 -24 -25 -39 -22c-39 7 -55 33 -55 70zM21 773c-8 69 45 70 81 129c20 16 37 10 52 -13c16 -24 -7 -41 -18 -57c-21 -26 -88 -110 -115 -59z" />
    <glyph glyph-name="Lcommaaccent" unicode="&#x13b;" horiz-adv-x="447" 
d="M32 155c0 103 5 203 5 307c0 60 -9 120 -9 180c0 19 12 34 31 34c64 0 58 -58 58 -106c0 -11 4 -98 4 -109v-33c0 -87 -4 -171 -4 -259v-42c0 -7 3 -22 4 -22h8l237 94c11 9 17 8 28 8c13 0 47 -1 47 -24c0 -15 -8 -29 -25 -40c-43 -23 -88 -43 -135 -55l-5 -4
c-64 -17 -116 -56 -176 -84h-9c-73 0 -59 110 -59 155zM226 -181c-38 29 36 90 -21 112c-38 22 -2 47 31 47c25 0 42 -10 42 -37c0 -4 0 -13 -1 -14c-5 -66 -1 -116 -51 -108z" />
    <glyph glyph-name="lcommaaccent" unicode="&#x13c;" horiz-adv-x="153" 
d="M31 70c0 56 4 108 4 164c-4 152 3 295 -12 448c0 25 12 32 36 32c31 0 56 -19 57 -51c-3 -189 9 -373 9 -564v-77c-8 -11 -24 -25 -39 -22c-39 7 -55 33 -55 70zM80 -181c-38 29 36 90 -21 112c-38 22 -2 47 31 47c25 0 42 -10 42 -37c0 -4 0 -13 -1 -14
c-5 -66 -1 -116 -51 -108z" />
    <glyph glyph-name="Ldot" unicode="&#x13f;" horiz-adv-x="447" 
d="M32 155c0 103 5 203 5 307c0 60 -9 120 -9 180c0 19 12 34 31 34c64 0 58 -58 58 -106c0 -11 4 -98 4 -109v-33c0 -87 -4 -171 -4 -259v-42c0 -7 3 -22 4 -22h8l237 94c11 9 17 8 28 8c13 0 47 -1 47 -24c0 -15 -8 -29 -25 -40c-43 -23 -88 -43 -135 -55l-5 -4
c-64 -17 -116 -56 -176 -84h-9c-73 0 -59 110 -59 155zM182 284c0 19 16 38 35 38c23 0 35 -14 48 -29v-3c0 -23 -17 -44 -42 -44c-17 0 -41 19 -41 38z" />
    <glyph glyph-name="ldot" unicode="&#x140;" horiz-adv-x="282" 
d="M31 70c0 56 4 108 4 164c-4 152 3 295 -12 448c0 25 12 32 36 32c31 0 56 -19 57 -51c-3 -189 9 -373 9 -564v-77c-8 -11 -24 -25 -39 -22c-39 7 -55 33 -55 70zM178 284c0 19 16 38 35 38c23 0 35 -14 48 -29v-3c0 -23 -17 -44 -42 -44c-17 0 -41 19 -41 38z" />
    <glyph glyph-name="Lslash" unicode="&#x141;" horiz-adv-x="447" 
d="M-48 287c0 23 19 31 38 35l45 4c1 45 2 90 2 136c0 60 -9 120 -9 180c0 19 12 34 31 34c47 0 58 -33 58 -69v-37c0 -11 4 -98 4 -109v-33c0 -31 0 -62 -1 -93l121 12c23 0 47 -5 47 -32c0 -11 -40 -38 -51 -32l-119 -13c-1 -33 -1 -67 -1 -101v-42c0 -7 3 -22 4 -22h8
l237 94c11 9 17 8 28 8c13 0 47 -1 47 -24c0 -15 -8 -29 -25 -40c-43 -23 -88 -43 -135 -55l-5 -4c-64 -17 -116 -56 -176 -84h-9c-73 0 -59 110 -59 155c0 35 0 70 1 105l-43 -4c-17 0 -38 12 -38 31z" />
    <glyph glyph-name="lslash" unicode="&#x142;" horiz-adv-x="153" 
d="M-90 253c0 23 19 31 38 35l85 8c-1 55 -1 108 0 161c1 73 -3 148 -10 225c0 25 12 32 36 32c31 0 56 -19 57 -51c-1 -95 0 -189 3 -282l3 -76l77 8c23 0 47 -5 47 -32c0 -11 -40 -38 -51 -32l-72 -8c1 -47 2 -95 2 -142v-77c-8 -11 -24 -25 -39 -22c-39 7 -55 33 -55 70
c0 28 1 55 2 82c1 26 2 52 2 79l-87 -9c-17 0 -38 12 -38 31z" />
    <glyph glyph-name="Nacute" unicode="&#x143;" horiz-adv-x="445" 
d="M23 38v87c0 163 17 328 12 491c4 15 15 22 30 22c56 0 53 -45 56 -89c16 -29 41 -56 58 -84c0 -1 3 -8 4 -8l56 -85l4 -5l58 -84c3 -3 5 -4 7 -4h2c-17 141 -29 291 -29 435v50c5 9 14 13 27 13c51 0 41 -54 44 -89c0 -4 6 -11 22 -282v-18l34 -223c1 -11 16 -38 16 -50
c0 -28 -17 -47 -46 -47c-8 0 -29 15 -34 20l-161 229c-1 0 -3 6 -4 9c-16 24 -58 81 -58 84l-5 4c-7 -127 -12 -256 -8 -384c-3 -16 -19 -30 -34 -30c-27 0 -40 15 -51 38zM117 762c-8 69 45 70 81 129c20 16 37 10 52 -13c16 -24 -7 -41 -18 -57c-21 -26 -88 -110 -115 -59
z" />
    <glyph glyph-name="nacute" unicode="&#x144;" horiz-adv-x="414" 
d="M308 34c-55 78 -61 386 -109 266l-87 -268c-7 -19 -14 -25 -35 -25s-51 14 -54 38c12 50 11 367 7 402c0 27 -2 60 33 60c25 0 52 -26 52 -50c0 -35 -5 -68 -5 -103c0 -21 -1 -33 4 -54l51 139c9 27 27 56 58 59c41 3 65 -58 73 -88l54 -249l42 -114c1 -1 1 -9 1 -12
c0 -16 -6 -35 -25 -35c-23 0 -51 14 -60 34zM136 629c-8 69 45 70 81 129c20 16 37 10 52 -13c16 -24 -7 -41 -18 -57c-21 -26 -88 -110 -115 -59z" />
    <glyph glyph-name="Ncommaaccent" unicode="&#x145;" horiz-adv-x="445" 
d="M23 38v87c0 163 17 328 12 491c4 15 15 22 30 22c56 0 53 -45 56 -89c16 -29 41 -56 58 -84c0 -1 3 -8 4 -8l56 -85l4 -5l58 -84c3 -3 5 -4 7 -4h2c-17 141 -29 291 -29 435v50c5 9 14 13 27 13c51 0 41 -54 44 -89c0 -4 6 -11 22 -282v-18l34 -223c1 -11 16 -38 16 -50
c0 -28 -17 -47 -46 -47c-8 0 -29 15 -34 20l-161 229c-1 0 -3 6 -4 9c-16 24 -58 81 -58 84l-5 4c-7 -127 -12 -256 -8 -384c-3 -16 -19 -30 -34 -30c-27 0 -40 15 -51 38zM225 -181c-38 29 36 90 -21 112c-38 22 -2 47 31 47c25 0 42 -10 42 -37c0 -4 0 -13 -1 -14
c-5 -66 -1 -116 -51 -108z" />
    <glyph glyph-name="ncommaaccent" unicode="&#x146;" horiz-adv-x="414" 
d="M308 34c-55 78 -61 386 -109 266l-87 -268c-7 -19 -14 -25 -35 -25s-51 14 -54 38c12 50 11 367 7 402c0 27 -2 60 33 60c25 0 52 -26 52 -50c0 -35 -5 -68 -5 -103c0 -21 -1 -33 4 -54l51 139c9 27 27 56 58 59c41 3 65 -58 73 -88l54 -249l42 -114c1 -1 1 -9 1 -12
c0 -16 -6 -35 -25 -35c-23 0 -51 14 -60 34zM209 -181c-38 29 36 90 -21 112c-38 22 -2 47 31 47c25 0 42 -10 42 -37c0 -4 0 -13 -1 -14c-5 -66 -1 -116 -51 -108z" />
    <glyph glyph-name="Ncaron" unicode="&#x147;" horiz-adv-x="445" 
d="M23 38v87c0 163 17 328 12 491c4 15 15 22 30 22c56 0 53 -45 56 -89c16 -29 41 -56 58 -84c0 -1 3 -8 4 -8l56 -85l4 -5l58 -84c3 -3 5 -4 7 -4h2c-17 141 -29 291 -29 435v50c5 9 14 13 27 13c51 0 41 -54 44 -89c0 -4 6 -11 22 -282v-18l34 -223c1 -11 16 -38 16 -50
c0 -28 -17 -47 -46 -47c-8 0 -29 15 -34 20l-161 229c-1 0 -3 6 -4 9c-16 24 -58 81 -58 84l-5 4c-7 -127 -12 -256 -8 -384c-3 -16 -19 -30 -34 -30c-27 0 -40 15 -51 38zM134 779l-77 93c-9 12 28 20 43 20c3 0 17 -2 20 -5c56 -61 60 -74 67 -81l4 -2l62 63
c7 8 19 12 36 12c19 0 30 -1 30 -12c0 -4 0 -5 -4 -10c-4 -6 -39 -42 -46 -47c0 -1 -5 -6 -6 -6l-56 -55c-7 -5 -12 -6 -23 -6c-12 0 -28 0 -33 7c-3 5 -14 25 -17 29z" />
    <glyph glyph-name="ncaron" unicode="&#x148;" horiz-adv-x="414" 
d="M308 34c-55 78 -61 386 -109 266l-87 -268c-7 -19 -14 -25 -35 -25s-51 14 -54 38c12 50 11 367 7 402c0 27 -2 60 33 60c25 0 52 -26 52 -50c0 -35 -5 -68 -5 -103c0 -21 -1 -33 4 -54l51 139c9 27 27 56 58 59c41 3 65 -58 73 -88l54 -249l42 -114c1 -1 1 -9 1 -12
c0 -16 -6 -35 -25 -35c-23 0 -51 14 -60 34zM157 664l-77 93c-9 12 28 20 43 20c3 0 17 -2 20 -5c56 -61 60 -74 67 -81l4 -2l62 63c7 8 19 12 36 12c19 0 30 -1 30 -12c0 -4 0 -5 -4 -10c-4 -6 -39 -42 -46 -47c0 -1 -5 -6 -6 -6l-56 -55c-7 -5 -12 -6 -23 -6
c-12 0 -28 0 -33 7c-3 5 -14 25 -17 29z" />
    <glyph glyph-name="napostrophe" unicode="&#x149;" horiz-adv-x="414" 
d="M308 34c-55 78 -61 386 -109 266l-87 -268c-7 -19 -14 -25 -35 -25s-51 14 -54 38c12 50 11 367 7 402c0 27 -2 60 33 60c25 0 52 -26 52 -50c0 -35 -5 -68 -5 -103c0 -21 -1 -33 4 -54l51 139c9 27 27 56 58 59c41 3 65 -58 73 -88l54 -249l42 -114c1 -1 1 -9 1 -12
c0 -16 -6 -35 -25 -35c-23 0 -51 14 -60 34zM76 588c-38 29 36 90 -21 112c-38 22 -2 47 31 47c25 0 42 -10 42 -37c0 -4 0 -13 -1 -14c-5 -66 -1 -116 -51 -108z" />
    <glyph glyph-name="Omacron" unicode="&#x14c;" horiz-adv-x="330" 
d="M22 177c4 25 -17 311 52 440c8 36 38 47 94 50c72 0 98 -84 120 -136v-5c19 -53 17 -231 17 -287c0 -81 -41 -239 -146 -239c-88 0 -137 102 -137 177zM119 110c3 -15 17 -34 34 -34h8c56 51 68 119 68 192c0 51 -11 295 -54 330c-1 -1 -4 -7 -4 -8
c-55 -68 -97 -245 -52 -480zM-2 714c0 23 19 31 38 35l251 25c23 0 47 -5 47 -32c0 -11 -40 -38 -51 -32l-247 -27c-17 0 -38 12 -38 31z" />
    <glyph glyph-name="omacron" unicode="&#x14d;" horiz-adv-x="338" 
d="M26 150v3l37 257c3 17 17 25 33 25c29 0 45 -19 57 -43h1c16 0 26 9 45 9c85 0 118 -120 118 -188c0 -80 -91 -214 -179 -214c-81 0 -112 82 -112 151zM110 150v-3c5 -27 7 -76 43 -63c34 31 88 80 88 135c11 91 -54 167 -110 55c-16 -35 -21 -85 -21 -124zM14 511
c0 23 19 31 38 35l251 25c23 0 47 -5 47 -32c0 -11 -40 -38 -51 -32l-247 -27c-17 0 -38 12 -38 31z" />
    <glyph glyph-name="Obreve" unicode="&#x14e;" horiz-adv-x="330" 
d="M22 177c4 25 -17 311 52 440c8 36 38 47 94 50c72 0 98 -84 120 -136v-5c19 -53 17 -231 17 -287c0 -81 -41 -239 -146 -239c-88 0 -137 102 -137 177zM119 110c3 -15 17 -34 34 -34h8c56 51 68 119 68 192c0 51 -11 295 -54 330c-1 -1 -4 -7 -4 -8
c-55 -68 -97 -245 -52 -480zM146 702c-131 11 -92 108 -77 123c27 -105 165 -76 181 9c11 -60 -7 -140 -104 -132z" />
    <glyph glyph-name="obreve" unicode="&#x14f;" horiz-adv-x="338" 
d="M26 150v3l37 257c3 17 17 25 33 25c29 0 45 -19 57 -43h1c16 0 26 9 45 9c85 0 118 -120 118 -188c0 -80 -91 -214 -179 -214c-81 0 -112 82 -112 151zM110 150v-3c5 -27 7 -76 43 -63c34 31 88 80 88 135c11 91 -54 167 -110 55c-16 -35 -21 -85 -21 -124zM153 481
c-131 11 -92 108 -77 123c27 -105 165 -76 181 9c11 -60 -7 -140 -104 -132z" />
    <glyph glyph-name="Ohungarumlaut" unicode="&#x150;" horiz-adv-x="330" 
d="M22 177c4 25 -17 311 52 440c8 36 38 47 94 50c72 0 98 -84 120 -136v-5c19 -53 17 -231 17 -287c0 -81 -41 -239 -146 -239c-88 0 -137 102 -137 177zM119 110c3 -15 17 -34 34 -34h8c56 51 68 119 68 192c0 51 -11 295 -54 330c-1 -1 -4 -7 -4 -8
c-55 -68 -97 -245 -52 -480zM38 755c-8 69 45 70 81 129c20 16 37 10 52 -13c16 -24 -7 -41 -18 -57c-21 -26 -88 -110 -115 -59zM174 736c-8 69 45 70 81 129c20 16 37 10 52 -13c16 -24 -7 -41 -18 -57c-21 -26 -88 -110 -115 -59z" />
    <glyph glyph-name="ohungarumlaut" unicode="&#x151;" horiz-adv-x="338" 
d="M26 150v3l37 257c3 17 17 25 33 25c29 0 45 -19 57 -43h1c16 0 26 9 45 9c85 0 118 -120 118 -188c0 -80 -91 -214 -179 -214c-81 0 -112 82 -112 151zM110 150v-3c5 -27 7 -76 43 -63c34 31 88 80 88 135c11 91 -54 167 -110 55c-16 -35 -21 -85 -21 -124zM50 493
c-8 69 45 70 81 129c20 16 37 10 52 -13c16 -24 -7 -41 -18 -57c-21 -26 -88 -110 -115 -59zM186 474c-8 69 45 70 81 129c20 16 37 10 52 -13c16 -24 -7 -41 -18 -57c-21 -26 -88 -110 -115 -59z" />
    <glyph glyph-name="OE" unicode="&#x152;" horiz-adv-x="638" 
d="M293 25c-7 27 -12 52 -15 75l-1 2l-6 -13c-23 -49 -60 -89 -112 -89c-88 0 -137 102 -137 177c4 25 -17 311 52 440c8 36 38 47 94 50c18 0 33 -5 46 -14c12 -9 22 -20 31 -33l6 7c9 9 24 13 46 13c9 0 14 -12 22 -12h4c4 1 14 4 17 4c223 96 233 101 249 93
c16 -3 21 -9 21 -24c0 -13 -2 -28 -17 -35l-131 -63l-4 -4l-110 -47c-8 -3 -8 -16 -8 -23c0 -20 11 -130 14 -130h1l1 1c29 21 146 118 148 118c15 0 29 -18 29 -34s-6 -39 -21 -50l-156 -139v-5c0 -7 -1 -15 -1 -24v-10c0 -48 10 -95 10 -143h4c1 0 16 14 21 21
s35 48 160 203c5 5 18 20 21 20c4 4 21 3 26 0c7 -3 21 -17 21 -28c0 -32 -78 -112 -102 -144c-38 -59 -103 -183 -185 -183c-20 0 -25 6 -38 23zM119 110c3 -15 17 -34 34 -34h8c56 51 68 119 68 192c0 51 -11 295 -54 330c-1 -1 -4 -7 -4 -8c-55 -68 -97 -245 -52 -480z
" />
    <glyph glyph-name="oe" unicode="&#x153;" horiz-adv-x="679" 
d="M658 273c-8 -72 -14 -31 -175 -192c-43 -41 -90 -88 -149 -88c-49 0 -75 32 -82 73c-32 -39 -74 -67 -114 -67c-81 0 -112 82 -112 151v3l37 257c3 17 17 25 33 25c29 0 45 -19 57 -43h1c16 0 26 9 45 9c51 0 80 -41 99 -89l16 44c19 45 43 98 99 98
c33 0 101 -67 101 -99c0 -40 -42 -66 -69 -87c-1 0 -6 -4 -9 -5l-24 -25c-7 -7 -52 -41 -60 -46l-4 -8c-4 -9 -12 -82 -12 -111c0 -1 0 -1 1 -2s2 -2 3 -2c11 0 19 13 30 17l160 148l41 63c14 20 87 53 87 -24zM110 150v-3c5 -27 7 -76 43 -63c30 27 72 67 85 112
c49 69 -31 234 -107 78c-17 -35 -21 -85 -21 -124zM372 308l66 43c14 11 -10 50 -26 26c-8 -11 -47 -74 -40 -69z" />
    <glyph glyph-name="Racute" unicode="&#x154;" horiz-adv-x="768" 
d="M92 34l-16 198c-8 17 -13 25 -13 40c0 12 5 21 5 33c0 29 -2 52 -5 83c-3 8 -38 6 -38 41c0 32 34 41 34 73c0 14 -4 80 -4 94v2v2c11 24 11 30 33 30c57 0 44 -53 55 -56l72 63h4c47 31 99 48 156 48c36 0 106 -15 106 -63c0 -52 -28 -118 -63 -153
c-7 -15 -84 -71 -240 -190l480 -30c28 -3 102 4 102 -42c0 -25 -14 -25 -25 -38h-17h-17c-79 8 -163 34 -536 34c-1 0 -4 -5 -4 -8c0 -51 13 -99 13 -147c0 -19 -8 -49 -32 -49c-15 0 -47 15 -50 35zM143 469v-16c0 -33 1 -60 4 -95h3c4 0 7 2 167 111c32 19 80 99 80 133
c0 13 -17 10 -26 10c-39 0 -98 -18 -228 -143zM221 724c-8 69 45 70 81 129c20 16 37 10 52 -13c16 -24 -7 -41 -18 -57c-21 -26 -88 -110 -115 -59z" />
    <glyph glyph-name="racute" unicode="&#x155;" horiz-adv-x="357" 
d="M68 43c-5 96 -27 351 -38 435c0 17 20 21 35 21c19 0 44 -11 49 -30c0 -12 5 -60 5 -72c0 -16 -1 -12 4 -30l8 9c43 62 73 85 143 147c15 13 14 14 28 14c23 0 52 -16 52 -43c0 -18 -30 -42 -45 -47c-69 -61 -166 -162 -166 -261c0 -45 10 -89 10 -134v-35
c-11 -11 -16 -18 -31 -18c-23 0 -47 24 -54 44zM108 629c-8 69 45 70 81 129c20 16 37 10 52 -13c16 -24 -7 -41 -18 -57c-21 -26 -88 -110 -115 -59z" />
    <glyph glyph-name="Rcommaaccent" unicode="&#x156;" horiz-adv-x="768" 
d="M92 34l-16 198c-8 17 -13 25 -13 40c0 12 5 21 5 33c0 29 -2 52 -5 83c-3 8 -38 6 -38 41c0 32 34 41 34 73c0 14 -4 80 -4 94v2v2c11 24 11 30 33 30c57 0 44 -53 55 -56l72 63h4c47 31 99 48 156 48c36 0 106 -15 106 -63c0 -52 -28 -118 -63 -153
c-7 -15 -84 -71 -240 -190l480 -30c28 -3 102 4 102 -42c0 -25 -14 -25 -25 -38h-17h-17c-79 8 -163 34 -536 34c-1 0 -4 -5 -4 -8c0 -51 13 -99 13 -147c0 -19 -8 -49 -32 -49c-15 0 -47 15 -50 35zM143 469v-16c0 -33 1 -60 4 -95h3c4 0 7 2 167 111c32 19 80 99 80 133
c0 13 -17 10 -26 10c-39 0 -98 -18 -228 -143zM386 -181c-38 29 36 90 -21 112c-38 22 -2 47 31 47c25 0 42 -10 42 -37c0 -4 0 -13 -1 -14c-5 -66 -1 -116 -51 -108z" />
    <glyph glyph-name="rcommaaccent" unicode="&#x157;" horiz-adv-x="357" 
d="M68 43c-5 96 -27 351 -38 435c0 17 20 21 35 21c19 0 44 -11 49 -30c0 -12 5 -60 5 -72c0 -16 -1 -12 4 -30l8 9c43 62 73 85 143 147c15 13 14 14 28 14c23 0 52 -16 52 -43c0 -18 -30 -42 -45 -47c-69 -61 -166 -162 -166 -261c0 -45 10 -89 10 -134v-35
c-11 -11 -16 -18 -31 -18c-23 0 -47 24 -54 44zM182 -181c-38 29 36 90 -21 112c-38 22 -2 47 31 47c25 0 42 -10 42 -37c0 -4 0 -13 -1 -14c-5 -66 -1 -116 -51 -108z" />
    <glyph glyph-name="Rcaron" unicode="&#x158;" horiz-adv-x="768" 
d="M92 34l-16 198c-8 17 -13 25 -13 40c0 12 5 21 5 33c0 29 -2 52 -5 83c-3 8 -38 6 -38 41c0 32 34 41 34 73c0 14 -4 80 -4 94v2v2c11 24 11 30 33 30c57 0 44 -53 55 -56l72 63h4c47 31 99 48 156 48c36 0 106 -15 106 -63c0 -52 -28 -118 -63 -153
c-7 -15 -84 -71 -240 -190l480 -30c28 -3 102 4 102 -42c0 -25 -14 -25 -25 -38h-17h-17c-79 8 -163 34 -536 34c-1 0 -4 -5 -4 -8c0 -51 13 -99 13 -147c0 -19 -8 -49 -32 -49c-15 0 -47 15 -50 35zM143 469v-16c0 -33 1 -60 4 -95h3c4 0 7 2 167 111c32 19 80 99 80 133
c0 13 -17 10 -26 10c-39 0 -98 -18 -228 -143zM217 739l-77 93c-9 12 28 20 43 20c3 0 17 -2 20 -5c56 -61 60 -74 67 -81l4 -2l62 63c7 8 19 12 36 12c19 0 30 -1 30 -12c0 -4 0 -5 -4 -10c-4 -6 -39 -42 -46 -47c0 -1 -5 -6 -6 -6l-56 -55c-7 -5 -12 -6 -23 -6
c-12 0 -28 0 -33 7c-3 5 -14 25 -17 29z" />
    <glyph glyph-name="rcaron" unicode="&#x159;" horiz-adv-x="357" 
d="M68 43c-5 96 -27 351 -38 435c0 17 20 21 35 21c19 0 44 -11 49 -30c0 -12 5 -60 5 -72c0 -16 -1 -12 4 -30l8 9c43 62 73 85 143 147c15 13 14 14 28 14c23 0 52 -16 52 -43c0 -18 -30 -42 -45 -47c-69 -61 -166 -162 -166 -261c0 -45 10 -89 10 -134v-35
c-11 -11 -16 -18 -31 -18c-23 0 -47 24 -54 44zM130 664l-77 93c-9 12 28 20 43 20c3 0 17 -2 20 -5c56 -61 60 -74 67 -81l4 -2l62 63c7 8 19 12 36 12c19 0 30 -1 30 -12c0 -4 0 -5 -4 -10c-4 -6 -39 -42 -46 -47c0 -1 -5 -6 -6 -6l-56 -55c-7 -5 -12 -6 -23 -6
c-12 0 -28 0 -33 7c-3 5 -14 25 -17 29z" />
    <glyph glyph-name="Sacute" unicode="&#x15a;" horiz-adv-x="549" 
d="M173 36c43 60 105 47 157 86c29 16 119 71 119 97c0 1 0 1 -1 1s-2 0 -2 1l-2 2c-7 3 -26 8 -29 9c-344 40 -399 55 -399 124c0 26 23 69 36 84c43 54 147 82 214 101c37 3 76 24 113 29c19 0 32 -18 32 -34c0 -43 -38 -43 -73 -51c-21 -5 -83 -21 -88 -24
c-83 -35 -152 -59 -149 -103v-1c40 -56 423 -15 427 -131c0 -15 -6 -38 -17 -49c-67 -75 -191 -169 -300 -177c-19 0 -38 16 -38 36zM204 629c-8 69 45 70 81 129c20 16 37 10 52 -13c16 -24 -7 -41 -18 -57c-21 -26 -88 -110 -115 -59z" />
    <glyph glyph-name="sacute" unicode="&#x15b;" horiz-adv-x="412" 
d="M174 38c0 7 0 12 5 17c33 42 80 86 102 135v6l-131 -27h-15c-37 0 -121 8 -121 61c3 61 141 158 191 192c28 16 71 27 103 27c27 0 50 -8 50 -37c0 -12 1 -24 -14 -28c-87 8 -147 -46 -203 -105c-8 -9 -24 -31 -24 -34v-1c70 0 135 31 206 31c28 0 68 -7 68 -43
c0 -51 -49 -82 -152 -228c-3 -4 -15 -5 -22 -5c-19 0 -43 19 -43 39zM135 629c-8 69 45 70 81 129c20 16 37 10 52 -13c16 -24 -7 -41 -18 -57c-21 -26 -88 -110 -115 -59z" />
    <glyph glyph-name="Scircumflex" unicode="&#x15c;" horiz-adv-x="549" 
d="M173 36c43 60 105 47 157 86c29 16 119 71 119 97c0 1 0 1 -1 1s-2 0 -2 1l-2 2c-7 3 -26 8 -29 9c-344 40 -399 55 -399 124c0 26 23 69 36 84c43 54 147 82 214 101c37 3 76 24 113 29c19 0 32 -18 32 -34c0 -43 -38 -43 -73 -51c-21 -5 -83 -21 -88 -24
c-83 -35 -152 -59 -149 -103v-1c40 -56 423 -15 427 -131c0 -15 -6 -38 -17 -49c-67 -75 -191 -169 -300 -177c-19 0 -38 16 -38 36zM137 675l83 146l19 45c5 11 22 11 35 11c11 0 18 -1 26 -9c8 -13 52 -75 60 -86c1 -1 7 -8 7 -9c8 -10 42 -64 50 -75c4 -7 4 -8 4 -15
c0 -15 -13 -19 -33 -19c-17 0 -32 8 -39 19l-67 99l-4 -3c-8 -10 -12 -32 -73 -127c-3 -3 -18 -8 -22 -8c-16 0 -56 13 -46 31z" />
    <glyph glyph-name="scircumflex" unicode="&#x15d;" horiz-adv-x="412" 
d="M174 38c0 7 0 12 5 17c33 42 80 86 102 135v6l-131 -27h-15c-37 0 -121 8 -121 61c3 61 141 158 191 192c28 16 71 27 103 27c27 0 50 -8 50 -37c0 -12 1 -24 -14 -28c-87 8 -147 -46 -203 -105c-8 -9 -24 -31 -24 -34v-1c70 0 135 31 206 31c28 0 68 -7 68 -43
c0 -51 -49 -82 -152 -228c-3 -4 -15 -5 -22 -5c-19 0 -43 19 -43 39zM69 675l83 146l19 45c5 11 22 11 35 11c11 0 18 -1 26 -9c8 -13 52 -75 60 -86c1 -1 7 -8 7 -9c8 -10 42 -64 50 -75c4 -7 4 -8 4 -15c0 -15 -13 -19 -33 -19c-17 0 -32 8 -39 19l-67 99l-4 -3
c-8 -10 -12 -32 -73 -127c-3 -3 -18 -8 -22 -8c-16 0 -56 13 -46 31z" />
    <glyph glyph-name="Scedilla" unicode="&#x15e;" horiz-adv-x="549" 
d="M283 -227c0 7 0 12 5 17c33 41 131 12 152 67c21 48 -74 37 -92 34c-37 0 -121 8 -121 61c3 19 9 36 16 52c-11 -2 -21 -3 -32 -4c-19 0 -38 16 -38 36c43 60 105 47 157 86c29 16 119 71 119 97l-1 1c-1 0 -2 0 -2 1l-2 2c-7 3 -26 8 -29 9c-344 40 -399 55 -399 124
c0 26 23 69 36 84c43 54 147 82 214 101c37 3 76 24 113 29c19 0 32 -18 32 -34c0 -43 -38 -43 -73 -51l-22 -6c-26 -6 -62 -16 -66 -18c-83 -35 -152 -59 -149 -103v-1c40 -56 423 -15 427 -131c0 -15 -6 -38 -17 -49c-33 -37 -81 -79 -134 -114l-16 -10
c1 -13 -1 -31 -7 -52c-8 -9 -24 -31 -24 -34v-1c70 -14 178 25 220 -73c24 -114 -59 -103 -202 -154c-3 -4 -15 -5 -22 -5c-19 0 -43 19 -43 39z" />
    <glyph glyph-name="scedilla" unicode="&#x15f;" horiz-adv-x="429" 
d="M177 -19c0 7 0 12 5 17c33 42 80 86 102 135v6l-131 -27h-15c-37 0 -121 8 -121 61c3 61 141 158 191 192c28 16 71 27 103 27c27 0 50 -8 50 -37c0 -12 1 -24 -14 -28c-87 8 -147 -46 -203 -105c-8 -9 -24 -31 -24 -34v-1c70 0 135 31 206 31c28 0 68 -7 68 -43
c0 -25 -13 -46 -38 -79l-11 -14l2 -6c7 -22 3 -53 -11 -94v-1c70 -13 128 25 170 -73c24 -113 -10 -103 -152 -154c-3 -4 -15 -5 -22 -5c-19 0 -43 19 -43 39c0 7 0 12 5 17c33 41 131 12 152 67c21 48 -74 37 -92 34c-37 0 -81 8 -81 62l-2 20l-29 -41c-3 -4 -15 -5 -22 -5
c-19 0 -43 19 -43 39z" />
    <glyph glyph-name="Scaron" unicode="&#x160;" horiz-adv-x="549" 
d="M173 36c43 60 105 47 157 86c29 16 119 71 119 97c0 1 0 1 -1 1s-2 0 -2 1l-2 2c-7 3 -26 8 -29 9c-344 40 -399 55 -399 124c0 26 23 69 36 84c43 54 147 82 214 101c37 3 76 24 113 29c19 0 32 -18 32 -34c0 -43 -38 -43 -73 -51c-21 -5 -83 -21 -88 -24
c-83 -35 -152 -59 -149 -103v-1c40 -56 423 -15 427 -131c0 -15 -6 -38 -17 -49c-67 -75 -191 -169 -300 -177c-19 0 -38 16 -38 36zM225 664l-77 93c-9 12 28 20 43 20c3 0 17 -2 20 -5c56 -61 60 -74 67 -81l4 -2l62 63c7 8 19 12 36 12c19 0 30 -1 30 -12
c0 -4 0 -5 -4 -10c-4 -6 -39 -42 -46 -47c0 -1 -5 -6 -6 -6l-56 -55c-7 -5 -12 -6 -23 -6c-12 0 -28 0 -33 7c-3 5 -14 25 -17 29z" />
    <glyph glyph-name="scaron" unicode="&#x161;" horiz-adv-x="412" 
d="M174 38c0 7 0 12 5 17c33 42 80 86 102 135v6l-131 -27h-15c-37 0 -121 8 -121 61c3 61 141 158 191 192c28 16 71 27 103 27c27 0 50 -8 50 -37c0 -12 1 -24 -14 -28c-87 8 -147 -46 -203 -105c-8 -9 -24 -31 -24 -34v-1c70 0 135 31 206 31c28 0 68 -7 68 -43
c0 -51 -49 -82 -152 -228c-3 -4 -15 -5 -22 -5c-19 0 -43 19 -43 39zM156 553l-77 93c-9 12 28 20 43 20c3 0 17 -2 20 -5c56 -61 60 -74 67 -81l4 -2l62 63c7 8 19 12 36 12c19 0 30 -1 30 -12c0 -4 0 -5 -4 -10c-4 -6 -39 -42 -46 -47c0 -1 -5 -6 -6 -6l-56 -55
c-7 -5 -12 -6 -23 -6c-12 0 -28 0 -33 7c-3 5 -14 25 -17 29z" />
    <glyph glyph-name="Tcommaaccent" unicode="&#x162;" horiz-adv-x="449" 
d="M218 431v8c-3 22 -9 73 -9 72h-8l-114 -34c-7 -11 -26 -8 -34 -8c-19 0 -43 20 -43 40c0 15 11 31 26 36l161 51c4 15 15 34 34 34s29 -13 45 -18c23 3 127 29 148 34c16 3 20 8 37 8c23 0 53 -13 53 -40c0 -17 -14 -31 -31 -35l-190 -48v-9c0 -41 12 -81 9 -121l34 -309
v-22c0 -32 2 -70 -40 -70c-16 0 -39 15 -40 34zM285 -200c-38 29 36 90 -21 112c-38 22 -2 47 31 47c25 0 42 -10 42 -37c0 -4 0 -13 -1 -14c-5 -66 -1 -116 -51 -108z" />
    <glyph glyph-name="tcommaaccent" unicode="&#x163;" horiz-adv-x="441" 
d="M123 292h-4c-19 0 -31 -14 -51 -14c-3 0 -18 1 -21 1c-10 12 -31 14 -31 37c0 40 73 47 99 68v44c0 99 -14 199 -14 296c0 27 14 32 37 32c53 0 45 -70 48 -106c0 -35 10 -197 13 -232c11 3 69 24 81 29c35 15 72 38 111 38c27 0 41 -21 41 -45c0 -17 -16 -23 -31 -30
l-182 -68c-4 -3 -8 -4 -12 -8v-32c0 -47 1 -98 8 -145c7 -40 17 -78 17 -118c0 -12 -8 -39 -25 -39c-36 0 -60 23 -63 59c-7 69 -14 157 -21 233zM226 -260c-38 29 36 90 -21 112c-38 22 -2 47 31 47c25 0 42 -10 42 -37c0 -4 0 -13 -1 -14c-5 -66 -1 -116 -51 -108z" />
    <glyph glyph-name="Tcaron" unicode="&#x164;" horiz-adv-x="449" 
d="M218 431v8c-3 22 -9 73 -9 72h-8l-114 -34c-7 -11 -26 -8 -34 -8c-19 0 -43 20 -43 40c0 15 11 31 26 36l161 51c4 15 15 34 34 34s29 -13 45 -18c23 3 127 29 148 34c16 3 20 8 37 8c23 0 53 -13 53 -40c0 -17 -14 -31 -31 -35l-190 -48v-9c0 -41 12 -81 9 -121l34 -309
v-22c0 -32 2 -70 -40 -70c-16 0 -39 15 -40 34zM193 762l-77 93c-9 12 28 20 43 20c3 0 17 -2 20 -5c56 -61 60 -74 67 -81l4 -2l62 63c7 8 19 12 36 12c19 0 30 -1 30 -12c0 -4 0 -5 -4 -10c-4 -6 -39 -42 -46 -47c0 -1 -5 -6 -6 -6l-56 -55c-7 -5 -12 -6 -23 -6
c-12 0 -28 0 -33 7c-3 5 -14 25 -17 29z" />
    <glyph glyph-name="Tbar" unicode="&#x166;" horiz-adv-x="449" 
d="M102 404c0 23 19 31 38 35l77 7l-2 13c-1 17 -4 33 -5 44l-1 8h-8l-114 -34c-3 -5 -9 -8 -17 -8h-17c-19 0 -43 20 -43 40c0 15 11 31 26 36l161 51c4 15 15 34 34 34s29 -13 45 -18c23 3 127 29 148 34c16 3 20 8 37 8c23 0 53 -13 53 -40c0 -17 -14 -31 -31 -35
l-190 -48v-9c0 -21 2 -41 5 -61l1 -6l92 9c23 0 47 -5 47 -32c0 -11 -40 -38 -51 -32l-84 -9l33 -299v-22c0 -32 2 -70 -40 -70c-16 0 -39 15 -40 34l-34 348l-82 -9c-17 0 -38 12 -38 31z" />
    <glyph glyph-name="tbar" unicode="&#x167;" horiz-adv-x="400" 
d="M43 272c-3 23 16 33 35 38l58 19c-3 27 -4 51 -7 75h-4c-19 0 -31 -14 -51 -14c-3 0 -18 1 -21 1c-10 12 -31 14 -31 37c0 40 73 47 99 68v44c0 99 -14 82 -14 179c0 27 14 32 37 32c53 0 45 -70 48 -106c1 -35 10 -80 13 -115c11 3 69 24 81 29c34 13 18 19 58 19
c27 0 41 -21 41 -45c0 -17 -16 -23 -31 -30l-129 -49c-4 -3 -8 -4 -12 -8v-32c0 -23 3 -25 4 -49l128 37c60 3 52 -82 0 -77l-126 -46l2 -10c5 -39 11 -191 11 -230c0 -12 -8 -39 -25 -39c-36 0 -60 23 -63 59c-1 13 -2 57 -2 100v62c0 20 0 34 -1 42l-58 -19
c-17 -1 -39 9 -40 28z" />
    <glyph glyph-name="Utilde" unicode="&#x168;" 
d="M297 141c-29 -55 -86 -152 -157 -152c-91 0 -101 122 -101 190v26c4 31 18 176 22 207c-11 27 10 59 39 59c8 0 46 -13 46 -25v-38c-37 -286 -18 -325 -5 -338c31 -13 58 4 144 155c3 4 7 18 8 22c-3 88 0 178 4 266c5 13 19 22 32 22c11 0 48 -19 48 -35v-295
c9 -60 13 -121 22 -181c0 -12 15 -96 17 -106v-12c0 -24 -13 -37 -39 -39c-70 -8 -60 229 -80 274zM57 583c0 7 1 10 2 17c18 55 39 118 88 134c9 0 17 0 25 -11l57 -72c11 -7 16 -19 29 -19c9 0 18 20 22 27c16 24 23 64 49 64c15 0 18 -13 18 -32c0 -57 -41 -131 -80 -131
c-47 -3 -85 55 -120 85c-27 0 -44 -88 -64 -88c-9 0 -26 10 -26 26z" />
    <glyph glyph-name="utilde" unicode="&#x169;" horiz-adv-x="350" 
d="M225 83l-4 12c-19 -41 -32 -97 -85 -97c-92 0 -122 105 -122 177l8 242c-3 19 28 43 50 43c31 0 55 -21 55 -52v-10c-43 -70 -55 -300 -2 -316c21 0 112 44 104 377c5 15 16 13 27 13c12 0 19 1 28 -8c7 -7 17 -25 17 -26l17 -443c0 -20 -11 -35 -31 -35
c-12 0 -42 6 -45 23zM25 539c0 7 1 10 2 17c18 55 39 118 88 134c9 0 17 0 25 -11l57 -72c11 -7 16 -19 29 -19c9 0 18 20 22 27c16 24 23 64 49 64c15 0 18 -13 18 -32c0 -57 -41 -131 -80 -131c-47 -3 -85 55 -120 85c-27 0 -44 -88 -64 -88c-9 0 -26 10 -26 26z" />
    <glyph glyph-name="Umacron" unicode="&#x16a;" 
d="M297 141c-29 -55 -86 -152 -157 -152c-91 0 -101 122 -101 190v26c4 31 18 176 22 207c-11 27 10 59 39 59c8 0 46 -13 46 -25v-38c-37 -286 -18 -325 -5 -338c31 -13 58 4 144 155c3 4 7 18 8 22c-3 88 0 178 4 266c5 13 19 22 32 22c11 0 48 -19 48 -35v-295
c9 -60 13 -121 22 -181c0 -12 15 -96 17 -106v-12c0 -24 -13 -37 -39 -39c-70 -8 -60 229 -80 274zM51 631c0 23 19 31 38 35l251 25c23 0 47 -5 47 -32c0 -11 -40 -38 -51 -32l-247 -27c-17 0 -38 12 -38 31z" />
    <glyph glyph-name="umacron" unicode="&#x16b;" horiz-adv-x="350" 
d="M225 83l-4 12c-19 -41 -32 -97 -85 -97c-92 0 -122 105 -122 177l8 242c-3 19 28 43 50 43c31 0 55 -21 55 -52v-10c-43 -70 -55 -300 -2 -316c21 0 112 44 104 377c5 15 16 13 27 13c12 0 19 1 28 -8c7 -7 17 -25 17 -26l17 -443c0 -20 -11 -35 -31 -35
c-12 0 -42 6 -45 23zM8 714c0 23 19 31 38 35l251 25c23 0 47 -5 47 -32c0 -11 -40 -38 -51 -32l-247 -27c-17 0 -38 12 -38 31z" />
    <glyph glyph-name="Ubreve" unicode="&#x16c;" 
d="M297 141c-29 -55 -86 -152 -157 -152c-91 0 -101 122 -101 190v26c4 31 18 176 22 207c-11 27 10 59 39 59c8 0 46 -13 46 -25v-38c-37 -286 -18 -325 -5 -338c31 -13 58 4 144 155c3 4 7 18 8 22c-3 88 0 178 4 266c5 13 19 22 32 22c11 0 48 -19 48 -35v-295
c9 -60 13 -121 22 -181c0 -12 15 -96 17 -106v-12c0 -24 -13 -37 -39 -39c-70 -8 -60 229 -80 274zM218 610c-131 11 -92 108 -77 123c27 -105 165 -76 181 9c11 -60 -7 -140 -104 -132z" />
    <glyph glyph-name="ubreve" unicode="&#x16d;" horiz-adv-x="350" 
d="M225 83l-4 12c-19 -41 -32 -97 -85 -97c-92 0 -122 105 -122 177l8 242c-3 19 28 43 50 43c31 0 55 -21 55 -52v-10c-43 -70 -55 -300 -2 -316c21 0 112 44 104 377c5 15 16 13 27 13c12 0 19 1 28 -8c7 -7 17 -25 17 -26l17 -443c0 -20 -11 -35 -31 -35
c-12 0 -42 6 -45 23zM182 610c-131 11 -92 108 -77 123c27 -105 165 -76 181 9c11 -60 -7 -140 -104 -132z" />
    <glyph glyph-name="Uring" unicode="&#x16e;" 
d="M297 141c-29 -55 -86 -152 -157 -152c-91 0 -101 122 -101 190v26c4 31 18 176 22 207c-11 27 10 59 39 59c8 0 46 -13 46 -25v-38c-37 -286 -18 -325 -5 -338c31 -13 58 4 144 155c3 4 7 18 8 22c-3 88 0 178 4 266c5 13 19 22 32 22c11 0 48 -19 48 -35v-295
c9 -60 13 -121 22 -181c0 -12 15 -96 17 -106v-12c0 -24 -13 -37 -39 -39c-70 -8 -60 229 -80 274zM234 747h1c11 0 18 4 30 4c57 0 78 -54 78 -83c0 -35 -60 -94 -119 -94c-61 3 -145 61 10 173zM285 670c-3 67 -78 25 -81 -20c13 -40 84 -13 81 20z" />
    <glyph glyph-name="uring" unicode="&#x16f;" horiz-adv-x="350" 
d="M225 83l-4 12c-19 -41 -32 -97 -85 -97c-92 0 -122 105 -122 177l8 242c-3 19 28 43 50 43c31 0 55 -21 55 -52v-10c-43 -70 -55 -300 -2 -316c21 0 112 44 104 377c5 15 16 13 27 13c12 0 19 1 28 -8c7 -7 17 -25 17 -26l17 -443c0 -20 -11 -35 -31 -35
c-12 0 -42 6 -45 23zM166 684h1c11 0 18 4 30 4c57 0 78 -54 78 -83c0 -35 -60 -94 -119 -94c-61 3 -145 61 10 173zM217 607c-3 67 -78 25 -81 -20c13 -40 84 -13 81 20z" />
    <glyph glyph-name="Uhungarumlaut" unicode="&#x170;" 
d="M297 141c-29 -55 -86 -152 -157 -152c-91 0 -101 122 -101 190v26c4 31 18 176 22 207c-11 27 10 59 39 59c8 0 46 -13 46 -25v-38c-37 -286 -18 -325 -5 -338c31 -13 58 4 144 155c3 4 7 18 8 22c-3 88 0 178 4 266c5 13 19 22 32 22c11 0 48 -19 48 -35v-295
c9 -60 13 -121 22 -181c0 -12 15 -96 17 -106v-12c0 -24 -13 -37 -39 -39c-70 -8 -60 229 -80 274zM72 648c-8 69 45 70 81 129c20 16 37 10 52 -13c16 -24 -7 -41 -18 -57c-21 -26 -88 -110 -115 -59zM208 629c-8 69 45 70 81 129c20 16 37 10 52 -13
c16 -24 -7 -41 -18 -57c-21 -26 -88 -110 -115 -59z" />
    <glyph glyph-name="uhungarumlaut" unicode="&#x171;" horiz-adv-x="350" 
d="M225 83l-4 12c-19 -41 -32 -97 -85 -97c-92 0 -122 105 -122 177l8 242c-3 19 28 43 50 43c31 0 55 -21 55 -52v-10c-43 -70 -55 -300 -2 -316c21 0 112 44 104 377c5 15 16 13 27 13c12 0 19 1 28 -8c7 -7 17 -25 17 -26l17 -443c0 -20 -11 -35 -31 -35
c-12 0 -42 6 -45 23zM36 648c-8 69 45 70 81 129c20 16 37 10 52 -13c16 -24 -7 -41 -18 -57c-21 -26 -88 -110 -115 -59zM172 629c-8 69 45 70 81 129c20 16 37 10 52 -13c16 -24 -7 -41 -18 -57c-21 -26 -88 -110 -115 -59z" />
    <glyph glyph-name="Uogonek" unicode="&#x172;" 
d="M246 -212c0 93 16 139 40 158c11 9 23 13 36 12l-4 26c-8 63 -11 135 -21 157c-29 -55 -86 -152 -157 -152c-91 0 -101 122 -101 190v26c4 31 18 176 22 207c-11 27 10 59 39 59c8 0 46 -13 46 -25v-38c-37 -286 -18 -325 -5 -338c31 -13 58 4 144 155c3 4 7 18 8 22
c-3 88 0 178 4 266c5 13 19 22 32 22c11 0 48 -19 48 -35v-295c9 -60 13 -121 22 -181c0 -7 4 -30 8 -54l5 -33l4 -19v-12c0 -24 -13 -37 -39 -39c-11 -1 -21 4 -29 15l-6 11c-9 -20 -15 -38 -19 -55c-7 -30 -7 -57 0 -82c19 -19 48 -4 59 25c64 89 85 -94 -34 -106
c-65 0 -102 45 -102 113z" />
    <glyph glyph-name="uogonek" unicode="&#x173;" horiz-adv-x="350" 
d="M179 -171c0 93 16 139 40 158c6 5 13 9 20 11l-14 85l-4 12c-19 -41 -32 -97 -85 -97c-92 0 -122 105 -122 177l8 242c-3 19 28 43 50 43c31 0 55 -21 55 -52v-10c-43 -70 -55 -300 -2 -316c21 0 112 44 104 377c5 15 16 13 27 13c12 0 19 1 28 -8c7 -7 17 -25 17 -26
l17 -443c0 -20 -11 -35 -31 -35c-15 -30 -25 -57 -31 -81c-7 -30 -7 -57 0 -82c19 -19 48 -4 59 25c64 89 85 -94 -34 -106c-65 0 -102 45 -102 113z" />
    <glyph glyph-name="Wcircumflex" unicode="&#x174;" horiz-adv-x="517" 
d="M370 17l-127 325l-4 4c-8 -32 -8 -64 -9 -97c0 -20 -4 -115 -4 -135c-4 -16 -19 -30 -36 -30c-12 0 -46 7 -49 21l-63 221l-46 181c-3 3 -18 36 -18 46c0 19 23 31 38 31c25 0 40 -10 47 -31l55 -199c7 3 8 19 8 22c0 2 4 41 39 203c11 13 25 17 44 17c17 0 27 -3 31 -22
l68 -286l8 -22c16 132 16 154 56 426c4 27 26 30 50 30c1 0 8 -3 9 -4l16 -4c5 -12 10 -19 10 -30c-8 40 -61 -286 -77 -684c-9 0 -41 5 -46 17zM66 741l83 146l19 45c5 11 22 11 35 11c11 0 18 -1 26 -9c8 -13 52 -75 60 -86c1 -1 7 -8 7 -9c8 -10 42 -64 50 -75
c4 -7 4 -8 4 -15c0 -15 -13 -19 -33 -19c-17 0 -32 8 -39 19l-67 99l-4 -3c-8 -10 -12 -32 -73 -127c-3 -3 -18 -8 -22 -8c-16 0 -56 13 -46 31z" />
    <glyph glyph-name="wcircumflex" unicode="&#x175;" horiz-adv-x="507" 
d="M141 48c-8 31 -47 152 -116 391c0 3 -3 14 -3 17c3 16 31 17 42 16c29 -4 41 -18 50 -46l58 -191l4 -5c32 53 -4 148 71 169c16 0 40 -15 45 -31l54 -173l11 -15c11 48 37 237 42 274c0 3 1 11 1 14c11 12 32 19 47 16c12 -3 36 -21 36 -36l-57 -410
c-3 -16 -36 -19 -47 -19c-66 25 -87 118 -119 174l-4 1c-17 -17 -26 -150 -26 -154c-3 -19 -31 -31 -48 -28c-19 3 -33 21 -41 36zM116 675l83 146l19 45c5 11 22 11 35 11c11 0 18 -1 26 -9c8 -13 52 -75 60 -86c1 -1 7 -8 7 -9c8 -10 42 -64 50 -75c4 -7 4 -8 4 -15
c0 -15 -13 -19 -33 -19c-17 0 -32 8 -39 19l-67 99l-4 -3c-8 -10 -12 -32 -73 -127c-3 -3 -18 -8 -22 -8c-16 0 -56 13 -46 31z" />
    <glyph glyph-name="Ycircumflex" unicode="&#x176;" horiz-adv-x="424" 
d="M226 -6c3 14 12 82 14 97c7 60 20 119 20 179v15l-16 8c-11 5 -96 66 -123 90c-16 11 -79 70 -93 84c-11 11 -22 25 -22 40c0 23 21 32 41 32c13 0 29 -2 40 -13c51 -56 116 -116 181 -156l4 13l42 270c3 15 20 17 32 17c35 0 53 -15 53 -54v-2c0 -2 -8 -26 -8 -29
c-12 -49 -49 -389 -73 -553c3 -27 4 -76 -38 -76c-25 0 -46 14 -54 38zM52 701l83 146l19 45c5 11 22 11 35 11c11 0 18 -1 26 -9c8 -13 52 -75 60 -86c1 -1 7 -8 7 -9c8 -10 42 -64 50 -75c4 -7 4 -8 4 -15c0 -15 -13 -19 -33 -19c-17 0 -32 8 -39 19l-67 99l-4 -3
c-8 -10 -12 -32 -73 -127c-3 -3 -18 -8 -22 -8c-16 0 -56 13 -46 31z" />
    <glyph glyph-name="ycircumflex" unicode="&#x177;" horiz-adv-x="342" 
d="M223 -275c-5 55 -5 168 0 243v36c-13 18 -28 22 -172 236c-55 58 -26 77 -4 77c54 0 82 -54 109 -94c15 -23 55 -83 55 -84l12 -13v105c0 67 -4 129 -4 194c0 19 15 32 34 31c23 -3 31 -6 43 -22c11 -15 7 -36 8 -55c5 -127 9 -252 9 -379c-4 -39 3 -314 4 -313
c0 -20 -16 -29 -36 -29c-53 0 -45 33 -58 67zM34 675l83 146l19 45c5 11 22 11 35 11c11 0 18 -1 26 -9c8 -13 52 -75 60 -86c1 -1 7 -8 7 -9c8 -10 42 -64 50 -75c4 -7 4 -8 4 -15c0 -15 -13 -19 -33 -19c-17 0 -32 8 -39 19l-67 99l-4 -3c-8 -10 -12 -32 -73 -127
c-3 -3 -18 -8 -22 -8c-16 0 -56 13 -46 31z" />
    <glyph glyph-name="Ydieresis" unicode="&#x178;" horiz-adv-x="424" 
d="M226 -6c3 14 12 82 14 97c7 60 20 119 20 179v15l-16 8c-11 5 -96 66 -123 90c-16 11 -79 70 -93 84c-11 11 -22 25 -22 40c0 23 21 32 41 32c13 0 29 -2 40 -13c51 -56 116 -116 181 -156l4 13l42 270c3 15 20 17 32 17c35 0 53 -15 53 -54v-2c0 -2 -8 -26 -8 -29
c-12 -49 -49 -389 -73 -553c3 -27 4 -76 -38 -76c-25 0 -46 14 -54 38zM71 710c0 19 16 38 35 38c23 0 35 -14 48 -29v-3c0 -23 -17 -44 -42 -44c-17 0 -41 19 -41 38zM200 710c0 19 16 38 35 38c23 0 35 -14 48 -29v-3c0 -23 -17 -44 -42 -44c-17 0 -41 19 -41 38z" />
    <glyph glyph-name="Zacute" unicode="&#x179;" horiz-adv-x="748" 
d="M74 36v2c0 3 3 10 4 13c11 19 60 88 235 367h-28l-195 -30h-10c-20 0 -57 20 -57 40c0 40 49 37 76 37l215 29c1 0 23 1 30 1c36 0 84 5 84 -43c0 -13 -11 -27 -20 -34l-165 -265c-20 -13 -28 -46 -43 -65c3 -4 7 -4 11 -4h6l469 64c17 0 46 -10 46 -33
c0 -20 -8 -31 -25 -43c-70 0 -223 -5 -557 -72c-2 -1 -4 -1 -7 -1h-9c-20 0 -60 9 -60 37zM303 629c-8 69 45 70 81 129c20 16 37 10 52 -13c16 -24 -7 -41 -18 -57c-21 -26 -88 -110 -115 -59z" />
    <glyph glyph-name="zacute" unicode="&#x17a;" horiz-adv-x="752" 
d="M125 40c0 3 1 10 2 11l143 271c8 19 26 74 26 79v11c-88 0 -218 -112 -274 0c0 16 25 27 37 27c3 0 22 -4 25 -4c78 8 154 55 229 50c31 0 84 2 84 -42c0 -19 -6 -40 -17 -55l-118 -274v-9l72 34h4l326 102h16c22 0 59 -6 59 -35c8 -54 -238 -53 -473 -180
c-8 3 -73 -27 -89 -27c-21 0 -52 17 -52 41zM305 629c-8 69 45 70 81 129c20 16 37 10 52 -13c16 -24 -7 -41 -18 -57c-21 -26 -88 -110 -115 -59z" />
    <glyph glyph-name="Zdotaccent" unicode="&#x17b;" horiz-adv-x="748" 
d="M74 36v2c0 3 3 10 4 13c11 19 60 88 235 367h-28l-195 -30h-10c-20 0 -57 20 -57 40c0 40 49 37 76 37l215 29c1 0 23 1 30 1c36 0 84 5 84 -43c0 -13 -11 -27 -20 -34l-165 -265c-20 -13 -28 -46 -43 -65c3 -4 7 -4 11 -4h6l469 64c17 0 46 -10 46 -33
c0 -20 -8 -31 -25 -43c-70 0 -223 -5 -557 -72c-2 -1 -4 -1 -7 -1h-9c-20 0 -60 9 -60 37zM242 623c0 29 26 64 53 64c33 0 53 -24 72 -49v-5c0 -37 -24 -74 -63 -74c-27 0 -62 35 -62 64z" />
    <glyph glyph-name="zdotaccent" unicode="&#x17c;" horiz-adv-x="752" 
d="M125 40c0 3 1 10 2 11l143 271c8 19 26 74 26 79v11c-88 0 -218 -112 -274 0c0 16 25 27 37 27c3 0 22 -4 25 -4c78 8 154 55 229 50c31 0 84 2 84 -42c0 -19 -6 -40 -17 -55l-118 -274v-9l72 34h4l326 102h16c22 0 59 -6 59 -35c8 -54 -238 -53 -473 -180
c-8 3 -73 -27 -89 -27c-21 0 -52 17 -52 41zM154 637c0 29 26 64 53 64c33 0 53 -24 72 -49v-5c0 -37 -24 -74 -63 -74c-27 0 -62 35 -62 64z" />
    <glyph glyph-name="Zcaron" unicode="&#x17d;" horiz-adv-x="748" 
d="M74 36v2c0 3 3 10 4 13c11 19 60 88 235 367h-28l-195 -30h-10c-20 0 -57 20 -57 40c0 40 49 37 76 37l215 29c1 0 23 1 30 1c36 0 84 5 84 -43c0 -13 -11 -27 -20 -34l-165 -265c-20 -13 -28 -46 -43 -65c3 -4 7 -4 11 -4h6l469 64c17 0 46 -10 46 -33
c0 -20 -8 -31 -25 -43c-70 0 -223 -5 -557 -72c-2 -1 -4 -1 -7 -1h-9c-20 0 -60 9 -60 37zM324 664l-77 93c-9 12 28 20 43 20c3 0 17 -2 20 -5c56 -61 60 -74 67 -81l4 -2l62 63c7 8 19 12 36 12c19 0 30 -1 30 -12c0 -4 0 -5 -4 -10c-4 -6 -39 -42 -46 -47
c0 -1 -5 -6 -6 -6l-56 -55c-7 -5 -12 -6 -23 -6c-12 0 -28 0 -33 7c-3 5 -14 25 -17 29z" />
    <glyph glyph-name="zcaron" unicode="&#x17e;" horiz-adv-x="752" 
d="M125 40c0 3 1 10 2 11l143 271c8 19 26 74 26 79v11c-88 0 -218 -112 -274 0c0 16 25 27 37 27c3 0 22 -4 25 -4c78 8 154 55 229 50c31 0 84 2 84 -42c0 -19 -6 -40 -17 -55l-118 -274v-9l72 34h4l326 102h16c22 0 59 -6 59 -35c8 -54 -238 -53 -473 -180
c-8 3 -73 -27 -89 -27c-21 0 -52 17 -52 41zM326 664l-77 93c-9 12 28 20 43 20c3 0 17 -2 20 -5c56 -61 60 -74 67 -81l4 -2l62 63c7 8 19 12 36 12c19 0 30 -1 30 -12c0 -4 0 -5 -4 -10c-4 -6 -39 -42 -46 -47c0 -1 -5 -6 -6 -6l-56 -55c-7 -5 -12 -6 -23 -6
c-12 0 -28 0 -33 7c-3 5 -14 25 -17 29z" />
    <glyph glyph-name="florin" unicode="&#x192;" horiz-adv-x="293" 
d="M70 208l-4 8c-59 -11 -63 52 -52 60c4 1 23 14 26 17c1 0 1 0 2 1l3 3v18c0 75 -13 147 -13 220c0 96 -2 222 123 222h19c20 0 44 -6 44 -30c0 -49 -54 -15 -81 -50c-3 -3 -8 -18 -8 -22c-5 -18 -12 -72 -12 -75v-8c0 -8 -1 -21 -1 -34v-54c0 -37 3 -67 9 -111h8l135 80
c19 4 31 17 50 17s44 -9 44 -29c0 -15 -9 -18 -13 -30c-5 -1 -25 -10 -30 -13l-118 -72c-14 -10 -39 -28 -53 -40l-7 -5v-10l57 -450c7 -24 -15 -42 -36 -42c-291 0 -139 91 -78 91c12 1 19 -2 22 -7z" />
    <glyph glyph-name="AEacute" unicode="&#x1fc;" horiz-adv-x="710" 
d="M360 77c-5 20 -10 40 -13 59l-64 138h-9c-51 -39 -109 -78 -169 -105c-9 -48 -11 -98 -8 -147c-11 -15 -19 -22 -38 -22c-27 0 -34 22 -34 43v20c0 80 14 158 22 237c0 8 8 64 8 72v4l42 312c-3 27 7 51 38 51c68 8 81 -58 102 -97c13 -38 38 -94 89 -254l4 -4l4 2v19
c0 26 -9 145 -12 169c-1 23 -17 37 -17 60c0 43 15 58 59 58c9 0 14 -12 22 -12h4c4 1 14 4 17 4c223 96 233 101 249 93c16 -3 21 -9 21 -24c0 -13 -2 -28 -17 -35l-131 -63l-4 -4l-110 -47c-8 -3 -8 -16 -8 -23c0 -20 11 -130 14 -130h1l1 1c29 21 146 118 148 118
c15 0 29 -18 29 -34s-6 -39 -21 -50l-88 -79c-11 -13 -25 -22 -48 -42l-20 -18v-5c0 -7 -1 -15 -1 -24v-10c0 -48 10 -95 10 -143h4c1 0 16 14 21 21s35 48 160 203c5 5 18 20 21 20c4 4 21 3 26 0c7 -3 21 -17 21 -28c0 -32 -78 -112 -102 -144
c-38 -59 -103 -183 -185 -183c-20 0 -25 6 -38 23zM114 283v-26c40 16 78 46 113 69c4 3 11 5 16 9l10 7v8l-92 262l-4 4c-8 -16 -24 -157 -43 -333zM264 799c-8 69 45 70 81 129c20 16 37 10 52 -13c16 -24 -7 -41 -18 -57c-21 -26 -88 -110 -115 -59z" />
    <glyph glyph-name="aeacute" unicode="&#x1fd;" horiz-adv-x="722" 
d="M708 330c-8 -72 -14 -31 -175 -192c-43 -41 -90 -88 -149 -88h-15v-1c1 -5 1 -12 1 -19c0 -20 -13 -30 -32 -30c-39 0 -52 23 -57 59c0 4 -10 89 -13 123v4c-3 13 -2 35 -5 54l-3 34l-4 5c-35 -63 -102 -225 -177 -237c-20 0 -61 6 -61 34c3 271 71 450 250 498
c3 0 12 1 15 1c40 1 55 -35 63 -118c3 -22 5 -48 6 -77l4 11l8 22c19 45 43 98 99 98c33 0 101 -67 101 -99c0 -40 -42 -66 -69 -87c-1 0 -6 -4 -9 -5l-12 -12l-12 -13c-7 -7 -52 -41 -60 -46l-4 -8c-4 -9 -12 -82 -12 -111c0 -1 0 -1 1 -2s2 -2 3 -2c11 0 19 13 30 17
l160 148l41 63c14 20 87 53 87 -24zM234 477c-36 -27 -75 -77 -90 -120c-14 -41 -32 -150 -32 -167c1 0 4 4 5 5c83 80 112 171 117 282zM422 365l66 43c14 11 -10 50 -26 26c-8 -11 -47 -74 -40 -69zM290 629c-8 69 45 70 81 129c20 16 37 10 52 -13c16 -24 -7 -41 -18 -57
c-21 -26 -88 -110 -115 -59z" />
    <glyph glyph-name="Oslashacute" unicode="&#x1fe;" horiz-adv-x="330" 
d="M63 -37v3c3 25 7 48 12 71c-7 7 -13 15 -18 23c-23 36 -35 80 -35 117c4 25 -17 311 52 440c8 36 38 47 94 50c17 0 31 -4 43 -12l12 53c4 19 12 24 33 24h2c23 -11 27 -13 27 -34c0 -13 -4 -28 -7 -40c-2 -6 -14 -55 -17 -61v-4l9 -19l18 -43v-5c14 -40 17 -150 17 -226
v-61c0 -81 -41 -239 -146 -239c-11 0 -21 1 -30 3c-2 -14 -4 -29 -7 -44c-3 -12 -17 -18 -30 -18s-29 9 -29 22zM175 598c-1 -1 -4 -7 -4 -8c-43 -53 -73 -162 -71 -316c1 -27 3 -56 7 -86l85 382c-5 13 -10 23 -17 28zM153 76h8c56 51 68 119 68 192c0 17 -1 56 -5 100
l-4 49l-63 -276l-12 -64c3 -1 5 -1 8 -1zM75 750c-8 69 45 70 81 129c20 16 37 10 52 -13c16 -24 -7 -41 -18 -57c-21 -26 -88 -110 -115 -59z" />
    <glyph glyph-name="oslashacute" unicode="&#x1ff;" horiz-adv-x="338" 
d="M86 -42v2c2 17 5 33 9 48c-3 1 -6 3 -9 5c-42 28 -60 83 -60 137v3l37 257c3 17 17 25 33 25c29 0 45 -19 57 -43h1c16 0 26 9 45 9h1l32 117c3 13 11 18 30 18h2c21 -8 25 -10 25 -26c0 -9 -4 -21 -7 -30l-15 -46v-2l-14 -51c45 -39 64 -115 64 -168
c0 -61 -51 -149 -114 -192c-18 -13 -36 -20 -54 -21l-9 -45c-4 -9 -16 -14 -28 -14s-26 6 -26 17zM98 629c-8 69 45 70 81 129c20 16 37 10 52 -13c16 -24 -7 -41 -18 -57c-21 -26 -88 -110 -115 -59zM110 150v-3c1 -7 3 -14 4 -23c1 -8 3 -15 5 -22l61 226l-7 -3
c-14 -6 -28 -23 -42 -51c-16 -35 -21 -85 -21 -124zM176 106l5 5c29 29 60 66 60 108c3 23 1 43 -5 62c-2 6 -4 12 -7 17z" />
    <glyph glyph-name="Scommaaccent" unicode="&#x218;" horiz-adv-x="549" 
d="M386 -181c-38 29 36 90 -21 112c-38 22 -2 47 31 47c25 0 42 -10 42 -37c0 -4 0 -13 -1 -14c-5 -66 -1 -116 -51 -108zM173 36c43 60 105 47 157 86c29 16 119 71 119 97c0 1 0 1 -1 1s-2 0 -2 1l-2 2c-7 3 -26 8 -29 9c-344 40 -399 55 -399 124c0 26 23 69 36 84
c43 54 147 82 214 101c37 3 76 24 113 29c19 0 32 -18 32 -34c0 -43 -38 -43 -73 -51c-21 -5 -83 -21 -88 -24c-83 -35 -152 -59 -149 -103v-1c40 -56 423 -15 427 -131c0 -15 -6 -38 -17 -49c-67 -75 -191 -169 -300 -177c-19 0 -38 16 -38 36z" />
    <glyph glyph-name="scommaaccent" unicode="&#x219;" horiz-adv-x="412" 
d="M174 38c0 7 0 12 5 17c33 42 80 86 102 135v6l-131 -27h-15c-37 0 -121 8 -121 61c3 61 141 158 191 192c28 16 71 27 103 27c27 0 50 -8 50 -37c0 -12 1 -24 -14 -28c-87 8 -147 -46 -203 -105c-8 -9 -24 -31 -24 -34v-1c70 0 135 31 206 31c28 0 68 -7 68 -43
c0 -51 -49 -82 -152 -228c-3 -4 -15 -5 -22 -5c-19 0 -43 19 -43 39zM208 -181c-38 29 36 90 -21 112c-38 22 -2 47 31 47c25 0 42 -10 42 -37c0 -4 0 -13 -1 -14c-5 -66 -1 -116 -51 -108z" />
    <glyph glyph-name="circumflex" unicode="&#x2c6;" horiz-adv-x="354" 
d="M32 675l83 146l19 45c5 11 22 11 35 11c11 0 18 -1 26 -9c8 -13 52 -75 60 -86c1 -1 7 -8 7 -9c8 -10 42 -64 50 -75c4 -7 4 -8 4 -15c0 -15 -13 -19 -33 -19c-17 0 -32 8 -39 19l-67 99l-4 -3c-8 -10 -12 -32 -73 -127c-3 -3 -18 -8 -22 -8c-16 0 -56 13 -46 31z" />
    <glyph glyph-name="caron" unicode="&#x2c7;" horiz-adv-x="354" 
d="M134 664l-77 93c-9 12 28 20 43 20c3 0 17 -2 20 -5c56 -61 60 -74 67 -81l4 -2l62 63c7 8 19 12 36 12c19 0 30 -1 30 -12c0 -4 0 -5 -4 -10c-4 -6 -39 -42 -46 -47c0 -1 -5 -6 -6 -6l-56 -55c-7 -5 -12 -6 -23 -6c-12 0 -28 0 -33 7c-3 5 -14 25 -17 29z" />
    <glyph glyph-name="breve" unicode="&#x2d8;" horiz-adv-x="279" 
d="M138 610c-131 11 -92 108 -77 123c27 -105 165 -76 181 9c11 -60 -7 -140 -104 -132z" />
    <glyph glyph-name="dotaccent" unicode="&#x2d9;" horiz-adv-x="173" 
d="M22 577c0 29 26 64 53 64c33 0 53 -24 72 -49v-5c0 -37 -24 -74 -63 -74c-27 0 -62 35 -62 64z" />
    <glyph glyph-name="ring" unicode="&#x2da;" horiz-adv-x="279" 
d="M136 747h1c11 0 18 4 30 4c57 0 78 -54 78 -83c0 -35 -60 -94 -119 -94c-61 3 -145 61 10 173zM187 670c-3 67 -78 25 -81 -20c13 -40 84 -13 81 20z" />
    <glyph glyph-name="ogonek" unicode="&#x2db;" horiz-adv-x="328" 
d="M57 -135c0 188 65 180 126 159c-1 0 -4 -3 -5 -4c-44 -80 -57 -138 -44 -187c19 -19 48 -4 59 25c64 89 85 -94 -34 -106c-65 0 -102 45 -102 113z" />
    <glyph glyph-name="tilde" unicode="&#x2dc;" horiz-adv-x="408" 
d="M39 502c0 7 1 10 2 17c18 55 39 118 88 134c9 0 17 0 25 -11l57 -72c11 -7 16 -19 29 -19c9 0 18 20 22 27c16 24 23 64 49 64c15 0 18 -13 18 -32c0 -57 -41 -131 -80 -131c-47 -3 -85 55 -120 85c-27 0 -44 -88 -64 -88c-9 0 -26 10 -26 26z" />
    <glyph glyph-name="hungarumlaut" unicode="&#x2dd;" horiz-adv-x="316" 
d="M17 648c-8 69 45 70 81 129c20 16 37 10 52 -13c16 -24 -7 -41 -18 -57c-21 -26 -88 -110 -115 -59zM153 629c-8 69 45 70 81 129c20 16 37 10 52 -13c16 -24 -7 -41 -18 -57c-21 -26 -88 -110 -115 -59z" />
    <glyph glyph-name="Wgrave" unicode="&#x1e80;" horiz-adv-x="517" 
d="M370 17l-127 325l-4 4c-8 -32 -8 -64 -9 -97c0 -20 -4 -115 -4 -135c-4 -16 -19 -30 -36 -30c-12 0 -46 7 -49 21l-63 221l-46 181c-3 3 -18 36 -18 46c0 19 23 31 38 31c25 0 40 -10 47 -31l55 -199c7 3 8 19 8 22c0 2 4 41 39 203c11 13 25 17 44 17c17 0 27 -3 31 -22
l68 -286l8 -22c16 132 16 154 56 426c4 27 26 30 50 30c1 0 8 -3 9 -4l16 -4c5 -12 10 -19 10 -30c-8 40 -61 -286 -77 -684c-9 0 -41 5 -46 17zM297 671c-29 -47 -101 30 -123 55c-14 14 -34 32 -19 53c15 20 34 27 55 12c39 -54 95 -57 87 -120z" />
    <glyph glyph-name="wgrave" unicode="&#x1e81;" horiz-adv-x="507" 
d="M141 48c-8 31 -47 152 -116 391c0 3 -3 14 -3 17c3 16 31 17 42 16c29 -4 41 -18 50 -46l58 -191l4 -5c32 53 -4 148 71 169c16 0 40 -15 45 -31l54 -173l11 -15c11 48 37 237 42 274c0 3 1 11 1 14c11 12 32 19 47 16c12 -3 36 -21 36 -36l-57 -410
c-3 -16 -36 -19 -47 -19c-66 25 -87 118 -119 174l-4 1c-17 -17 -26 -150 -26 -154c-3 -19 -31 -31 -48 -28c-19 3 -33 21 -41 36zM329 608c-29 -47 -101 30 -123 55c-14 14 -34 32 -19 53c15 20 34 27 55 12c39 -54 95 -57 87 -120z" />
    <glyph glyph-name="Wacute" unicode="&#x1e82;" horiz-adv-x="517" 
d="M370 17l-127 325l-4 4c-8 -32 -8 -64 -9 -97c0 -20 -4 -115 -4 -135c-4 -16 -19 -30 -36 -30c-12 0 -46 7 -49 21l-63 221l-46 181c-3 3 -18 36 -18 46c0 19 23 31 38 31c25 0 40 -10 47 -31l55 -199c7 3 8 19 8 22c0 2 4 41 39 203c11 13 25 17 44 17c17 0 27 -3 31 -22
l68 -286l8 -22c16 132 16 154 56 426c4 27 26 30 50 30c1 0 8 -3 9 -4l16 -4c5 -12 10 -19 10 -30c-8 40 -61 -286 -77 -684c-9 0 -41 5 -46 17zM188 670c-8 69 45 70 81 129c20 16 37 10 52 -13c16 -24 -7 -41 -18 -57c-21 -26 -88 -110 -115 -59z" />
    <glyph glyph-name="wacute" unicode="&#x1e83;" horiz-adv-x="507" 
d="M141 48c-8 31 -47 152 -116 391c0 3 -3 14 -3 17c3 16 31 17 42 16c29 -4 41 -18 50 -46l58 -191l4 -5c32 53 -4 148 71 169c16 0 40 -15 45 -31l54 -173l11 -15c11 48 37 237 42 274c0 3 1 11 1 14c11 12 32 19 47 16c12 -3 36 -21 36 -36l-57 -410
c-3 -16 -36 -19 -47 -19c-66 25 -87 118 -119 174l-4 1c-17 -17 -26 -150 -26 -154c-3 -19 -31 -31 -48 -28c-19 3 -33 21 -41 36zM183 629c-8 69 45 70 81 129c20 16 37 10 52 -13c16 -24 -7 -41 -18 -57c-21 -26 -88 -110 -115 -59z" />
    <glyph glyph-name="Wdieresis" unicode="&#x1e84;" horiz-adv-x="517" 
d="M370 17l-127 325l-4 4c-8 -32 -8 -64 -9 -97c0 -20 -4 -115 -4 -135c-4 -16 -19 -30 -36 -30c-12 0 -46 7 -49 21l-63 221l-46 181c-3 3 -18 36 -18 46c0 19 23 31 38 31c25 0 40 -10 47 -31l55 -199c7 3 8 19 8 22c0 2 4 41 39 203c11 13 25 17 44 17c17 0 27 -3 31 -22
l68 -286l8 -22c16 132 16 154 56 426c4 27 26 30 50 30c1 0 8 -3 9 -4l16 -4c5 -12 10 -19 10 -30c-8 40 -61 -286 -77 -684c-9 0 -41 5 -46 17zM152 710c0 19 16 38 35 38c23 0 35 -14 48 -29v-3c0 -23 -17 -44 -42 -44c-17 0 -41 19 -41 38zM281 710c0 19 16 38 35 38
c23 0 35 -14 48 -29v-3c0 -23 -17 -44 -42 -44c-17 0 -41 19 -41 38z" />
    <glyph glyph-name="wdieresis" unicode="&#x1e85;" horiz-adv-x="507" 
d="M141 48c-8 31 -47 152 -116 391c0 3 -3 14 -3 17c3 16 31 17 42 16c29 -4 41 -18 50 -46l58 -191l4 -5c32 53 -4 148 71 169c16 0 40 -15 45 -31l54 -173l11 -15c11 48 37 237 42 274c0 3 1 11 1 14c11 12 32 19 47 16c12 -3 36 -21 36 -36l-57 -410
c-3 -16 -36 -19 -47 -19c-66 25 -87 118 -119 174l-4 1c-17 -17 -26 -150 -26 -154c-3 -19 -31 -31 -48 -28c-19 3 -33 21 -41 36zM147 710c0 19 16 38 35 38c23 0 35 -14 48 -29v-3c0 -23 -17 -44 -42 -44c-17 0 -41 19 -41 38zM276 710c0 19 16 38 35 38
c23 0 35 -14 48 -29v-3c0 -23 -17 -44 -42 -44c-17 0 -41 19 -41 38z" />
    <glyph glyph-name="Ygrave" unicode="&#x1ef2;" horiz-adv-x="424" 
d="M226 -6c3 14 12 82 14 97c7 60 20 119 20 179v15l-16 8c-11 5 -96 66 -123 90c-16 11 -79 70 -93 84c-11 11 -22 25 -22 40c0 23 21 32 41 32c13 0 29 -2 40 -13c51 -56 116 -116 181 -156l4 13l42 270c3 15 20 17 32 17c35 0 53 -15 53 -54v-2c0 -2 -8 -26 -8 -29
c-12 -49 -49 -389 -73 -553c3 -27 4 -76 -38 -76c-25 0 -46 14 -54 38zM244 657c-29 -47 -101 30 -123 55c-14 14 -34 32 -19 53c15 20 34 27 55 12c39 -54 95 -57 87 -120z" />
    <glyph glyph-name="ygrave" unicode="&#x1ef3;" horiz-adv-x="342" 
d="M223 -275c-5 55 -5 168 0 243v36c-13 18 -28 22 -172 236c-55 58 -26 77 -4 77c54 0 82 -54 109 -94c15 -23 55 -83 55 -84l12 -13v105c0 67 -4 129 -4 194c0 19 15 32 34 31c23 -3 31 -6 43 -22c11 -15 7 -36 8 -55c5 -127 9 -252 9 -379c-4 -39 3 -314 4 -313
c0 -20 -16 -29 -36 -29c-53 0 -45 33 -58 67zM246 608c-29 -47 -101 30 -123 55c-14 14 -34 32 -19 53c15 20 34 27 55 12c39 -54 95 -57 87 -120z" />
    <glyph glyph-name="endash" unicode="&#x2013;" horiz-adv-x="409" 
d="M54 253c0 23 19 31 38 35l251 25c23 0 47 -5 47 -32c0 -11 -40 -38 -51 -32l-247 -27c-17 0 -38 12 -38 31z" />
    <glyph glyph-name="emdash" unicode="&#x2014;" horiz-adv-x="621" 
d="M54 253c0 23 19 31 38 35l391 31c23 0 47 -5 47 -32c0 -11 -40 -38 -51 -32l-387 -33c-17 0 -38 12 -38 31z" />
    <glyph glyph-name="quoteleft" unicode="&#x2018;" horiz-adv-x="129" 
d="M23 489v16c0 19 8 106 8 127c5 17 15 25 32 25c29 0 40 -18 40 -45c0 -24 -7 -204 -37 -200c-36 5 -43 49 -43 77z" />
    <glyph glyph-name="quoteright" unicode="&#x2019;" horiz-adv-x="129" 
d="M23 489v16c0 19 8 106 8 127c5 17 15 25 32 25c29 0 40 -18 40 -45c0 -24 -7 -204 -37 -200c-36 5 -43 49 -43 77z" />
    <glyph glyph-name="quotesinglbase" unicode="&#x201a;" horiz-adv-x="129" 
d="M17 68v16c0 19 8 106 8 127c5 17 15 25 32 25c29 0 40 -18 40 -45c0 -24 -7 -204 -37 -200c-36 5 -43 49 -43 77z" />
    <glyph glyph-name="quotedblleft" unicode="&#x201c;" horiz-adv-x="253" 
d="M147 676c-5 21 13 30 30 30c23 0 34 -18 38 -38c3 -31 12 -169 12 -199v-23c0 -25 0 -29 -24 -40h-3c-48 0 -37 94 -40 121c-3 24 -10 125 -13 149zM43 493v13c3 45 12 154 12 156l8 25c0 1 11 2 15 2c39 0 41 -23 41 -58c0 -67 -6 -136 -14 -201c-1 -12 -7 -18 -19 -18
c-35 0 -43 57 -43 81z" />
    <glyph glyph-name="quotedblright" unicode="&#x201d;" horiz-adv-x="253" 
d="M147 676c-5 21 13 30 30 30c23 0 34 -18 38 -38c3 -31 12 -169 12 -199v-23c0 -25 0 -29 -24 -40h-3c-48 0 -37 94 -40 121c-3 24 -10 125 -13 149zM43 493v13c3 45 12 154 12 156l8 25c0 1 11 2 15 2c39 0 41 -23 41 -58c0 -67 -6 -136 -14 -201c-1 -12 -7 -18 -19 -18
c-35 0 -43 57 -43 81z" />
    <glyph glyph-name="quotedblbase" unicode="&#x201e;" horiz-adv-x="253" 
d="M139 247c-5 21 13 30 30 30c23 0 34 -18 38 -38c3 -31 12 -169 12 -199v-23c0 -25 0 -29 -24 -40h-3c-48 0 -37 94 -40 121c-3 24 -10 125 -13 149zM35 64v13c3 45 12 154 12 156l8 25c0 1 11 2 15 2c39 0 41 -23 41 -58c0 -67 -6 -136 -14 -201c-1 -12 -7 -18 -19 -18
c-35 0 -43 57 -43 81z" />
    <glyph glyph-name="dagger" unicode="&#x2020;" horiz-adv-x="403" 
d="M129 458h-4c-19 0 -31 -14 -51 -14c-3 0 -18 1 -21 1c-10 12 -31 14 -31 37c0 40 73 47 99 68v44c0 98 -14 120 -14 216c0 27 14 32 37 32c53 0 45 -70 48 -106c0 -35 10 -117 13 -152c11 3 69 24 81 29c34 13 9 8 49 8c27 0 41 -21 41 -45c0 -17 -16 -23 -31 -30
l-120 -38c-4 -3 -8 -4 -12 -8v-32c0 -47 1 -98 8 -145c4 -41 23 -254 23 -295c0 -12 -8 -39 -25 -39c-36 0 -60 23 -63 59c-8 69 -19 334 -27 410z" />
    <glyph glyph-name="daggerdbl" unicode="&#x2021;" horiz-adv-x="403" 
d="M39 337c0 23 19 31 38 35l57 17c-3 29 -4 53 -5 69h-4c-19 0 -31 -14 -51 -14c-3 0 -18 1 -21 1c-10 12 -31 14 -31 37c0 40 73 47 99 68v44c0 98 -14 120 -14 216c0 27 14 32 37 32c53 0 45 -70 48 -106c0 -35 10 -117 13 -152c11 3 69 24 81 29c34 13 9 8 49 8
c27 0 41 -21 41 -45c0 -17 -16 -23 -31 -30l-120 -38c-4 -3 -8 -4 -12 -8v-32c0 -19 0 -36 1 -55l131 39c23 0 47 -5 47 -32c0 -11 -40 -38 -51 -32l-123 -38l3 -27c4 -41 23 -254 23 -295c0 -12 -8 -39 -25 -39c-36 0 -60 23 -63 59c-5 44 -13 173 -18 277l-61 -19
c-17 0 -38 12 -38 31z" />
    <glyph glyph-name="bullet" unicode="&#x2022;" horiz-adv-x="265" 
d="M51 294c0 38 35 80 72 80c45 0 72 -29 99 -61v-6c0 -47 -35 -93 -87 -93c-36 0 -84 42 -84 80z" />
    <glyph glyph-name="ellipsis" unicode="&#x2026;" horiz-adv-x="387" 
d="M22 38c0 19 16 38 35 38c23 0 35 -14 48 -29v-3c0 -23 -17 -44 -42 -44c-17 0 -41 19 -41 38zM151 38c0 19 16 38 35 38c23 0 35 -14 48 -29v-3c0 -23 -17 -44 -42 -44c-17 0 -41 19 -41 38zM280 38c0 19 16 38 35 38c23 0 35 -14 48 -29v-3c0 -23 -17 -44 -42 -44
c-17 0 -41 19 -41 38z" />
    <glyph glyph-name="guilsinglleft" unicode="&#x2039;" horiz-adv-x="453" 
d="M190 119c-7 0 -67 -4 -74 -4h-30c-32 0 -73 4 -73 46c0 19 14 27 26 42c8 11 52 64 59 76c4 13 17 20 22 33l105 165c17 25 13 65 50 65c29 0 48 -25 51 -52c1 -3 -1 -10 -4 -13l-126 -198c-13 -29 -60 -62 -60 -92c87 0 167 -5 254 -14c9 -17 37 -13 37 -40
s-14 -40 -41 -40c-19 0 -27 9 -43 12c-51 11 -101 14 -153 14z" />
    <glyph glyph-name="guilsinglright" unicode="&#x203a;" horiz-adv-x="431" 
d="M106 109c0 18 27 38 42 46l160 224c3 4 4 8 4 11v3l-274 105c-4 0 -22 29 -22 34c-3 20 41 28 50 28c104 -61 223 -80 335 -131c9 -12 13 -17 13 -28c0 -27 -23 -43 -38 -64c-64 -91 -104 -166 -187 -249c-3 -4 -20 -14 -25 -17c-21 -5 -58 11 -58 38z" />
    <glyph glyph-name="fraction" unicode="&#x2044;" horiz-adv-x="410" 
d="M84 -32v3c7 64 18 117 30 181v8l143 739c4 23 13 30 36 30h2c25 -13 30 -16 30 -43c0 -16 -5 -34 -8 -50c-3 -8 -15 -68 -18 -76v-4l-113 -566c-12 -76 -27 -151 -38 -227c-4 -16 -18 -23 -33 -23s-31 11 -31 28z" />
    <glyph glyph-name="Euro" unicode="&#x20ac;" horiz-adv-x="535" 
d="M7 336c-3 25 15 33 34 38c32 12 64 21 117 33c1 7 2 10 2 13v2c24 82 46 207 155 207c48 0 75 -14 112 -46c13 -12 13 -10 13 -23c0 -17 -12 -37 -35 -37c-37 0 -43 43 -83 43c-44 0 -63 -51 -68 -89l-8 -51c27 7 58 13 94 21h5c10 0 34 -12 34 -23
c0 -17 -10 -34 -25 -41c-40 -15 -80 -25 -119 -36l-8 -52c18 5 36 12 55 21c29 9 39 12 62 12c17 0 44 -5 47 -25c-1 -5 -9 -26 -12 -29s-16 -11 -21 -14c-49 -8 -96 -31 -144 -52l-7 -51c0 -3 -1 -16 -1 -21c0 -18 -3 -64 24 -64c4 0 6 3 11 4c167 46 231 151 254 151
c19 0 40 -19 40 -40v-2c3 -13 -139 -185 -327 -185h-5c-60 23 -76 69 -76 129v24l3 27c-8 -3 -17 -3 -25 -4c-23 0 -52 15 -52 40c24 24 53 40 88 52c3 23 4 41 7 57c-27 -7 -52 -14 -79 -23c-20 0 -59 10 -62 34z" />
    <glyph glyph-name="trademark" unicode="&#x2122;" horiz-adv-x="1034" 
d="M483 30c-3 148 -9 295 -9 443c0 15 1 66 1 104l-182 -46v-9c0 -41 12 -81 9 -121l34 -309v-22c0 -32 2 -70 -40 -70c-16 0 -39 15 -40 34l-38 397v8c-3 22 -9 73 -9 72h-8l-114 -34c-7 -11 -26 -8 -34 -8c-19 0 -43 20 -43 40c0 15 11 31 26 36l161 51c4 15 15 34 34 34
s29 -13 45 -18c23 3 127 29 148 34c16 3 20 8 37 8c10 0 20 -3 31 -8c5 3 12 5 20 5c23 0 40 -16 51 -35l144 -278c1 -3 12 -21 16 -26c1 -1 5 -3 5 -4l4 9l85 299c24 38 18 96 63 123h8c73 0 60 -95 63 -143c0 -26 17 -237 17 -262v-4c3 -23 17 -127 22 -148
c2 -12 16 -61 21 -72c-5 -31 -11 -48 -44 -48c-4 0 -15 1 -16 1c-4 3 -20 17 -21 21l-16 55l-30 228v9c-3 47 4 113 -12 161l-5 -6l-72 -290c-3 -28 -2 -73 -42 -76c-14 -2 -43 18 -46 34l-127 202l-21 42v-86c0 -81 5 -158 5 -239c0 -13 -1 -75 -1 -88
c-5 -16 -14 -30 -33 -30c-25 0 -38 7 -47 30z" />
    <glyph glyph-name="minus" unicode="&#x2212;" horiz-adv-x="409" 
d="M54 253c0 23 19 31 38 35l251 25c23 0 47 -5 47 -32c0 -11 -40 -38 -51 -32l-247 -27c-17 0 -38 12 -38 31z" />
    <glyph glyph-name="commaaccent" unicode="&#xf6c3;" horiz-adv-x="410" 
d="M195 -181c-38 29 36 90 -21 112c-38 22 -2 47 31 47c25 0 42 -10 42 -37c0 -4 0 -13 -1 -14c-5 -66 -1 -116 -51 -108z" />
    <glyph glyph-name="fi" unicode="&#xfb01;" horiz-adv-x="466" 
d="M363 38c-13 133 -22 226 -29 290c-3 30 -6 54 -9 73l-6 -3l-118 -72c-14 -10 -39 -28 -53 -40l-7 -5v-10l26 -85c-1 -4 -1 -9 4 -12l47 -143c7 -24 -15 -42 -36 -42c-24 0 -50 13 -57 38l-55 181l-4 8c-59 -11 -63 52 -52 60c4 1 23 14 26 17c1 0 1 0 2 1l3 3v18
c0 75 -13 147 -13 220c0 96 -2 222 123 222h19c20 0 44 -6 44 -30c0 -49 -54 -15 -81 -50c-3 -3 -8 -18 -8 -22c-5 -18 -12 -72 -12 -75v-8c0 -8 -1 -21 -1 -34v-54c0 -37 3 -67 9 -111h8l135 80c9 2 18 5 25 10c7 4 14 6 23 7v7c0 15 16 26 29 26c20 0 48 -5 56 -26
c24 -131 10 -266 42 -397c0 -5 8 -37 8 -42v-2c0 -1 0 -1 1 -2c0 -16 -18 -37 -34 -34c-4 1 -25 5 -30 8c-7 2 -33 20 -25 30zM307 767c0 9 21 18 29 18c20 0 52 -11 52 -34s-3 -29 -26 -29c-24 0 -55 17 -55 45z" />
    <glyph glyph-name="fl" unicode="&#xfb02;" horiz-adv-x="446" 
d="M324 70c0 56 4 108 4 164l-3 167l-6 -3l-118 -72c-14 -10 -39 -28 -53 -40l-7 -5v-10l26 -85c-1 -4 -1 -9 4 -12l47 -143c7 -24 -15 -42 -36 -42c-24 0 -50 13 -57 38l-55 181l-4 8c-59 -11 -63 52 -52 60c4 1 23 14 26 17c1 0 1 0 2 1l3 3v18c0 75 -13 147 -13 220
c0 96 -2 222 123 222h19c20 0 44 -6 44 -30c0 -49 -54 -15 -81 -50c-3 -3 -8 -18 -8 -22c-5 -18 -12 -72 -12 -75v-8c0 -8 -1 -21 -1 -34v-54c0 -37 3 -67 9 -111h8l135 80c19 4 31 17 50 17c3 0 5 0 8 -1c0 69 -3 140 -10 213c0 25 12 32 36 32c31 0 56 -19 57 -51
c-3 -189 9 -373 9 -564v-77c-8 -11 -24 -25 -39 -22c-39 7 -55 33 -55 70z" />
  </font>
</defs>
</svg>
